<?xml version="1.0" encoding="UTF-8"?>
<svg xmlns="http://www.w3.org/2000/svg" xmlns:xlink="http://www.w3.org/1999/xlink" viewBox="0 0 500 500">
  <defs>
    <style>
      .cls-1 {
        fill: #7f2b25;
      }

      .cls-1, .cls-2, .cls-3, .cls-4, .cls-5, .cls-6, .cls-7, .cls-8, .cls-9, .cls-10, .cls-11, .cls-12, .cls-13, .cls-14, .cls-15, .cls-16, .cls-17, .cls-18, .cls-19, .cls-20, .cls-21, .cls-22, .cls-23, .cls-24, .cls-25, .cls-26, .cls-27, .cls-28 {
        stroke-width: 0px;
      }

      .cls-2 {
        fill: #815b89;
      }

      .cls-3 {
        fill: #ffcdab;
      }

      .cls-4 {
        fill: #658ec1;
      }

      .cls-5 {
        fill: #6d8584;
        opacity: .5;
      }

      .cls-6 {
        fill: #6b3612;
      }

      .cls-7 {
        fill: #3f2222;
      }

      .cls-8 {
        fill: #8cb75a;
      }

      .cls-9 {
        fill: #385e96;
      }

      .cls-10 {
        fill: #ffce6c;
      }

      .cls-11 {
        fill: #e06868;
      }

      .cls-29 {
        clip-path: url(#clippath-2);
      }

      .cls-13 {
        fill: #9b4134;
      }

      .cls-14 {
        fill: #ed9877;
      }

      .cls-15 {
        fill: #b57443;
      }

      .cls-16 {
        fill: none;
      }

      .cls-30 {
        clip-path: url(#clippath-1);
      }

      .cls-31 {
        clip-path: url(#clippath-4);
      }

      .cls-17 {
        fill: #fff;
      }

      .cls-18 {
        fill: #c93;
      }

      .cls-19 {
        fill: #ffd2bb;
      }

      .cls-20 {
        fill: #231f20;
      }

      .cls-21 {
        fill: #363;
      }

      .cls-32 {
        clip-path: url(#clippath);
      }

      .cls-33 {
        clip-path: url(#clippath-3);
      }

      .cls-22 {
        fill: #699b49;
      }

      .cls-23 {
        fill: #fca4a4;
      }

      .cls-34 {
        clip-path: url(#clippath-5);
      }

      .cls-24 {
        fill: #c64b3e;
      }

      .cls-25 {
        fill: #583860;
      }

      .cls-26 {
        fill: #82441a;
      }

      .cls-27 {
        fill: #603534;
      }

      .cls-28 {
        fill: #af3f3f;
      }
    </style>
    <clipPath id="clippath">
      <path class="cls-16" d="M201.66,445.17c0-6.5,4.33-7.83,10.33-9.83,6.67-2.17,14.5-5.17,15.33-13,2.67,0,6.5-.33,9-1.33.67,7.17.33,14.67,2.17,21.67-6.17,1.5-13,2.83-19.5,3.5-5.17.5-12.42.71-17.42-.46l.09-.54Z"/>
    </clipPath>
    <clipPath id="clippath-1">
      <path class="cls-16" d="M308.89,445.17c0-6.5-4.33-7.83-10.33-9.83-6.67-2.17-14.5-5.17-15.33-13-2.67,0-6.5-.33-9-1.33-.67,7.17-.33,14.67-2.17,21.67,6.17,1.5,13,2.83,19.5,3.5,5.17.5,12.42.71,17.42-.46l-.09-.54Z"/>
    </clipPath>
    <clipPath id="clippath-2">
      <path class="cls-16" d="M223.16,267c.5-2.33,2.05-7.28,2-9.67-.12-6.03-.33-8.17.17-13,.67-7.83.83-15.67,1.33-23.33.17-4.5.67-9,1.17-13.33-5.83-1.17-11.83-.67-17.5-2.83,0,0,6-14.83,8.67-21.83,1.5-3.83,3-6.67,7.17-8,3-1,11.67.83,12.67,1,.33,3.17-.5,4.5,1.17,7.33,1.83,3.17,4.83,4,8.33,4.33,7.5.67,9.3-3.17,9.46-9.84,5.5-.5,15.2-3.5,19.87.34,3.17,2.5,11.51,26.53,11.68,28.19,0,0-1.68,1.81-4.35,2.97-4,2-8,2.33-12.5,2.5-.33,8.33.17,16.5.67,24.67.17,4,1.17,7.5,2,11.33.5,2.17-.33,3.83-.67,6-.33,2.17.67,3.5,1.17,5.5.67,2.83.83,6,1.33,9-27.15,6.5-53.83-1.33-53.83-1.33Z"/>
    </clipPath>
    <clipPath id="clippath-3">
      <path class="cls-16" d="M219.24,247.29s2.44-13.13,3.56-18.24c4.19-19.16,5.08-55.04,5.08-55.04,1.32-1.51,8-.23,9.67.26.39,7.5-.72,15.17-1.33,22.51-.61,7.67-6.44,50.73-8.94,51.75-2.32,1.18-8.04-1.24-8.04-1.24Z"/>
    </clipPath>
    <clipPath id="clippath-4">
      <path class="cls-16" d="M278.29,247.29s-2.44-13.13-3.56-18.24c-4.19-19.16-5.08-55.04-5.08-55.04-1.32-1.51-8-.23-9.67.26-.39,7.5.72,15.17,1.33,22.51.61,7.67,6.44,50.73,8.94,51.75,2.32,1.18,8.04-1.24,8.04-1.24Z"/>
    </clipPath>
    <clipPath id="clippath-5">
      <path class="cls-16" d="M192.7,143.89c8-.83,16.46.94,24.62.94,10.67,0,58.83-3.17,75.17,0,2.21-.46,5.42,13.17,5.17,22.33-.08,2.69-.33,10.33-2.67,11.83-3,1.83-10.5,1.17-14,1.17-18.83,0-38,.67-56.83-.5-5.17-.33-10.33.33-15.5.5-2.5,0-13.6.98-14.6-1.35l-1.36-34.92Z"/>
    </clipPath>
  </defs>
  <g id="BACKGROUND">
    <ellipse class="cls-5" cx="248.73" cy="446.32" rx="93.97" ry="12.54"/>
  </g>
  <g id="OBJECTS">
    <g>
      <g>
        <path class="cls-20" d="M98.47,34.72l-6.64.44v-6.71l16.84-.56c.09,2.15-.28,4.3-.28,6.46l-5.71.66c-.19,3.84.75,20.3.75,20.3l-5.15.47.19-21.05Z"/>
        <polygon class="cls-20" points="109.32 42.4 113.16 42.58 114.28 55.21 110.17 55.49 109.32 42.4"/>
        <path class="cls-20" d="M109.23,37.25c-.56,1.68.19,3.27,2.25,2.99,4.49-.56.84-6.64-1.96-3.37l-.28.37Z"/>
        <path class="cls-20" d="M117.09,57.18l4.77-.19-.09-11.69c.1-2.3,2.71-5.33,4.21-2.06.84,1.68.75,4.02.75,5.89,1.12.09,2.34-.19,3.46,0,0-1.78-.28-3.84.47-5.52,1.4-2.9,3.46-1.5,3.65,1.03.28,4.12.09,7.79-.1,11.91l3.94-.02h0c0-4.3.09-8.61.09-12.91,0-2.15.19-4.21-1.12-5.99-1.5-2.15-3.93-2.06-5.8-.47-1.22.94-1.59,2.15-2.34,3.37-1.12-5.61-5.71-3.37-7.67.28l.09-4.86h-4.58l.28,21.24Z"/>
        <path class="cls-20" d="M153.76,45.39c.37-2.71.56-6.27-1.87-8.14-3.74-2.62-9.08-.65-10.76,3.18-1.59,3.46-1.31,8.7.28,12.16,1.78,3.74,6.92,5.33,10.29,2.53,1.59-1.31,1.68-3.46,1.78-5.43-1.22-.09-2.25,0-3.46,0,0,1.22.09,2.62-1.12,3.27-1.22.56-2.62,0-3.37-.84-1.31-1.5-1.5-6.27-1.5-6.27l9.73-.47ZM151.05,42.96l-6.64.37c-.56-4.68,7.2-5.15,6.64-.37Z"/>
      </g>
      <g>
        <path class="cls-20" d="M172.18,35.13l-4.39.15c0-1.22-.37-2.43-.47-3.74l4.28-.37-.26-7.58,4.3-.65.19,8.14c1.5,0,3.37-.09,4.86-.37.19,1.31.09,2.62.09,3.93h0c-1.31-.09-2.81.28-4.21.28-.19,3.65.28,7.2.28,10.85,0,3.09.47,6.46.19,9.54-1.5,0-3.27.28-4.58,0l-.29-20.17Z"/>
        <path class="cls-20" d="M186.64,39.53c-4.1,0-7.43,3.32-7.43,7.42s3.32,7.42,7.43,7.42,7.43-3.32,7.43-7.42-3.32-7.42-7.43-7.42ZM186.63,51.1c-2.4,0-4.35-1.86-4.35-4.16s1.95-4.16,4.35-4.16,4.35,1.86,4.35,4.16-1.95,4.16-4.35,4.16Z"/>
      </g>
      <g>
        <path class="cls-20" d="M235.14,40.59c-4.1,0-7.43,3.32-7.43,7.42s3.32,7.42,7.43,7.42,7.43-3.32,7.43-7.42-3.33-7.42-7.43-7.42ZM235.13,51.61c-2.09,0-3.79-1.62-3.79-3.62s1.69-3.62,3.79-3.62,3.78,1.62,3.78,3.62-1.7,3.62-3.78,3.62Z"/>
        <path class="cls-20" d="M228.14,39.96c-.09-1.22-.28-2.43-.37-3.55-1.78-.28-3.18,0-4.58,1.03-.48.3-1.44,1.31-2,2.03-1.28-.75-2.77-1.19-4.36-1.19-4.75,0-8.61,3.84-8.61,8.58,0,4.28,3.15,7.82,7.27,8.46-.14.6-.21,1.24-.23,1.87-5.45.06-9.85,3.17-9.85,7.01s4.48,7.02,10.01,7.02,10.01-3.14,10.01-7.02c0-3.01-2.72-5.58-6.52-6.57.23-.79.43-1.84.64-2.64,3.41-1.14,5.88-4.34,5.88-8.13,0-2.29-.91-4.37-2.38-5.91,1.17-1.34,3.6-1.88,5.1-.98ZM221.27,63.99c0,2.09-2.68,3.78-5.98,3.78s-5.98-1.69-5.98-3.78,2.68-3.78,5.98-3.78,5.98,1.69,5.98,3.78ZM216.71,51.14c-2.79,0-5.05-2.03-5.05-4.54s2.26-4.54,5.05-4.54,5.05,2.03,5.05,4.54-2.26,4.54-5.05,4.54Z"/>
      </g>
      <g>
        <path class="cls-20" d="M262.03,38.88c-4.1,0-7.43,3.32-7.43,7.42s3.32,7.42,7.43,7.42,7.43-3.32,7.43-7.42-3.33-7.42-7.43-7.42ZM262.02,50.45c-2.4,0-4.35-1.86-4.35-4.16s1.95-4.16,4.35-4.16,4.35,1.86,4.35,4.16-1.95,4.16-4.35,4.16Z"/>
        <path class="cls-20" d="M262.03,38.99c-4.1,0-7.43,3.32-7.43,7.42s3.32,7.42,7.43,7.42,7.43-3.32,7.43-7.42-3.33-7.42-7.43-7.42ZM262.02,50.13c-2.15,0-3.9-1.67-3.9-3.73s1.74-3.73,3.9-3.73,3.9,1.67,3.9,3.73-1.75,3.73-3.9,3.73Z"/>
        <path class="cls-20" d="M271.02,51.75c1.18.12,2.42.06,3.59,0-.19-1.55-.31-3.1-.25-4.65,0-1.18-.06-3.47.87-4.4,1.24-1.36,2.85-.37,3.16,1.11.31,1.67.12,3.59.06,5.27-.06.87-.06,1.73-.19,2.6,1.24.06,2.66-.19,3.84.12h0c.19-2.73.5-5.64.25-8.42-.25-2.85-2.35-6.01-5.64-4.34-.68.37-1.36.99-1.67,1.67-.19-.74.12-1.55.06-2.35-1.18-.19-2.79-.06-3.78-.06l-.31,13.44Z"/>
      </g>
      <g>
        <path class="cls-20" d="M299.67,33.35c-.99,0-2.17.06-3.16.19l-.06-3.78,3.28-.31s-.12-5.27-.06-7.81c1.18-.19,2.91-.43,4.09-.12.06,2.6.19,7.81.19,7.81,1.18.06,2.48,0,3.72.19l-.06,3.72h-3.42s.57,17.16.57,20.57c-1.42.31-3.28-.19-4.77-.19-.12-.12,0-.12.06-.25l-.37-20.01Z"/>
        <path class="cls-20" d="M311.13,53.18l3.59.06s-.4-6.22-.19-9.48c.09-1.45,1.3-3.16,2.85-3.47,1.98-.5,2.66,1.67,2.85,3.22.31,3.04-.12,9.17-.12,9.17l3.65.06h0s.48-5.95.29-8.8c-.19-2.54-.42-6.2-3.08-7.44-2.85-1.3-5.76-.78-6.88,1.76l.06-14.45c-1.3-.12-2.66,0-4.03-.06l.99,29.43Z"/>
        <path class="cls-20" d="M335.04,46.42c-.06,1.3.06,2.73-1.24,3.47-.93.5-2.57.35-3.34-.31-1.24-1.05-2.25-4.8-1.24-6.75l8.95-.06s.42-3.65-1.07-5.75c-1.12-1.67-3.07-2.71-5.17-2.34-1.67.31-3.29,1.68-4.24,2.96-1.95,2.62-2.56,6.31-1.57,9.96.87,3.41,4.09,5.82,7.62,5.39,3.16-.37,4.58-3.59,4.34-6.57,0,0-2.04-.06-3.03,0ZM332.13,37.25c1.05-.31,2.17-.25,2.91.74.37.5.37,2.48.37,2.48l-6.12.06c-.06-1.42,1.42-2.85,2.84-3.28Z"/>
      </g>
      <g>
        <path class="cls-20" d="M371.19,39.09c-3.77,0-6.83,3.06-6.83,6.83s3.06,6.83,6.83,6.83,6.83-3.06,6.83-6.83-3.06-6.83-6.83-6.83ZM371.18,49.73c-2.21,0-4-1.71-4-3.83s1.79-3.83,4-3.83,4,1.71,4,3.83-1.79,3.83-4,3.83Z"/>
        <path class="cls-20" d="M352.66,52.87c1.03-.19,2.34-.19,3.37-.19.19-2.53-.65-5.52.09-7.95.84-2.81,4.77-4.49,5.71-.75.94-.75,1.59-1.87,2.53-2.62-1.59-2.53-6.27-4.86-8.33-1.12v-2.99c-1.12,0-2.9.19-3.74.19l.37,15.44Z"/>
        <path class="cls-20" d="M384.57,34.44c-3.18.09-4.49,4.02-4.87,6.27l.09.09c1.03,0,2.15.09,3.09.37-.19-1.78,1.96-3.93,3.37-2.06.94,1.22.47,2.58.19,3.98-1.68-.47-3.77-.25-5.46.69-1.59.84-2.18,3.04-2.18,4.72,0,1.78,1.64,3.5,3.62,3.8,2.81.44,4.3-2.06,4.3-2.06-.19.94-.28,1.87-.47,2.71.75,0,2.53.37,3.18,0,0,0,1.18-8.43,1.27-10.59.09-4.02-1.18-7.94-6.14-7.94ZM383.49,50.04c-1.33,0-2.42-1.11-2.42-2.49s1.08-2.49,2.42-2.49,2.42,1.11,2.42,2.49-1.08,2.49-2.42,2.49Z"/>
        <path class="cls-20" d="M404.24,28.61c-.44,4.37-.94,8.67-1.62,12.97-.62-1.68-2.99-2-4.62-1.87-2.37.25-4.05,1.68-4.93,3.81-1.37,3.49-.81,8.61,3.55,9.11,2.31.25,4.24-.75,5.61-2.49-.12,1.18-.37,2.56-.31,3.74,1.37.19,2.81.06,4.18.25l2.06-25.95c-1.31.06-2.62.31-3.93.44ZM400.56,47.76c-.62,1.31-2.12,2.12-3.56,1.75-1.62-.44-2.12-1.93-2-3.49.09-.89.63-1.96,1.35-2.49.69-.51,1.77-.78,2.7-.61,2.16.41,2.27,3.23,1.5,4.85Z"/>
      </g>
    </g>
    <g>
      <path class="cls-18" d="M226.24,445.17c-.08,1.33-.08,1.42.25,2.67,2.83,0,12.17-.33,12.67-1.08.5-.92-.42-3.25-.58-4.08-1.25-.08-3.83,1.17-4.75.67l-7.58,1.83Z"/>
      <path class="cls-18" d="M224.99,445.25c1,3.83-8.33,3.93-11.83,4.01-3.67.08-10.33.49-12.33-.43-1.08-.5-.33-3.08-.33-3.08l24.5-.5Z"/>
      <path class="cls-10" d="M201.66,445.17c0-6.5,4.33-7.83,10.33-9.83,6.67-2.17,14.5-5.17,15.33-13,2.67,0,6.5-.33,9-1.33.67,7.17.33,14.67,2.17,21.67-6.17,1.5-13,2.83-19.5,3.5-5.17.5-12.42.71-17.42-.46l.09-.54Z"/>
      <g class="cls-32">
        <g>
          <path class="cls-18" d="M238.77,438.96c-2.06,1-4.91,1.16-7.16,1.54-2.7.46-5.47.74-8.2.99-2.04.19-4.16.34-6.2.21-1.16-.34-1.52-.98-1.07-1.92.8-.94,1.8-1.49,2.99-1.66,1.09-.26,2.18-.53,3.25-.84,6.54-1.9,12.06-9.24,10.77-16.17-.05-.29-1.04-.12-.99.16,1.02,5.46-2.3,10.89-6.59,14-2.49,1.8-5.5,1.96-8.3,2.96-1.36.49-2.14,1.18-2.29,2.63-.32,3.13,22.09-.54,24.34-1.63.58-.28-.27-.4-.55-.26h0Z"/>
          <path class="cls-18" d="M216.68,433.89c2.34-.91,4.2,1.11,5.39,2.88.11.16,1.01.44.91.16-.05-.09-.07-.19-.06-.3-.01-.27-.96-.53-.95-.22,0,.1.01.2.06.3.3.05.61.1.91.16-1.51-2.23-4.15-4.56-7.02-3.45-.36.14.5.57.75.47h0Z"/>
          <path class="cls-18" d="M220.09,431.07c1.35.23,2.54.38,3.72,1.19.93.64,1.59,1.59,2.11,2.58.11.21,1.04.45.96.13-.01-.11-.05-.21-.12-.3-.15-.27-1.07-.34-.96-.13.07.09.11.19.12.3.32.04.64.09.96.13-.64-1.23-1.47-2.23-2.62-3.02-1.36-.93-2.76-1.05-4.33-1.33-.67-.12-.25.37.16.44h0Z"/>
          <path class="cls-18" d="M223.04,429.09c1.68,0,3.2.78,4.49,1.78.38.29.97.81,1.12,1.28.28-.03.57-.07.85-.1-.02-.01-.04-.02-.06-.03-.22-.13-1.19-.06-.73.2.02.01.04.02.06.03.12.07.96.22.85-.1-.31-.93-1.61-1.71-2.36-2.18-1.31-.83-2.9-1.28-4.45-1.28-.68,0-.21.41.22.41h0Z"/>
          <path class="cls-18" d="M224.6,426.88c2.17.03,4.56.59,5.91,2.43.18.25,1.11.18.97-.02-1.6-2.19-4.54-2.79-7.11-2.82-.68,0-.19.4.23.41h0Z"/>
          <path class="cls-18" d="M224.96,424.64c1.91-.21,5.52.1,6.96,1.71.18.2,1.12.31.89.04-1.82-2.05-5.92-2.51-8.45-2.23-.52.06.35.5.6.47h0Z"/>
        </g>
      </g>
      <path class="cls-18" d="M284.3,445.17c.08,1.33.08,1.42-.25,2.67-2.83,0-12.17-.33-12.67-1.08-.5-.92.42-3.25.58-4.08,1.25-.08,3.83,1.17,4.75.67l7.58,1.83Z"/>
      <path class="cls-18" d="M285.55,445.25c-1,3.83,8.33,3.93,11.83,4.01,3.67.08,10.33.49,12.33-.43,1.08-.5.33-3.08.33-3.08l-24.5-.5Z"/>
      <path class="cls-10" d="M308.89,445.17c0-6.5-4.33-7.83-10.33-9.83-6.67-2.17-14.5-5.17-15.33-13-2.67,0-6.5-.33-9-1.33-.67,7.17-.33,14.67-2.17,21.67,6.17,1.5,13,2.83,19.5,3.5,5.17.5,12.42.71,17.42-.46l-.09-.54Z"/>
      <g class="cls-30">
        <g>
          <path class="cls-18" d="M271.09,439.26c2.25,1.09,5.05,1.22,7.49,1.63,2.78.47,5.63.76,8.44,1.02,1.61.15,7.37,1.28,8.49-.71.82-1.46-1.15-2.6-2.1-3.02-2.51-1.1-5.26-1.21-7.72-2.57-4.78-2.66-8.33-8.98-7.31-14.45.06-.32-.92-.22-.97.05-1.39,7.45,4.61,14.35,11.4,16.32,2.04.59,5.49.64,5.77,3.32.15,1.45-6.5.69-7.12.64-2.47-.19-4.92-.56-7.38-.87-2.46-.32-5.93-.6-8.17-1.69-.24-.12-1.15.17-.82.33h0Z"/>
          <path class="cls-18" d="M294.31,433.47c-2.85-1.1-5.21.93-6.75,3.19.31.11.63.22.94.33.05-.09.07-.19.06-.3.02-.33-.93-.55-.94-.33,0,.11-.01.21-.06.3-.1.28.78.57.94.33,1.18-1.74,3.32-4.05,5.67-3.14.55.21.68-.16.13-.38h0Z"/>
          <path class="cls-18" d="M290.23,430.63c-1.49.26-2.7.4-4.02,1.21-1.14.7-1.93,1.79-2.54,2.95.32.08.65.16.97.25.01-.11.05-.21.12-.3.11-.2-.81-.53-.97-.25-.07.09-.11.19-.12.3-.07.28.84.5.97.25.55-1.06,1.24-1.93,2.18-2.65,1.23-.95,2.56-1.05,4.03-1.31.52-.09-.37-.49-.62-.45h0Z"/>
          <path class="cls-18" d="M287.51,428.67c-1.53,0-2.96.48-4.28,1.24-.76.44-2.02,1.27-2.32,2.17-.09.28.79.28.92.2.02-.01.04-.02.06-.03.32-.19-.61-.43-.84-.3-.02.01-.04.02-.06.03.31.07.61.13.92.2.15-.46.78-.98,1.14-1.28,1.27-1.08,3.01-1.83,4.68-1.83.68,0,.21-.41-.22-.41h0Z"/>
          <path class="cls-18" d="M285.95,426.47c-2.48.04-5.32.62-6.87,2.73-.17.23.78.43.95.2,1.4-1.92,3.89-2.49,6.15-2.52.68,0,.2-.41-.23-.41h0Z"/>
          <path class="cls-18" d="M285.69,424.17c-2.34-.26-6.26.12-7.96,2.02-.2.23.71.58.9.37,1.57-1.77,5.32-2.16,7.45-1.92.64.07-.1-.44-.39-.47h0Z"/>
        </g>
      </g>
      <path class="cls-15" d="M209.07,178.5c-3.45-.25-6.37,1-8.49,3.75-3.71,5-4.77,51.75-4.24,67.75.27,5.25-.27,13.25,2.39,18.25,2.39,4.5,10.61,7,15.65,7.75,16.18,2.75,63.4-.75,69.5-1.75,8.22-1.25,8.75-8.75,9.28-15.5.8-14.75-.26-61.75,0-70.5,0-3.5-.23-8.38-9.02-10-18.13-3.34-75.07.25-75.07.25Z"/>
      <path class="cls-9" d="M240.83,423.67c1.33-15,4.98-129.35,4.67-133,4,0,8.67.33,12.67,1,2,33,11.35,121.53,11.02,132.2,7,1.33,12.65,1.8,19.98.8-2.33-29.33-14-135-15-158.67-15.67-1-32,.33-47.67-1.67-2,14.33-2.67,151.74-5,160.74,0,0,7.25,2.44,19.33-1.41Z"/>
      <path class="cls-4" d="M241.86,290.37c3.46-.44,6.93.14,10.3.52,3.39.41,6.76.7,10.15.03-1.58.71-3.32,1.08-5.07,1.17-1.75.11-3.49-.02-5.21-.21-3.44-.42-6.75-1.17-10.19-1.52Z"/>
      <path class="cls-4" d="M247.94,268.8c.09,1.83.1,3.65.12,5.48.02,1.83-.02,3.65-.02,5.48,0,3.65-.04,7.29.15,10.92l-.41-.44c2.67.32,5.37.46,8.07.83l-.54.43c.19-1.96.25-3.98.32-5.98l.15-6.02c.04-2.01.04-4.01.05-6.02-.01-2,.01-4.02-.26-6.01.47,1.96.54,3.99.7,5.99.13,2.01.17,4.02.22,6.03.05,2.01.06,4.02.02,6.04-.04,2.02-.07,4.02-.24,6.06-.02.26-.25.45-.51.43h-.01s-.02,0-.02,0c-2.67-.3-5.37-.51-8.07-.87-.23-.03-.4-.22-.41-.44-.15-3.67-.07-7.33.12-10.98l.56-10.94Z"/>
      <path class="cls-4" d="M227.49,275.22c1.03-.03,2.02-.12,2.92-.42.9-.3,1.69-.8,2.35-1.46,1.35-1.33,2.19-3.15,3.13-4.97-.08,1.03-.32,2.04-.71,3.01-.39.97-.95,1.9-1.72,2.67-.78.76-1.79,1.32-2.86,1.5-1.07.19-2.15.05-3.11-.33Z"/>
      <path class="cls-4" d="M272.38,276.32c-1.11.26-2.33.13-3.43-.28-1.11-.41-2.11-1.11-2.91-1.99-.79-.89-1.37-1.98-1.6-3.16-.24-1.17-.1-2.4.41-3.42-.11,1.13,0,2.22.34,3.22.34,1,.88,1.91,1.59,2.69,1.4,1.57,3.34,2.64,5.59,2.94Z"/>
      <path class="cls-8" d="M192.7,143.65c8-.84,16.45.95,24.62.95,10.66,0,58.82-3.19,75.15,0,2.21-.46,5.42,13.26,5.17,22.48-.08,2.7-.33,10.4-2.67,11.91-3,1.85-10.5,1.17-14,1.17-18.83,0-37.99.67-56.82-.5-5.17-.34-10.33.34-15.5.5-2.5,0-13.6.99-14.6-1.36l-1.36-35.15Z"/>
      <path class="cls-22" d="M195.08,179.62c5.58,1.89,5.38-21.5,5-23.88-.5-3-3.12-14.62-8.5-11.38-2.12,1.38-1.88,6-1.88,8.12,0,3.62.12,7.25.5,10.88.38,2.88,1.75,15.5,4.88,16.25h0Z"/>
      <path class="cls-1" d="M267.04,133c2.91,1.94,8.73.88,9.97-2.56,1.59-4.41-3.53-7.76-6.79-9.44-2.65-1.32-6.97-2.38-9.88-1.5-1.68.53-3.35,1.68-3.44,3.53-.09,1.59,1.15,3.88,2.47,4.76l7.67,5.2Z"/>
      <path class="cls-19" d="M237.49,177c1.67.5,3.5.5,5.17,1h0c0-2.17.5-4.33.5-6.5-8.17-1.17-14.67-8.33-15-16.5-.17-3.67.17-7.33,0-10.83-.17-4.5-1-9-.67-13.5,1-12,12.83-17.83,23.5-17.17,9.5.5,14.83,5.17,15.17,14.83.17,7.17-.67,14.33.17,21.33.5,3.5,1.33,7.17.33,10.5-1,3-4.5,7-7.5,8.67-1.83,1-4.5,1.67-6.67,2.17-.17,2.83,1.17,5.67,1.33,8.5,3.5,0,7.33-2.5,7,2.67-.33,4.5-6,9-10,10.33-4.83,1.67-11.67,1.83-14.67-3-2.5-4-1-7.33.17-11.33l1.17-1.17Z"/>
      <g>
        <path class="cls-19" d="M245.16,147.5c1.83,1.83,4,3.83,6.67,4-.33-3-1.83-6.33-2.17-9.5"/>
        <path class="cls-14" d="M245.16,147.5c1.06.81,2.1,1.64,3.2,2.31,1.1.66,2.28,1.14,3.5,1.21l-.52.54c-.2-1.55-.63-3.11-1.01-4.69-.18-.79-.36-1.59-.49-2.41-.11-.82-.21-1.64-.18-2.46.21.79.42,1.57.69,2.34l.78,2.3c.5,1.54,1.01,3.12,1.19,4.81l.06.58-.58-.04c-1.45-.09-2.77-.75-3.85-1.58-1.09-.83-1.98-1.85-2.79-2.91Z"/>
      </g>
      <path class="cls-17" d="M246.59,160.24c1.72.31,4.94.31,6.35-.93.55-.5,1.14-1.53,1.38-2.53-3.39,1.35-8.71,1.29-12.34.5.45,1.81,3.02,2.71,4.62,2.96Z"/>
      <g>
        <path class="cls-11" d="M251.5,160.04c-1.57.48-3.65.42-4.92.2-1.6-.25-4.16-1.15-4.62-2.96-.39-.08-.76-.18-1.1-.28,1.11,3.14,2.1,5.56,5.47,7.05,2.57,1.14,4.9.58,6.52-.94-.26-.91-.5-1.82-1.03-2.66-.1-.15-.22-.28-.33-.42Z"/>
        <path class="cls-28" d="M255.14,156.4c-.26.14-.54.26-.82.37-.24,1.01-.82,2.03-1.38,2.53-.37.32-.87.56-1.43.73.11.14.23.27.33.42.53.84.78,1.75,1.03,2.66,1.64-1.53,2.56-4.02,2.27-6.71Z"/>
      </g>
      <g>
        <path class="cls-19" d="M238.99,154.75c1.5,2.33,3.83,3.08,6.5,3.58,3.08.58,7.92.08,10.25-2.17.58-.5,1.08-1.08,1.25-1.92"/>
        <path class="cls-14" d="M238.99,154.75c1.1,1.38,2.62,2.19,4.23,2.63,1.64.42,3.32.72,4.99.67,1.68-.01,3.37-.24,4.95-.77.79-.27,1.55-.62,2.22-1.12.71-.5,1.33-1.06,1.61-1.91-.04.9-.69,1.68-1.29,2.28-.64.64-1.43,1.12-2.25,1.48-1.65.72-3.45,1.01-5.23,1.04-.89,0-1.79-.06-2.67-.23-.86-.18-1.73-.39-2.56-.7-.84-.31-1.65-.73-2.35-1.3-.69-.57-1.26-1.29-1.64-2.07Z"/>
      </g>
      <path class="cls-26" d="M227.91,143.67c1.08-.25,1.42-2.42,1.67-3.42.5-2.25.33-4.83.17-7.17-.08-1.5.08-1,1.17-1.83,1-.75,1.08-2,1.25-3.17.08-.83.92-5.67.17-6.33l-.17-.17c-2,2.08-4.67,3.5-6.17,6.08-1.08,1.92-1.92,4.25-2.33,6.42-.83,3.83-.75,7.58,3.17,9.5l1.08.08Z"/>
      <path class="cls-26" d="M265.83,140.33c-.92-.58-.92-2.83-1.08-3.83-.25-2.42,0-4.83-.08-7.17-3.08.33-5.92-9.08-3.67-10.17,1.75-.83,4.17,1.17,5.25,2.17,1.5,1.58,2.25,3.5,2.83,5.58.75,2.58.92,5.08.58,7.75-.25,1.42-1.92,6.58-3.83,5.83v-.17Z"/>
      <path class="cls-19" d="M228.83,144c-1.17-2.08-4.17-3.08-6.33-2.33-4.25,1.58-3.33,10.08.5,11.58,2,.83,4.75.67,6.33-.83l-.5-8.42Z"/>
      <path class="cls-19" d="M264.66,141.83c1.42-2.83,6.83-3.67,8.5-.67,2.25,4.08-1.25,9.08-5.17,10-1.33.33-2.67.42-3.67-.67l.33-8.67Z"/>
      <path class="cls-6" d="M237.24,128.67c-.09-.72.2-1.42.7-1.97.51-.54,1.26-.89,2.03-.94,1.56-.11,3.03.98,3.18,2.41-.7-.16-1.24-.3-1.73-.36-.49-.07-.91-.08-1.32-.05-.82.05-1.6.26-2.87.91Z"/>
      <path class="cls-6" d="M251.08,127.75c.06-.7.53-1.25,1.07-1.62.55-.37,1.21-.56,1.89-.54.67,0,1.38.23,1.93.71.54.47.87,1.21.69,1.88-.6-.34-1.04-.45-1.45-.5-.41-.06-.79-.07-1.2-.08-.41,0-.84,0-1.3.01-.47.02-.96.04-1.63.15Z"/>
      <path class="cls-12" d="M241.33,138.79c0,1.45-.52,2.63-1.17,2.63s-1.17-1.18-1.17-2.63.52-2.63,1.17-2.63,1.17,1.18,1.17,2.63Z"/>
      <path class="cls-12" d="M255.62,138.79c0,1.45-.52,2.63-1.17,2.63s-1.17-1.18-1.17-2.63.52-2.63,1.17-2.63,1.17,1.18,1.17,2.63Z"/>
      <path class="cls-13" d="M241.26,104.52c-1.6,1.5-3.65-1.09-1.17-2.32,1.17-.55,4.52-.68,5.83-.27,2.63.68,3.35,2.86,0,2.86l-4.67-.27Z"/>
      <path class="cls-19" d="M215.33,204.5c-1.67,5.5-2.5,11.5-3.67,17.33-1.33,5.67-5,14.33-2.5,20,1.5,3.5,6.83,4.83,9.5,1.67,2.33-2.67,2.5-7.67,3-11,1-8.67,2.67-17.17,4.5-25.67.17-1.33.67-2.5.83-3.83l-11.67,1.5Z"/>
      <path class="cls-19" d="M282.66,206.67s3.5,16.17,5.33,23.5c.67,2.83,2.67,8,0,9.83-2.67,2-7,1-9-1.67-2.5-3.67-7.5-27.33-8-32.67l11.67,1Z"/>
      <path class="cls-2" d="M223.16,267c.5-2.33,2.05-7.28,2-9.67-.12-6.03-.33-8.17.17-13,.67-7.83.83-15.67,1.33-23.33.17-4.5.67-9,1.17-13.33-5.83-1.17-11.83-.67-17.5-2.83,0,0,6-14.83,8.67-21.83,1.5-3.83,3-6.67,7.17-8,3-1,11.67.83,12.67,1,.33,3.17-.5,4.5,1.17,7.33,1.83,3.17,4.83,4,8.33,4.33,7.5.67,9.3-3.17,9.46-9.84,5.5-.5,15.2-3.5,19.87.34,3.17,2.5,11.51,26.53,11.68,28.19,0,0-1.68,1.81-4.35,2.97-4,2-8,2.33-12.5,2.5-.33,8.33.17,16.5.67,24.67.17,4,1.17,7.5,2,11.33.5,2.17-.33,3.83-.67,6-.33,2.17.67,3.5,1.17,5.5.67,2.83.83,6,1.33,9-27.15,6.5-53.83-1.33-53.83-1.33Z"/>
      <g class="cls-29">
        <path class="cls-25" d="M236.45,173.25c-.11,2.09-.23,4.19-.05,6.26.15,2.06.57,4.12,1.52,5.92,1.86,3.6,5.78,6,9.79,6.17,2,.13,4.05-.27,5.83-1.21.89-.47,1.72-1.06,2.43-1.76.37-.34.69-.73,1.01-1.12.35-.42.64-.8.94-1.23,1.15-1.69,2-3.61,2.38-5.63.22-1.03.39-2.05.5-3.09.05-.52.09-1.04.08-1.56-.02-.51,0-1.07-.31-1.5.36.4.39.98.46,1.49.04.53.04,1.06.03,1.58-.03,1.05-.13,2.11-.28,3.15-.29,2.12-1.09,4.15-2.22,5.98-.28.45-.61.92-.91,1.31-.33.43-.68.85-1.07,1.23-.77.78-1.65,1.43-2.61,1.95-1.92,1.05-4.14,1.51-6.31,1.4-2.18-.13-4.31-.85-6.14-2.03-1.81-1.16-3.39-2.81-4.29-4.79-.92-1.97-1.27-4.13-1.32-6.24-.02-2.12.2-4.22.54-6.29Z"/>
      </g>
      <g>
        <path class="cls-27" d="M219.24,247.29s2.44-13.13,3.56-18.24c4.19-19.16,5.08-55.04,5.08-55.04,1.32-1.51,8-.23,9.67.26.39,7.5-.72,15.17-1.33,22.51-.61,7.67-6.44,50.73-8.94,51.75-2.32,1.18-8.04-1.24-8.04-1.24Z"/>
        <g class="cls-33">
          <path class="cls-7" d="M221.78,248.06s2.24-13.41,3.21-18.64c3.64-19.57,5.3-56.25,5.3-56.25.88-1.54,4.81-.21,5.78.3-.21,7.67-1.33,15.51-2.13,23.01-.82,7.84-6.86,51.84-8.42,52.87-1.46,1.2-3.75-1.29-3.75-1.29Z"/>
        </g>
      </g>
      <g>
        <path class="cls-27" d="M278.29,247.29s-2.44-13.13-3.56-18.24c-4.19-19.16-5.08-55.04-5.08-55.04-1.32-1.51-8-.23-9.67.26-.39,7.5.72,15.17,1.33,22.51.61,7.67,6.44,50.73,8.94,51.75,2.32,1.18,8.04-1.24,8.04-1.24Z"/>
        <g class="cls-31">
          <path class="cls-7" d="M275.75,248.06s-2.24-13.41-3.21-18.64c-3.64-19.57-5.3-56.25-5.3-56.25-.88-1.54-4.81-.21-5.78.3.21,7.67,1.33,15.51,2.13,23.01.82,7.84,6.86,51.84,8.42,52.87,1.46,1.2,3.75-1.29,3.75-1.29Z"/>
        </g>
      </g>
      <g>
        <path class="cls-23" d="M267.21,118.27c-.28-4.41-2.26-9-6.41-11.38-4.15-2.47-9.05-2.47-13.86-2.56-5.16-.16-10.56.35-15.47,1.78,2.17,2.27,2.46,6.03,2.81,9.27.24,2.54.12,5.09.24,7.63,0,.45.04,1.02.09,1.64,1.83-1.15,3.75-2.12,5.73-2.77,5.19-1.68,11.69-2.03,17.16-1.32,2.73.35,5.56.71,8.21.88,1.41.18,1.23.18,1.51-.97.19-.71.09-1.5,0-2.21Z"/>
        <path class="cls-13" d="M234.28,115.39c-.35-3.24-.64-7.01-2.81-9.27-.47.14-.95.27-1.41.43-5.94,2.03-7.36,7.23-7.73,12.61-.19,2.56,1.89,14.02,1.89,14.02.09,0,.94-.71,1.32-1.06,2.57-2.58,5.67-5.33,9.07-7.46-.05-.62-.09-1.18-.09-1.64-.12-2.54,0-5.09-.24-7.63Z"/>
      </g>
      <path class="cls-24" d="M230.07,120.98c-1.7,1.3-3.2,2.89-4.32,4.71-.94,1.52-1.86,3.49-2.1,5.29-.44,3.26,1.94,2.82,3.79,1.15,1.85-1.68,3.44-3.79,5.38-5.47,7.5-6.53,18.96-6.53,28.04-4.15,2.2.62,4.23,1.32,6.17,2.56,1.76,1.23,3.17,3,4.94,4.32,1.32,1.06,4.14,2.47,5.12.35,1.06-2.12-.53-4.5-1.94-5.91-5.8-5.45-14.87-7.14-22.54-7.49-2.67-.12-5.39-.09-8.05.15-4.34.39-9.01.99-12.79,3.32-.58.36-1.15.75-1.7,1.17Z"/>
      <g>
        <g>
          <path class="cls-3" d="M212.02,244.95c-1.1-.38-2.14-.98-2.73-1.94-.89-1.43-1.3-3.37-1.47-5.03-.1-.94-.03-1.85.04-2.79.27-3.64,1.62-5.26,4.99-6.33,2.29-.81,6.2-1.08,8.22-2.43,1.21-.94.67-1.75.67-3.5,0-1.48.13-2.97.4-4.31.4-3.1.83-6.19,2.02-9.17,1.08-2.7,4.18-3.77,7.95-3.77,2.43,0,6.65,0,6.6,3.37-.02,1.22-1.21,1.89-2.29,2.16,1.48,0,2.02,1.48,1.75,2.83-.27,1.62-1.35,2.16-2.83,2.7,3.37,2.43.26,4.07-.95,4.74,2.57.78,1.09,2.94.28,4.02-1.08,1.62-3.23,1.89-4.85,1.89-.4,1.35-.54,2.56-1.75,3.37-.81.67-2.43.13-3.1.67-1.35,1.08-2.29,5.39-3.1,7.01-.81,1.61-1.59,3.4-2.77,4.77-1.39,1.63-3.05,2.53-5.31,2.18-.57-.09-1.18-.22-1.78-.43Z"/>
          <path class="cls-14" d="M212.02,244.95c-1.12-.38-2.24-1.02-2.84-2.1-.61-1.04-.95-2.22-1.18-3.4-.24-1.18-.33-2.39-.23-3.6.07-1.19.17-2.42.63-3.55.44-1.14,1.32-2.09,2.38-2.68,1.06-.6,2.22-.99,3.39-1.3l3.51-.82c1.15-.3,2.32-.64,3.27-1.27h-.01c.3-.23.53-.5.62-.83.09-.32.06-.71.02-1.1-.11-.8-.12-1.64-.09-2.45.02-.82.09-1.63.21-2.44l.1-.61.05-.28.04-.3.15-1.2c.2-1.6.45-3.21.83-4.8.19-.79.43-1.58.71-2.35.25-.75.65-1.61,1.26-2.24,1.21-1.3,2.9-1.91,4.53-2.2,1.66-.29,3.29-.27,4.93-.19.83.06,1.67.17,2.5.46.81.29,1.67.83,2.11,1.72.22.43.31.91.34,1.36,0,.12.01.21,0,.36v.15s-.05.21-.05.21c-.06.27-.16.5-.3.71-.58.85-1.47,1.21-2.3,1.43l-.11-.92c.4,0,.84.1,1.2.34.36.24.63.59.8.95.33.73.32,1.54.16,2.24-.13.73-.56,1.48-1.18,1.92-.61.46-1.27.7-1.91.94l.1-.75c.46.34.9.72,1.25,1.23.36.49.56,1.26.3,1.9-.24.63-.7,1.05-1.15,1.4-.46.35-.95.62-1.43.87l-.07-.65c.44.15.91.35,1.27.77.38.41.46,1.03.35,1.51-.22.98-.8,1.7-1.32,2.4-.58.77-1.44,1.24-2.31,1.49-.88.25-1.78.31-2.67.31l.22-.16c-.19.61-.33,1.25-.59,1.88-.25.63-.7,1.21-1.28,1.58h.02c-1,.68-2.14.19-2.99.55-.39.22-.67.66-.91,1.09-.24.44-.45.9-.64,1.36-.78,1.86-1.23,3.88-2.25,5.65-.9,1.8-1.89,3.66-3.55,4.89-.82.61-1.81.99-2.83,1.02-1.02.04-2.03-.2-2.99-.51ZM212.02,244.95c.96.3,1.97.53,2.99.48,1.01-.05,1.99-.43,2.8-1.04,1.63-1.23,2.61-3.09,3.48-4.9,1-1.78,1.44-3.77,2.17-5.67.18-.48.38-.95.62-1.4.25-.44.51-.92,1-1.22.53-.24,1.06-.19,1.55-.23.49-.03,1-.08,1.34-.36h0s0-.01,0-.01c.51-.35.88-.85,1.1-1.43.23-.58.35-1.22.53-1.85l.05-.16h.17c.86-.02,1.72-.1,2.52-.35.8-.25,1.53-.69,1.99-1.34.51-.69,1.01-1.42,1.15-2.17.06-.37,0-.71-.23-.95-.22-.25-.59-.42-.97-.53l-.8-.24.73-.41c.47-.27.92-.53,1.31-.84.39-.31.74-.68.87-1.07.3-.78-.5-1.59-1.31-2.17l-.65-.47.76-.28c.61-.23,1.21-.47,1.66-.82.46-.35.73-.83.84-1.41.13-.59.11-1.19-.12-1.68-.22-.49-.64-.75-1.17-.74l-3.97.07,3.86-.99c.7-.18,1.4-.53,1.72-1.04.31-.43.23-1.28-.05-1.84-.29-.58-.88-.98-1.57-1.22-.69-.25-1.46-.37-2.23-.43-1.56-.09-3.18-.12-4.7.13-1.52.25-3.02.81-4.04,1.89-.52.55-.83,1.17-1.1,1.94-.27.74-.51,1.5-.71,2.26-.41,1.53-.69,3.11-.93,4.69l-.18,1.19-.04.3-.06.31-.11.58c-.13.78-.22,1.57-.26,2.37-.05.8-.06,1.58.03,2.38.03.4.07.84-.07,1.29-.14.46-.47.81-.81,1.06h-.01s0,.01,0,.01c-1.07.67-2.27.98-3.44,1.25l-3.53.73c-1.16.27-2.31.63-3.36,1.19-1.05.55-1.91,1.45-2.35,2.56-.46,1.1-.58,2.31-.65,3.51-.11,1.2-.03,2.4.2,3.58.22,1.18.55,2.35,1.14,3.39.58,1.07,1.69,1.72,2.81,2.11Z"/>
        </g>
        <path class="cls-14" d="M227.93,212.87c.54-.64,1.29-1.09,2.06-1.41.78-.33,1.6-.51,2.42-.63.83-.1,1.66-.12,2.49-.03.82.08,1.65.26,2.41.61-1.65.1-3.21.21-4.77.41-.78.09-1.55.22-2.32.38-.77.17-1.52.37-2.3.67Z"/>
        <path class="cls-14" d="M227.14,217.54c.55-.58,1.26-.97,2-1.25.74-.28,1.53-.43,2.32-.5.79-.04,1.6,0,2.37.21.77.2,1.53.56,2.07,1.14-.75-.23-1.47-.32-2.2-.37-.73-.04-1.45-.04-2.18.02-.73.04-1.45.14-2.18.25-.73.12-1.45.28-2.2.49Z"/>
        <path class="cls-14" d="M226.93,222c.51-.52,1.2-.89,1.89-1.13.7-.25,1.43-.37,2.17-.41.74-.02,1.48.05,2.2.26.71.2,1.41.54,1.93,1.07-.72-.16-1.39-.25-2.07-.3-.68-.04-1.35-.06-2.02-.03-.68.01-1.35.08-2.03.16-.68.09-1.34.2-2.07.37Z"/>
        <path class="cls-14" d="M228.49,230.28c.04-.48.11-.88.19-1.29.07-.41.17-.8.26-1.21.22-.8.48-1.65,1.1-2.37.14.93.07,1.75-.13,2.61-.22.84-.63,1.72-1.42,2.25Z"/>
      </g>
      <g>
        <g>
          <path class="cls-3" d="M285.48,244.95c1.1-.38,2.14-.98,2.73-1.94.89-1.43,1.3-3.37,1.47-5.03.1-.94.03-1.85-.04-2.79-.27-3.64-1.62-5.26-4.99-6.33-2.29-.81-6.2-1.08-8.22-2.43-1.21-.94-.67-1.75-.67-3.5,0-1.48-.13-2.97-.4-4.31-.4-3.1-.83-6.19-2.02-9.17-1.08-2.7-4.18-3.77-7.95-3.77-2.43,0-6.65,0-6.6,3.37.02,1.22,1.21,1.89,2.29,2.16-1.48,0-2.02,1.48-1.75,2.83.27,1.62,1.35,2.16,2.83,2.7-3.37,2.43-.26,4.07.95,4.74-2.57.78-1.09,2.94-.28,4.02,1.08,1.62,3.23,1.89,4.85,1.89.4,1.35.54,2.56,1.75,3.37.81.67,2.43.13,3.1.67,1.35,1.08,2.29,5.39,3.1,7.01.81,1.61,1.59,3.4,2.77,4.77,1.4,1.63,3.05,2.53,5.31,2.18.57-.09,1.18-.22,1.78-.43Z"/>
          <path class="cls-14" d="M285.48,244.95c1.12-.39,2.23-1.04,2.81-2.11.59-1.04.93-2.21,1.14-3.39.22-1.18.31-2.38.2-3.58-.08-1.2-.2-2.4-.65-3.51-.44-1.11-1.3-2.01-2.35-2.56-1.04-.56-2.2-.92-3.36-1.19l-3.53-.73c-1.17-.28-2.37-.58-3.44-1.25h0s-.01-.01-.01-.01c-.34-.25-.67-.6-.81-1.06-.14-.45-.09-.89-.07-1.29.08-.8.08-1.58.03-2.38-.04-.79-.13-1.59-.26-2.37l-.11-.58-.06-.31-.04-.3-.18-1.19c-.24-1.59-.52-3.16-.93-4.69-.21-.77-.44-1.52-.71-2.26-.27-.77-.58-1.39-1.1-1.94-1.01-1.08-2.52-1.64-4.04-1.89-1.52-.25-3.14-.22-4.7-.13-.78.06-1.54.18-2.23.43-.69.25-1.28.64-1.57,1.22-.28.56-.36,1.4-.05,1.84.33.51,1.02.86,1.72,1.04l3.86.99-3.97-.07c-.53,0-.95.26-1.17.74-.22.49-.25,1.08-.11,1.68.11.58.39,1.06.84,1.41.46.35,1.05.6,1.67.82l.76.28-.65.47c-.81.58-1.61,1.39-1.31,2.17.13.39.48.76.87,1.07.4.31.84.58,1.31.84l.73.41-.8.24c-.38.11-.75.28-.97.53-.23.24-.29.58-.23.95.14.75.65,1.48,1.15,2.17.47.65,1.2,1.09,1.99,1.34.8.25,1.66.34,2.52.35h.17s.05.16.05.16c.18.63.31,1.27.54,1.85.22.58.59,1.09,1.1,1.43h0s0,.01,0,.01c.33.28.85.33,1.34.36.5.04,1.03-.01,1.55.23.49.3.75.78,1,1.22.24.46.44.93.62,1.4.73,1.9,1.17,3.9,2.17,5.67.88,1.81,1.85,3.66,3.48,4.9.8.61,1.78.99,2.8,1.04,1.01.05,2.02-.18,2.99-.48ZM285.48,244.95c-.96.31-1.97.55-2.99.51-1.02-.04-2.01-.41-2.83-1.02-1.66-1.23-2.66-3.09-3.55-4.89-1.02-1.77-1.47-3.79-2.25-5.65-.19-.47-.4-.93-.64-1.36-.25-.43-.53-.87-.91-1.09-.85-.36-2,.13-2.99-.56h.02c-.58-.36-1.03-.94-1.28-1.57-.26-.63-.4-1.27-.59-1.88l.22.16c-.89,0-1.79-.05-2.67-.31-.87-.25-1.73-.72-2.31-1.49-.53-.7-1.1-1.42-1.32-2.4-.11-.48-.02-1.1.35-1.51.36-.41.83-.62,1.27-.77l-.07.65c-.48-.25-.97-.53-1.43-.87-.45-.35-.91-.77-1.15-1.4-.26-.64-.06-1.41.3-1.9.35-.51.8-.89,1.25-1.23l.1.75c-.63-.23-1.3-.48-1.91-.94-.62-.45-1.05-1.2-1.18-1.92-.16-.7-.17-1.51.16-2.24.17-.37.43-.71.8-.95.36-.24.8-.34,1.2-.34l-.11.92c-.83-.22-1.72-.58-2.3-1.43-.14-.21-.24-.45-.3-.71l-.04-.21v-.15c-.03-.16-.01-.24-.01-.36.02-.45.11-.93.34-1.36.43-.89,1.29-1.43,2.11-1.72.83-.29,1.67-.4,2.5-.46,1.65-.08,3.27-.1,4.93.19,1.62.29,3.32.9,4.53,2.2.6.63,1.01,1.49,1.26,2.24.28.77.52,1.56.7,2.35.39,1.59.63,3.2.84,4.8l.15,1.2.04.3.05.28.1.61c.11.81.18,1.62.21,2.44.03.81.02,1.65-.09,2.45-.04.4-.08.78.02,1.1.09.32.33.6.62.83h-.01c.96.63,2.12.97,3.27,1.27l3.51.82c1.17.31,2.33.69,3.39,1.3,1.06.6,1.94,1.55,2.38,2.68.45,1.13.56,2.36.63,3.55.1,1.2,0,2.42-.23,3.6-.23,1.18-.58,2.35-1.18,3.4-.6,1.07-1.72,1.72-2.84,2.1Z"/>
        </g>
        <path class="cls-14" d="M269.57,212.87c-.78-.3-1.53-.5-2.3-.67-.77-.16-1.54-.29-2.32-.38-1.56-.2-3.12-.3-4.77-.41.76-.35,1.58-.53,2.41-.61.83-.09,1.66-.06,2.49.03.82.12,1.65.3,2.42.63.77.32,1.52.77,2.06,1.41Z"/>
        <path class="cls-14" d="M270.36,217.54c-.76-.22-1.48-.37-2.2-.49-.73-.11-1.45-.21-2.18-.25-.73-.06-1.45-.06-2.18-.02-.73.05-1.45.15-2.2.37.54-.59,1.3-.94,2.07-1.14.78-.21,1.58-.25,2.37-.21.79.06,1.57.21,2.32.5.74.28,1.45.67,2,1.25Z"/>
        <path class="cls-14" d="M270.57,222c-.73-.17-1.38-.28-2.07-.37-.68-.08-1.35-.15-2.03-.16-.67-.03-1.35-.01-2.02.03-.68.05-1.35.14-2.07.3.52-.53,1.22-.87,1.93-1.07.72-.21,1.46-.28,2.2-.26.74.04,1.47.16,2.17.41.69.24,1.38.6,1.88,1.13Z"/>
        <path class="cls-14" d="M269.01,230.28c-.79-.53-1.2-1.42-1.42-2.25-.21-.86-.27-1.69-.13-2.61.62.71.88,1.57,1.1,2.37.09.41.19.8.26,1.21.08.41.15.81.19,1.29Z"/>
      </g>
      <path class="cls-25" d="M268.7,249.38c-1.42.08-2.81.26-4.19.54-1.38.25-2.76.57-4.13.89-1.37.34-2.76.63-4.17.89-1.42.25-2.82.39-4.24.54-2.84.25-5.68.36-8.51.33l-4.25-.08c-1.42-.07-2.83-.12-4.25-.24,1.41-.11,2.83-.16,4.24-.25l4.24-.19c2.82-.16,5.64-.29,8.44-.56,1.39-.12,2.81-.26,4.18-.48,1.39-.2,2.77-.48,4.17-.71,2.78-.48,5.64-.95,8.48-.68Z"/>
      <path class="cls-25" d="M228.45,253.5c3.25,1.51,6.72,2.44,10.19,3.21,3.48.78,7.01,1.33,10.55,1.73,3.54.39,7.1.7,10.66.85l5.37.18c.9.05,1.81.12,2.73.27.46.08.92.18,1.4.36.24.1.48.21.73.43.25.19.48.71.35,1.1l-.05.16-.07.06c-.48.41-.9.5-1.32.64-.42.12-.84.21-1.25.28-.83.14-1.66.24-2.48.33-1.65.16-3.3.25-4.95.32-3.3.12-6.6.15-9.89.07-3.29-.07-6.59-.2-9.88-.41-3.28-.25-6.58-.49-9.82-1.07,3.27.36,6.56.5,9.84.59,3.29.1,6.57.15,9.86.13,3.29-.03,6.57-.06,9.85-.22,1.64-.08,3.27-.18,4.89-.36.81-.09,1.62-.19,2.41-.34.39-.07.78-.16,1.15-.27.35-.1.75-.26.89-.4l-.13.22s.02,0-.06-.1c-.09-.08-.25-.17-.43-.23-.36-.14-.78-.24-1.2-.32-.85-.15-1.73-.23-2.61-.28l-5.36-.23c-3.58-.2-7.16-.48-10.72-.99-3.55-.5-7.09-1.14-10.57-2.02-1.74-.45-3.46-.96-5.15-1.56-1.69-.6-3.37-1.25-4.93-2.14Z"/>
      <path class="cls-21" d="M195.48,174.86c-.85-.83-1.38-1.94-1.81-3.05-.42-1.12-.73-2.27-1-3.43-.53-2.32-.82-4.69-.97-7.07-.15-2.37-.29-4.74-.2-7.13.04-1.19.12-2.39.33-3.6.11-.6.24-1.21.54-1.82.16-.3.35-.63.76-.87.43-.25.98-.13,1.29.06l.04.02h.01c.94.75,1.32,1.77,1.65,2.71.31.96.51,1.94.65,2.92.27,1.96.37,3.91.41,5.87.05,1.95-.01,3.92-.16,5.86-.07.97-.15,1.95-.27,2.92-.06.49-.13.97-.22,1.46-.05.25-.1.49-.17.75-.04.13-.07.26-.15.41-.06.07-.04.19-.36.32-.22.05-.37-.07-.43-.13-.06-.06-.09-.11-.11-.16l-.02-.03v-.04c-.35-1.25-.59-2.51-.79-3.77-.2-1.26-.37-2.53-.5-3.8-.12-1.27-.22-2.54-.3-3.81-.07-1.27-.15-2.55-.07-3.82.02,1.27.19,2.54.32,3.8.14,1.26.31,2.52.5,3.78.38,2.5.79,5.02,1.52,7.42l-.03-.07s0,0,0-.01c-.02-.02-.11-.1-.27-.07-.21.09-.12.09-.13.06.03-.06.06-.17.09-.27.05-.21.09-.45.13-.68.07-.47.12-.94.17-1.42.09-.96.17-1.92.23-2.88.13-1.93.16-3.85.1-5.78-.06-1.93-.18-3.86-.47-5.74-.15-.94-.31-1.88-.59-2.77-.27-.87-.66-1.76-1.27-2.24l.05.03c-.2-.1-.3-.11-.4-.06-.11.05-.26.24-.37.46-.23.45-.37,1.01-.48,1.57-.21,1.13-.3,2.3-.35,3.47-.09,2.34-.09,4.71,0,7.07.06,2.35.32,4.7.7,7.02.2,1.16.45,2.31.81,3.43.37,1.11.8,2.23,1.59,3.12Z"/>
      <g class="cls-34">
        <g>
          <g>
            <path class="cls-21" d="M198.33,182.12c-.07,0-.14-.03-.19-.09-.09-.11-.07-.26.03-.35.13-.1.25-.21.37-.32.1-.09.26-.08.35.02.09.1.08.26-.02.35-.13.11-.25.22-.38.33-.05.04-.1.06-.16.06Z"/>
            <path class="cls-21" d="M200.12,180.38c-.06,0-.12-.02-.17-.06-.1-.09-.11-.25-.02-.35.22-.25.43-.5.64-.76.09-.11.24-.13.35-.04.11.09.13.24.04.35-.21.27-.43.53-.65.78-.05.06-.12.08-.19.08ZM201.92,177.97s-.09-.01-.13-.04c-.12-.07-.15-.23-.08-.34.17-.28.34-.56.5-.85.07-.12.22-.16.34-.1.12.07.16.22.1.34-.17.3-.34.59-.52.88-.05.08-.13.12-.21.12ZM203.32,175.3s-.07,0-.1-.02c-.13-.06-.18-.2-.13-.33.13-.3.26-.61.37-.92.05-.13.19-.19.32-.14.13.05.19.19.14.32-.12.32-.25.63-.38.94-.04.09-.13.15-.23.15ZM204.33,172.47s-.05,0-.07,0c-.13-.04-.21-.18-.17-.31.09-.32.18-.64.26-.96.03-.13.17-.21.3-.18.13.03.22.17.18.3-.08.33-.17.66-.26.98-.03.11-.13.18-.24.18ZM205,169.53s-.03,0-.04,0c-.14-.02-.23-.15-.2-.29.06-.33.11-.65.15-.98.02-.14.14-.24.28-.21.14.02.23.14.21.28-.04.33-.1.67-.15,1-.02.12-.13.21-.25.21ZM205.36,166.54s-.01,0-.02,0c-.14-.01-.24-.13-.23-.27.02-.33.04-.66.06-1,0-.14.12-.24.26-.24.14,0,.25.12.24.26-.02.34-.03.67-.06,1.01,0,.13-.12.23-.25.23ZM205.45,163.53c-.14,0-.25-.11-.25-.25,0-.33-.01-.66-.03-1,0-.14.1-.25.24-.26.17,0,.25.1.26.24.01.34.02.67.03,1.01,0,.14-.11.25-.25.25h0ZM205.29,160.52c-.13,0-.24-.1-.25-.23-.03-.33-.06-.66-.1-.99-.02-.14.08-.26.22-.28.13-.02.26.08.28.22.04.33.07.67.1,1.01.01.14-.09.26-.23.27,0,0-.02,0-.02,0ZM204.91,157.53c-.12,0-.23-.09-.25-.21-.05-.33-.11-.66-.17-.98-.03-.14.06-.27.2-.29.13-.02.27.06.29.2.06.33.12.66.18,1,.02.14-.07.27-.21.29-.01,0-.03,0-.04,0ZM204.32,154.58c-.11,0-.22-.08-.24-.19-.08-.33-.16-.65-.24-.97-.04-.13.04-.27.18-.3.14-.04.27.04.3.18.08.33.17.65.24.98.03.13-.05.27-.19.3-.02,0-.04,0-.06,0ZM203.52,151.67c-.11,0-.21-.07-.24-.18-.1-.32-.2-.63-.31-.95-.04-.13.03-.27.16-.32.13-.04.27.02.32.16.11.32.21.64.31.96.04.13-.03.27-.16.31-.02,0-.05.01-.07.01ZM202.52,148.83c-.1,0-.19-.06-.23-.16-.12-.31-.25-.62-.38-.92-.05-.13,0-.27.13-.33.13-.05.27,0,.33.13.13.31.26.62.38.94.05.13-.01.27-.14.32-.03.01-.06.02-.09.02ZM201.3,146.07c-.09,0-.18-.05-.22-.14-.15-.3-.3-.6-.45-.89-.06-.12-.02-.27.1-.34.12-.06.27-.02.34.1.16.3.31.6.46.9.06.12.01.27-.11.33-.04.02-.07.03-.11.03ZM199.84,143.43c-.08,0-.17-.04-.21-.12-.17-.27-.34-.54-.51-.8l.18-.18.21-.14c.2.3.37.57.55.85.07.12.04.27-.08.34-.04.02-.09.04-.13.04Z"/>
            <path class="cls-21" d="M197.96,141.07c-.06,0-.12-.02-.17-.06-.12-.11-.25-.21-.37-.31-.11-.09-.12-.24-.04-.35.09-.11.25-.12.35-.04.13.1.26.21.39.33.1.09.11.25.02.35-.05.06-.12.08-.19.08Z"/>
          </g>
          <g>
            <path class="cls-21" d="M288.83,183.25c-.07,0-.14-.03-.19-.09-.09-.1-.08-.26.02-.35.12-.1.24-.21.35-.33.1-.1.25-.1.35,0,.1.1.1.26,0,.35-.12.12-.25.24-.37.35-.05.04-.11.06-.16.06Z"/>
            <path class="cls-21" d="M290.39,181.37s-.09-.01-.13-.04c-.12-.07-.15-.23-.08-.34.16-.26.32-.54.47-.84.06-.12.21-.17.34-.11.12.06.17.21.11.34-.16.31-.32.61-.49.88-.05.08-.13.12-.21.12ZM291.62,178.7s-.05,0-.08-.01c-.13-.04-.2-.19-.16-.32.1-.3.2-.61.29-.92.04-.13.18-.21.31-.17.13.04.21.18.17.31-.09.32-.19.64-.3.95-.04.1-.13.17-.24.17ZM292.37,175.85s-.03,0-.05,0c-.13-.03-.22-.16-.2-.29.06-.32.12-.64.17-.96.02-.14.14-.23.29-.21.14.02.23.15.21.29-.05.33-.11.65-.18.97-.02.12-.13.2-.25.2ZM292.8,172.94s-.02,0-.03,0c-.14-.01-.24-.14-.22-.28.04-.33.07-.65.09-.97.01-.14.12-.23.27-.23.14.01.24.13.23.27-.03.32-.06.65-.09.98-.01.13-.12.22-.25.22ZM293.02,170h-.01c-.14,0-.25-.12-.24-.26.01-.33.03-.66.04-.98,0-.14.09-.26.26-.24.14,0,.25.12.24.26,0,.32-.02.65-.04.98,0,.13-.12.24-.25.24ZM293.08,167.06c-.14,0-.25-.11-.25-.25,0-.33,0-.65,0-.98,0-.14.11-.25.25-.25h0c.14,0,.25.11.25.25,0,.33,0,.65,0,.98,0,.14-.11.25-.25.25ZM293.01,164.12c-.13,0-.24-.1-.25-.24-.01-.33-.03-.65-.05-.98,0-.14.1-.26.24-.26.13-.02.26.1.26.23.02.33.04.65.05.98,0,.14-.1.25-.24.26,0,0,0,0-.01,0ZM292.81,161.18c-.13,0-.24-.1-.25-.23-.03-.33-.07-.65-.1-.97-.02-.14.08-.26.22-.28.13-.02.26.08.28.22.04.33.07.65.1.98.01.14-.09.26-.23.27,0,0-.02,0-.02,0ZM292.45,158.26c-.12,0-.23-.09-.25-.21-.05-.32-.1-.64-.16-.96-.02-.14.07-.27.2-.29.14-.03.27.07.29.2.06.32.11.65.16.97.02.14-.07.26-.21.28-.01,0-.03,0-.04,0ZM291.92,155.36c-.12,0-.22-.08-.24-.2-.07-.32-.14-.63-.21-.95-.03-.13.05-.27.19-.3.14-.03.27.05.3.19.08.32.15.64.22.96.03.13-.06.27-.19.3-.02,0-.04,0-.05,0ZM291.22,152.51c-.11,0-.21-.07-.24-.18-.09-.31-.18-.62-.27-.94-.04-.13.04-.27.17-.31.13-.04.27.04.31.17.09.31.19.63.27.94.04.13-.04.27-.17.31-.02,0-.04,0-.07,0ZM290.34,149.7c-.1,0-.2-.06-.24-.17-.11-.31-.21-.61-.33-.92-.05-.13.02-.27.15-.32.13-.05.27.02.32.15.11.31.22.62.33.93.04.13-.02.27-.16.32-.03,0-.05.01-.08.01ZM289.31,146.95c-.1,0-.19-.06-.23-.16-.08-.19-.15-.38-.23-.57l-.14-.34c-.05-.13,0-.27.14-.33.13-.05.27,0,.33.14l.14.33c.08.19.16.38.24.58.05.13,0,.27-.14.33-.03.01-.06.02-.09.02ZM288.14,144.24c-.09,0-.18-.05-.22-.14-.15-.31-.31-.58-.47-.83-.07-.12-.04-.27.08-.35.11-.07.27-.04.34.08.17.27.33.55.49.88.06.12.01.27-.11.34-.04.02-.07.03-.11.03Z"/>
            <path class="cls-21" d="M286.36,141.92c-.05,0-.11-.02-.15-.05-.12-.1-.25-.19-.39-.28-.12-.07-.15-.23-.08-.35.07-.12.23-.15.35-.08.15.1.29.2.43.3.11.09.13.24.04.35-.05.06-.12.1-.2.1Z"/>
          </g>
        </g>
      </g>
    </g>
  </g>
</svg>