<?xml version="1.0" encoding="UTF-8"?>
<svg id="Objects" xmlns="http://www.w3.org/2000/svg" viewBox="0 0 1388 1388">
  <defs>
    <style>
      .cls-1 {
        fill: #fbb12c;
      }

      .cls-1, .cls-2 {
        stroke-width: 0px;
      }

      .cls-2 {
        fill: #f89b32;
      }
    </style>
  </defs>
  <circle class="cls-1" cx="694.79" cy="692.43" r="530.32"/>
  <path class="cls-2" d="M1345.59,694.28c0-45.67,16.3-85.01,42.41-109.7-32.38-15.46-59.97-47.8-74.04-91.15l-.17-.51c-14.11-43.46-10.75-85.92,6.45-117.46-35.58-4.67-71.81-26.91-98.6-63.78l-.32-.44c-26.85-36.95-36.78-78.39-30.17-113.7-35.28,6.54-76.6-3.39-113.49-30.2l-.42-.31c-36.97-26.87-59.21-63.19-63.82-98.83-31.54,17.14-73.91,20.46-117.27,6.37l-.51-.17c-43.44-14.13-75.82-41.78-91.24-74.23-24.71,26.01-63.99,42.26-109.57,42.26h-.53c-45.67,0-85.01-16.3-109.72-42.41-15.46,32.38-47.79,59.97-91.15,74.04l-.5.17c-43.46,14.11-85.92,10.75-117.48-6.45-4.67,35.56-26.89,71.81-63.78,98.6l-.44.32c-36.95,26.85-78.37,36.76-113.69,30.17,6.54,35.28-3.41,76.6-30.2,113.49l-.32.42c-26.85,36.97-63.17,59.21-98.81,63.82,17.14,31.54,20.44,73.93,6.35,117.27l-.15.51c-14.13,43.44-41.78,75.82-74.23,91.22,26.01,24.73,42.26,64.01,42.26,109.59v.53c0,45.67-16.3,85.01-42.41,109.72,32.36,15.46,59.97,47.79,74.04,91.15l.17.5c14.11,43.46,10.75,85.92-6.45,117.48,35.56,4.67,71.79,26.89,98.6,63.78l.31.42c26.87,36.95,36.78,78.39,30.17,113.7,35.28-6.54,76.62,3.41,113.49,30.2l.44.32c36.97,26.85,59.21,63.17,63.82,98.81,31.52-17.14,73.91-20.44,117.27-6.35l.51.15c43.44,14.13,75.82,41.78,91.22,74.23,24.71-26.01,63.99-42.26,109.59-42.26h.53c45.67,0,85.01,16.3,109.7,42.41,15.46-32.36,47.8-59.97,91.15-74.04l.51-.17c43.46-14.11,85.92-10.75,117.46,6.45,4.67-35.58,26.91-71.79,63.78-98.6l.44-.31c36.97-26.87,78.37-36.78,113.7-30.17-6.54-35.28,3.39-76.62,30.2-113.49l.3-.44c26.87-36.97,63.17-59.19,98.81-63.8-17.12-31.52-20.44-73.91-6.35-117.29l.17-.51c14.13-43.44,41.78-75.82,74.23-91.24-26.01-24.69-42.26-63.97-42.26-109.57v-.53ZM694.79,1273.35c-320.84,0-580.92-260.08-580.92-580.92S373.95,111.51,694.79,111.51s580.92,260.08,580.92,580.92-260.08,580.92-580.92,580.92Z"/>
</svg>