<?xml version="1.0" encoding="UTF-8"?>
<svg id="Capa_2" data-name="Capa 2" xmlns="http://www.w3.org/2000/svg" viewBox="0 0 769.23 1766.52">
  <defs>
    <style>
      .cls-1 {
        fill: #33c0cd;
      }

      .cls-1, .cls-2, .cls-3, .cls-4, .cls-5, .cls-6, .cls-7, .cls-8 {
        stroke-width: 0px;
      }

      .cls-2 {
        fill: #009db0;
      }

      .cls-3 {
        fill: #93d6de;
      }

      .cls-4 {
        fill: #fee7c3;
      }

      .cls-5 {
        fill: #6bcad6;
      }

      .cls-6 {
        fill: #fff;
      }

      .cls-7 {
        fill: #fec057;
      }

      .cls-8 {
        fill: #f89c51;
      }
    </style>
  </defs>
  <g>
    <path class="cls-7" d="M82.1,81.17c37.75-15.69,23.44-37.04,23.1-37.29.59.44-7.17,16.26-12.8,11.72-2.48-2.01-2.75-6.4-3.54-9.26-3.71-13.43-11.93-30.25-23.82-38.3C59.42,4.22,52.89.24,46.31,0c6.04,6.52,11.12,13.05,14.36,21.75,3.25,8.72,5.82,19.81,2.87,28.68-.45,1.33-1.7,5.04-3.53,4.67-1.48-.3-1.91-3.25-2.28-4.48-2.54-8.75-10.2-16.87-18.76-20.06.79.29,1.99,5.26,2.3,6.12.79,2.15,1.49,4.32,2.13,6.51,3.94,13.4,3.5,26.38-4.05,38.46-4.7,7.54-11.45,14.82-12.24,24.08,95.61,18.45,36.17-16.74,54.99-24.56Z"/>
    <path class="cls-8" d="M103.76,118.71c2.25-4.25,3.97-8.88,5.04-13.85,1.2-5.48-.2-11.01-.41-16.51-.26-6.6,1.56-13.01,2.13-19.54.67-7.59,1.6-19.77-5.33-24.94.34.26,14.66,21.61-23.1,37.29-18.82,7.82,40.62,43.01-54.99,24.56-.39,4.45.77,8.56,2.83,12.29,8.29-1.6,21.03-2.62,35.36-2.62,16.28,0,30.5,1.32,38.47,3.31Z"/>
    <path class="cls-2" d="M344.7,398.75c6.67-1.58,13.51-2.49,20.44-2.49h.46c23.58,0,46.46,9.48,63.12,26.14,16.67,16.66,33.2,42.25,18.59,60.76-51.12,64.76,14.79,53.88-1.88,70.54-4.74,4.75-11.39,8.47-18.96,11.41l1.98,13.86c8.41.99,17.14,2.28,25.45,4.36,12.78-21.05,20.49-48.14,20.49-77.72,0-24.2-5.21-46.69-14.07-65.61,6.36-7.84,10.61-16.73,11.99-26.29.33-2.29.52-4.61.52-6.97,0-4.39-.6-8.66-1.72-12.8-1-3.71-2.5-7.29-4.32-10.74-4.14-7.86-10.29-14.95-17.99-20.95-3.22-2.52-6.74-4.82-10.47-6.91-7.93-4.46-16.86-7.98-26.58-10.2-4.24-.97-8.65-1.64-13.13-2.11-4.03-.43-8.11-.73-12.3-.73-4.56,0-9.01.34-13.39.85-5,.58-9.87,1.46-14.56,2.66-9.62,2.45-18.48,6.09-26.24,10.74-3.33,2-6.42,4.2-9.32,6.54-7.61,6.15-13.63,13.39-17.59,21.4-1.51,3.07-2.81,6.21-3.7,9.48-1.12,4.13-1.71,8.41-1.71,12.78,0,2.48.23,4.91.59,7.32,1.43,9.42,5.63,18.2,11.93,25.94,8.08-17.24,19.2-31.51,32.38-41.26Z"/>
    <path class="cls-3" d="M578.53,835.71c-5.06,31.04-18.88,53.36-35.16,53.36-2.37,0-4.68-.52-6.92-1.42-.95,11-2.04,22-2.57,33.04-.42,8.55-.83,17.36-1.12,26.25,3.43,1.53,6.96,2.36,10.61,2.36,28.38,0,51.39-49.02,51.39-109.5,0-7.86-.41-15.5-1.15-22.89l-13.5,19.86-1.58-1.07Z"/>
    <path class="cls-3" d="M337.4,1052.45c25.36-25.37,7.44,317.55,24.77,286.6,5.58-9.95,159.96-143.3,68.54-134.97-24.92,2.27,55.39-46.31,61.27-68.32,15.43-57.75,11.68-271.5,14.13-278.29,15.3-42.24-33.29,27.85-33.29-17.67,0-27.03,19.93-83.72,14.42-109.89-2.74-12.99-110.46,311.81-114.5,299.2-3.23-10.12,97.46-357.73,93.42-367.55-5.13-12.49-202.56,97.84-208.96,85.94-7.32-13.6,116.87-111.39,152.68-152.66h-19.71l-37.56-18.54,1.16-21.16c-.43-.29-.88-.54-1.31-.84-9.41-6.56-17.64-13.8-27.89-18.91-8.65-4.31-17.5-7.04-25.28-12-3.3-2.11-6.44-4.57-9.25-7.8-8.02-9.19-14.27-18-25.73-22.61-11.62-4.69-25.73-.36-34.36-11.35-7.04-8.96-6.83-22.93-12.36-32.95-7.99-14.46-21.25-7.86-34.88,6.35,9.56,19.1,15.83,36.37,12,52.27,0,.05-.02.09-.03.13-1.22,5-3.43,9.86-6.86,14.6-.14.2-.3.39-.45.59-.96,1.27-1.99,2.54-3.13,3.79-.38.42-.79.84-1.18,1.26-.99,1.04-2.06,2.07-3.19,3.1-.52.48-1.05.96-1.61,1.44-1.18,1.01-2.45,2.02-3.77,3.02-.57.43-1.11.88-1.72,1.31-1.95,1.41-4,2.81-6.23,4.2-5.54,3.44-14.55-7.71-24.92-26.66-3.45,6.08-5.92,10.73-6.96,12.77-15.26,29.85,7.59,37.19,24.62,56.45,6.84,7.73,7.1,16.52,11.21,25.44,4.52,9.84,12.75,14.16,22.48,18.02.91,8.64-1.75,17.8,3.37,25.15,4.05,5.82,11.89,10.47,16.84,15.56,9.9,10.16,22.37,22.62,21.72,38.12-.45,10.42-8.32,21.45-11.72,31.35-5.64,16.46-10.3,43.6,16.37,35.88-52.49,205.82,4.83,215.88-.09,253.66-6.95,53.46-60.02,137.3-17.57,113.87,2.23-1.23,2.14,15.12.61,41.57,38.77,380.49,70.29-84.9,114.89-129.49Z"/>
    <path class="cls-2" d="M640.69,719.14c-34.57,14.27-65.91,13.11-62.99,70.64.66,12.98-85.72-12.92-85.72-12.92l86.55,58.85,1.58,1.07,13.5-19.86,3.66-5.38c.79-2.35,2.06-5.06,4.11-8.29-5.54-13.35-16.77-27.15-10.83-29.62,4.98-2.07,14.33,3.03,20.5,12.58-5.57-13.26-15.9-21.56-9.97-24.02,4.27-1.77,11.72,1.73,17.66,8.75-5.67-10.9-13.35-17.77-8.06-19.97,4.32-1.8,11.93,1.8,17.9,9-5.69-11.16-13.66-18.21-8.29-20.44,4.59-1.89,12.84,2.24,18.93,10.32l42.86-63.03-56.22-38.22c31.95,32.67,37.78,61.07,14.84,70.54Z"/>
    <path class="cls-2" d="M65.73,291.93c5.92,0,11.16-.88,14.79-2.25,3.08-1.17,5.02-2.68,5.02-4.36,0-1.49-1.54-2.85-4.04-3.95,2.5-1.11,4.04-2.47,4.04-3.96,0-1.86-2.34-3.54-6.04-4.74-3.56-1.15-8.41-1.87-13.77-1.87s-10.21.72-13.77,1.87c-3.72,1.2-6.04,2.88-6.04,4.74,0,1.49,1.54,2.85,4.04,3.96-2.5,1.1-4.04,2.46-4.04,3.95,0,2.05,2.84,3.85,7.22,5.07,3.43.95,7.77,1.54,12.59,1.54Z"/>
    <path class="cls-3" d="M50.77,249.56c-.04-.36-.07-.65-.12-1.02.02,0,.05-.02.08-.01,2.02.3,3.16-2.27,6.93-2.27,9.59,0,17.36,5.12,17.36,0,0-4.44-5.85-10.92-13.66-12.57,7.81.95,13.66,4.2,13.66-.25s-5.85-10.91-13.66-12.56c7.81.94,13.66,4.2,13.66-.24,0-5.12-7.77-12.98-17.36-12.98-2.81,0-5.53.28-8.02.76-1.43.28-2.78.63-4,1.06-3.91,1.37-6.58,3.47-6.58,6.23,0,4.45,1.66,3.61,3.95,4.4-2.32.63-5.89,7.05-1.18,10.61-2.77,3.3-3.89,6.87.35,11.2,1.37,1.4,7.35,21.79,9.32,22.61v-.02c.45-2.2.41-5.52-.73-14.96Z"/>
    <g>
      <path class="cls-5" d="M533.88,920.7c.54-11.04,1.62-22.04,2.57-33.04,2.24.9,4.55,1.42,6.92,1.42,16.29,0,30.1-22.32,35.16-53.36l-86.55-58.85,42.75-62.87c-.71-13.48-1.98-27.39-6.69-38.88-2.41-5.92-5.98-10.68-7.79-16.98-2.55-8.86-2.89-18.45-8.7-26.08-6.73-8.8-16.96-7.88-26.17-10.4-.1-15.45-5.82-29.4-20.37-34.91-3.54-1.34-7.3-2.43-11.13-3.39-8.31-2.08-17.04-3.37-25.45-4.36l-1.98-13.86-8.43-59.13c11.77-17.9,19.24-43.9,19.24-66.41-1.96-.52-3.85-.96-5.67-1.36-.8-.17-1.54-.3-2.31-.46-.98-.19-1.97-.4-2.91-.57-1.25-.22-2.45-.43-3.63-.62-.27-.05-.57-.09-.84-.14-3.57-.58-6.87-1.08-9.86-1.68-.18-.04-.36-.07-.55-.11-1.16-.24-2.27-.52-3.34-.81-.21-.06-.42-.11-.64-.18-1.06-.31-2.07-.66-3.06-1.06-.16-.07-.33-.12-.49-.19-1.09-.46-2.13-.98-3.12-1.59-.04-.02-.07-.03-.09-.05,2.53,8.18-1.11,54.67-1.11,63.59,0,26.64-16.01,27.67-26.21,29.43-6.32-3.57-12.07-9.45-17.04-16.83l-2.63,48.19-1.16,21.16,37.56,18.54h19.71c-35.81,41.27-160,139.05-152.68,152.66,6.4,11.9,203.83-98.43,208.96-85.94,4.04,9.82-96.65,357.43-93.42,367.55,4.04,12.61,111.76-312.18,114.5-299.2,5.52,26.17-14.42,82.86-14.42,109.89,0,45.52,48.6-24.57,33.29,17.67-2.46,6.79,1.3,220.54-14.13,278.29-5.88,22-86.19,70.59-61.27,68.32,91.43-8.34-62.96,125.02-68.54,134.97-17.33,30.95.59-311.97-24.77-286.6-44.61,44.59-76.12,509.98-114.89,129.49v-.02c-4.34,75.18-20.28,232.16-27.37,300.31h378.7c-.27-10.96-.4-21.94-.68-32.76-1.23-46.48-3.41-250.94-4.53-297.42-.91-37.59-21.98-80.24-30.2-116.89-6.22-27.75-6.63-58.6-5.67-88.2.29-8.9.7-17.7,1.12-26.25Z"/>
      <path class="cls-5" d="M643.96,758.06c-1.27-3.07-2.93-5.79-4.75-8.2-6.1-8.08-14.35-12.21-18.93-10.32-5.37,2.23,2.61,9.27,8.29,20.44-5.97-7.2-13.57-10.79-17.9-9-5.29,2.2,2.39,9.07,8.06,19.97-5.94-7.02-13.39-10.52-17.66-8.75-5.93,2.46,4.4,10.76,9.97,24.02-6.17-9.55-15.51-14.65-20.5-12.58-5.94,2.47,5.29,16.27,10.83,29.62-2.05,3.23-3.32,5.95-4.11,8.29-4.41,13.18,8.7,13.32,13.35,10.44,28.55-17.68,38.87-50.57,33.34-63.93Z"/>
      <path class="cls-5" d="M49.63,193.39c-3.78-6.16-7.43-9.92-9.36-9.13-5.97,2.43-.82,11.56,4.34,23.05.34.75.69,1.45,1.04,2.18,1.23-.43,2.57-.79,4-1.06-.03-2.81-.04-5.59-.04-8.25,0-2.36.01-4.6.03-6.77Z"/>
      <path class="cls-5" d="M182.71,455.04c-10.36-20.68-24.53-43.49-33.83-69.02-14.28-39.22-48.78-87.44-61.84-129.05.42-7.14-.95-18.92,1.57-27.26,2.77-9.19,4.81-19.12,1.8-20.45-2.12-.93-5.5,1.83-8.68,6.59-1.33,2-2.63,4.32-3.77,6.92-3.87,8.78-2.23,36.09.79,37.42.51.45.93.74,1.39,1.08-.19,3.81-.4,7.61-.62,11.39,3.71,1.2,6.04,2.88,6.04,4.74,0,1.49-1.54,2.85-4.04,3.96,2.5,1.1,4.04,2.46,4.04,3.95,0,1.68-1.94,3.19-5.02,4.36,11.33,59.04,35.98,156.55,56.06,158.69,34.3,3.64,35.84,92.77,58.91,54.04,1.66-14.54-4.2-30.21-12.79-47.37Z"/>
    </g>
    <path class="cls-3" d="M386.31,401.01c-5.78,39.57-20.29,30.41-48.91,40.55,0,22.6,7.33,48.05,18.99,65.39,4.97,7.39,10.72,13.26,17.04,16.83,10.2-1.76,26.21-2.79,26.21-29.43,0-8.91,3.64-55.41,1.11-63.59.02.02.06.03.09.05-6.79-4.15-11.41-12.13-14.54-29.81Z"/>
    <g>
      <path class="cls-1" d="M224.97,400.11c-.33,4.56,42.7,10.52,75.42,13.97-.36-2.41-.59-4.84-.59-7.32,0-4.38.59-8.65,1.71-12.78-32.73-.25-76.21,1.59-76.54,6.12Z"/>
      <path class="cls-1" d="M305.2,384.5c3.96-8.01,9.98-15.25,17.59-21.4-40.66-15.68-99.68-35-102.24-29.33-2.45,5.39,46.11,31.57,84.64,50.73Z"/>
      <path class="cls-1" d="M358.35,345.82c-31.17-30.44-77.51-71.24-82.1-67.06-4.28,3.89,28.38,45.28,55.86,77.8,7.76-4.65,16.62-8.29,26.24-10.74Z"/>
      <path class="cls-1" d="M544.45,400.11c-.32-4.38-41.05-6.26-73.35-6.14,1.12,4.14,1.72,8.41,1.72,12.8,0,2.36-.2,4.68-.52,6.97,32.23-3.49,72.47-9.21,72.15-13.62Z"/>
      <path class="cls-1" d="M466.78,383.22c38.11-19.03,84.49-44.19,82.1-49.45-2.54-5.57-59.53,12.98-100.09,28.5,7.7,6,13.85,13.09,17.99,20.95Z"/>
      <path class="cls-1" d="M493.16,278.76c-4.56-4.15-50.27,36.04-81.43,66.39,9.72,2.22,18.65,5.74,26.58,10.2,27.26-32.33,59.07-72.75,54.84-76.59Z"/>
      <path class="cls-1" d="M398.61,343.04c-3.89-47.33-10.36-107.21-16.01-106.93-5.59.29-8.9,59.92-9.68,107.05,4.38-.51,8.83-.85,13.39-.85,4.19,0,8.27.3,12.3.73Z"/>
      <path class="cls-1" d="M312.31,440.02c-8.87,18.93-14.07,41.42-14.07,65.61,0,6.05.42,11.95,1.05,17.77,7.78,4.96,16.63,7.69,25.28,12,10.25,5.11,18.48,12.35,27.89,18.91.43.3.87.54,1.31.84l2.63-48.19c-11.66-17.35-18.99-42.8-18.99-65.39,28.62-10.14,43.12-.98,48.91-40.55,3.13,17.68,7.76,25.66,14.54,29.81.99.61,2.02,1.13,3.12,1.59.16.07.33.12.49.19.99.39,2,.75,3.06,1.06.21.06.43.12.64.18,1.08.29,2.18.57,3.34.81.18.04.36.07.55.11,2.99.61,6.29,1.11,9.86,1.68.27.05.56.09.84.14,1.18.19,2.38.39,3.63.62.95.17,1.93.38,2.91.57.77.16,1.51.29,2.31.46,1.82.4,3.71.84,5.67,1.36,0,22.51-7.48,48.51-19.24,66.41l8.43,59.13c7.58-2.94,14.22-6.67,18.96-11.41,16.67-16.66-49.25-5.78,1.88-70.54,14.61-18.51-1.92-44.1-18.59-60.76-16.66-16.66-39.54-26.14-63.12-26.14h-.46c-6.93,0-13.77.91-20.44,2.49-13.19,9.75-24.3,24.02-32.38,41.26Z"/>
      <path class="cls-1" d="M491.98,776.86s86.38,25.89,85.72,12.92c-2.91-57.53,28.42-56.38,62.99-70.64,22.94-9.47,17.11-37.87-14.84-70.54l-31.91-21.7-59.21,87.09-42.75,62.87Z"/>
      <path class="cls-1" d="M141.62,514.09c10.36,18.95,19.37,30.1,24.92,26.66,2.24-1.39,4.29-2.79,6.23-4.2.61-.44,1.15-.88,1.72-1.31,1.32-1,2.58-2.01,3.77-3.02.56-.48,1.08-.96,1.61-1.44,1.12-1.03,2.2-2.06,3.19-3.1.4-.42.81-.84,1.18-1.26,1.14-1.26,2.18-2.52,3.13-3.79.15-.2.32-.39.45-.59,3.43-4.74,5.64-9.6,6.86-14.6.01-.04.02-.09.03-.13.4-1.66.68-3.34.88-5.03-23.16,39.1-24.66-50.26-59-53.91-20.08-2.14-44.73-99.65-56.06-158.69-3.63,1.37-8.87,2.25-14.79,2.25-4.81,0-9.16-.59-12.59-1.54,2.96,40.02,7.49,73.32,12.59,73.32,3.02,0,5.85-11.75,8.26-29.65,6.39,25.74,13.85,51.19,21.23,71.5,14.23,39.09,31.68,81.67,46.39,108.54Z"/>
      <path class="cls-1" d="M79.5,272.67c.23-3.78.43-7.58.62-11.39-.45-.34-.87-.63-1.39-1.08-3.02-1.33-4.66-28.64-.79-37.42,1.14-2.6,2.43-4.91,3.77-6.92.09-5.44.15-10.71.15-15.69,0-20.26-.79-33.59-2.15-42.39,17.89-.93,30.79-3.52,30.79-6.59l-.29-.77h.29v-28.05c0-1.34-2.49-2.58-6.75-3.64-7.96-1.99-22.19-3.31-38.47-3.31-14.33,0-27.07,1.02-35.36,2.62-6.16,1.19-9.87,2.69-9.87,4.33v28.05h.3l-.3.77c0,3.11,13.32,5.75,31.67,6.63-1.2,7.78-1.95,19.1-2.11,35.57-.02,2.18-.03,4.41-.03,6.77,0,2.67.01,5.44.04,8.25,2.49-.48,5.21-.76,8.02-.76,9.59,0,17.36,7.86,17.36,12.98,0,4.44-5.85,1.18-13.66.24,7.81,1.65,13.66,8.13,13.66,12.56s-5.85,1.2-13.66.25c7.81,1.65,13.66,8.13,13.66,12.57,0,5.12-7.77,0-17.36,0-3.77,0-4.91,2.56-6.93,2.27.01.34.02.69.04,1.03,1.14,9.45,1.17,12.76.73,14.96.15,2.72.31,5.44.46,8.15,3.56-1.15,8.41-1.87,13.77-1.87s10.21.72,13.77,1.87Z"/>
      <path class="cls-1" d="M213.21,1539.86c-36.48-.37,438.52-49.56,442.53-57.64H82.11v63.92c40.8,48.34,830.94,1,131.11-6.28Z"/>
    </g>
    <path class="cls-2" d="M687.12,1583.17v-100.94h-31.37c-4.01,8.07-479.01,57.26-442.53,57.64,699.84,7.29-90.3,54.62-131.11,6.28v37.02H0v183.35h769.23v-183.35h-82.12Z"/>
  </g>
  <g>
    <path class="cls-1" d="M321.81,393.97c4.66,6.36,6.67,12.81,4.48,14.42-2.2,1.61-7.75-2.24-12.41-8.59s-6.66-12.8-4.47-14.41c2.18-1.61,7.75,2.24,12.4,8.58Z"/>
    <path class="cls-1" d="M338.61,378.21c4.66,6.36,6.67,12.81,4.48,14.42-2.2,1.61-7.76-2.24-12.41-8.59-4.66-6.35-6.67-12.81-4.47-14.41,2.18-1.61,7.75,2.23,12.4,8.58Z"/>
    <path class="cls-1" d="M359.74,365.26c2.93,7.31,3.27,14.06.74,15.07-2.52,1.02-6.95-4.09-9.87-11.41-2.94-7.31-3.27-14.06-.74-15.07,2.52-1.01,6.94,4.1,9.87,11.41Z"/>
    <path class="cls-1" d="M450.8,393.97c-4.66,6.36-6.67,12.81-4.47,14.42,2.18,1.61,7.75-2.24,12.41-8.59,4.65-6.35,6.66-12.8,4.47-14.41-2.2-1.61-7.76,2.24-12.41,8.58Z"/>
    <path class="cls-1" d="M434.01,378.21c-4.66,6.36-6.67,12.81-4.47,14.42,2.2,1.61,7.75-2.24,12.41-8.59,4.66-6.35,6.66-12.81,4.47-14.41-2.2-1.61-7.76,2.23-12.41,8.58Z"/>
    <path class="cls-1" d="M412.88,365.26c-2.93,7.31-3.27,14.06-.74,15.07,2.53,1.02,6.95-4.09,9.89-11.41,2.92-7.31,3.25-14.06.74-15.07-2.53-1.01-6.95,4.1-9.89,11.41Z"/>
    <path class="cls-1" d="M388.78,361.61c.2,7.88-1.82,14.32-4.54,14.39-2.72.07-5.09-6.25-5.3-14.13-.2-7.87,1.83-14.31,4.54-14.39,2.72-.07,5.1,6.25,5.3,14.13Z"/>
    <path class="cls-5" d="M303.7,598.15c-15.84,28.96-44.49,43.68-49.79,40.78-5.3-2.9,24.36-17.07,40.2-46.02,15.84-28.95,11.86-61.71,17.16-58.82,5.3,2.9,8.27,35.11-7.57,64.06Z"/>
    <path class="cls-5" d="M261.18,565.26c-15.84,28.96-44.49,43.68-49.79,40.78-5.3-2.89,24.36-17.07,40.2-46.02,15.84-28.95,11.86-61.71,17.15-58.82,5.3,2.9,8.29,35.11-7.55,64.06Z"/>
    <path class="cls-6" d="M250.56,883.26c0,49.31,8.98,105.02-.49,105.02s-16.17-10.3-16.17-59.62,6.69-118.96,16.17-118.96.49,24.25.49,73.57Z"/>
    <path class="cls-6" d="M254.89,1173.14c1.01,49.3,9.95,104.83,1.72,105-8.23.16-14.26-10.02-15.26-59.32-1-49.3,3.39-119.06,11.62-119.23,8.23-.17.92,24.24,1.92,73.54Z"/>
    <path class="cls-3" d="M557.59,715.23c-22.27,32.86-42.08,58.32-44.23,56.86-2.16-1.46,14.14-29.29,36.41-62.15,22.27-32.86,42.08-58.31,44.23-56.85,2.16,1.46-14.14,29.28-36.41,62.14Z"/>
    <path class="cls-3" d="M316.43,477.47c-4.46,22.02-.87,42.94-5.54,42.83-4.66-.09-6.1-18.17-3.24-40.36,2.88-22.21,8.96-40.12,13.63-40.02,4.66.1-.4,15.52-4.85,37.55Z"/>
    <path class="cls-3" d="M407.4,1502.33c0,4.45-68.42,8.05-152.84,8.05s-152.83-3.6-152.83-8.05,68.42-8.05,152.83-8.05,152.84,3.6,152.84,8.05Z"/>
    <path class="cls-1" d="M737.34,1617.88c0,4.8-157.91,8.68-352.73,8.68s-352.73-3.89-352.73-8.68,157.93-8.69,352.73-8.69,352.73,3.89,352.73,8.69Z"/>
    <path class="cls-1" d="M737.34,1666.16c0,4.8-157.91,8.68-352.73,8.68s-352.73-3.89-352.73-8.68,157.93-8.68,352.73-8.68,352.73,3.88,352.73,8.68Z"/>
    <path class="cls-1" d="M737.34,1714.44c0,4.79-157.91,8.68-352.73,8.68s-352.73-3.89-352.73-8.68,157.93-8.69,352.73-8.69,352.73,3.89,352.73,8.69Z"/>
    <g>
      <path class="cls-4" d="M53.11,78.53c-3.85,9.36-10.61,16.64-12.71,15.77-2.12-.87,3.5-7.43,7.36-16.79,3.84-9.35,4.46-17.97,6.57-17.1,2.11.87,2.62,8.76-1.23,18.11Z"/>
      <path class="cls-4" d="M73.29,35.71c1.2,10.04-1.16,19.69-3.42,19.96-2.27.27-.55-8.2-1.75-18.24-1.2-10.04-4.85-17.86-2.58-18.14,2.26-.27,6.56,6.37,7.76,16.41Z"/>
      <path class="cls-3" d="M98.38,124.91c0,1.88-15.34,3.39-34.26,3.39s-34.26-1.52-34.26-3.39,15.34-3.4,34.26-3.4,34.26,1.52,34.26,3.4Z"/>
      <path class="cls-3" d="M65.73,171.23c0,10.86-2.18,19.66-4.89,19.66s-4.88-8.8-4.88-19.66,2.18-19.66,4.88-19.66,4.89,8.8,4.89,19.66Z"/>
    </g>
  </g>
</svg>