<?xml version="1.0" encoding="UTF-8"?>
<svg id="Layer_1" data-name="Layer 1" xmlns="http://www.w3.org/2000/svg" viewBox="0 0 550.46 512.17">
  <defs>
    <style>
      .cls-1 {
        fill: #e9e7dc;
      }

      .cls-1, .cls-2, .cls-3, .cls-4, .cls-5, .cls-6, .cls-7, .cls-8, .cls-9, .cls-10, .cls-11, .cls-12 {
        stroke-width: 0px;
      }

      .cls-2 {
        fill: #dddac5;
      }

      .cls-3 {
        fill: #928e7a;
      }

      .cls-4 {
        fill: #f9f2d8;
      }

      .cls-5 {
        fill: #003049;
      }

      .cls-6 {
        fill: #fff;
      }

      .cls-7 {
        fill: #bfbca5;
      }

      .cls-8 {
        fill: #c0b891;
      }

      .cls-9 {
        fill: #b6ae84;
      }

      .cls-10 {
        fill: #e5dbae;
      }

      .cls-11 {
        fill: #d8cea4;
      }

      .cls-12 {
        fill: #aee0f1;
      }
    </style>
  </defs>
  <path class="cls-12" d="M540.61,209.54h-148.85c-5.44,0-9.84-4.41-9.84-9.84s4.41-9.84,9.84-9.84h73.04c5.44,0,9.84-4.41,9.84-9.84s-4.41-9.84-9.84-9.84h-53.2c-5.78-3.92-11.73-7.58-17.85-11h-104.08c-4.23,0-7.66-3.43-7.66-7.66s3.43-7.66,7.66-7.66h131.25c4.23,0,7.66-3.43,7.66-7.66s-3.43-7.66-7.66-7.66h-132.17c-.68,0-1.33.1-1.96.26-.01,0-.03,0-.04,0-.62-.16-1.28-.26-1.95-.26h-123.92c-4.23,0-7.66,3.43-7.66,7.66s3.43,7.66,7.66,7.66h52.61c6.6,0,11.94,5.35,11.94,11.94h0c0,6.6-5.35,11.94-11.94,11.94h-69.98c-8.41,5.48-16.46,11.46-24.11,17.91H43.72c-6.6,0-11.94,5.35-11.94,11.94s5.35,11.94,11.94,11.94h85.85c5.44,0,9.84,4.41,9.84,9.84s-4.41,9.84-9.84,9.84h-50.54c-6.79,9.4-12.94,19.28-18.34,29.62H9.94c-5.49,0-9.94,4.45-9.94,9.94h0c0,5.49,4.45,9.94,9.94,9.94h102.15c3.68,0,6.66,2.98,6.66,6.66s-2.98,6.66-6.66,6.66H46.39c-2.79,8.08-5.16,16.36-7.09,24.81H15.02c-4.3,0-7.79,3.49-7.79,7.79s3.49,7.79,7.79,7.79h19.28c.15,0,.3-.02.46-.02h10.44c4.3,0,7.79,3.49,7.79,7.79s-3.49,7.79-7.79,7.79h-10.44c-.15,0-.29-.01-.44-.02-.72,7.59-1.1,15.27-1.1,23.05,0,52.65,16.79,101.38,45.3,141.14h394.4c28.51-39.76,45.3-88.49,45.3-141.14,0-19.83-2.4-39.1-6.89-57.55h-111.06c-4.45,0-8.05-3.6-8.05-8.05s3.6-8.05,8.05-8.05h122.58c4.45,0,8.05-3.6,8.05-8.05h0c0-4.45-3.6-8.05-8.05-8.05h-21.8c-2.56-6.42-5.39-12.7-8.47-18.84h-18.48c-4.59,0-8.3-3.72-8.3-8.3s3.72-8.3,8.3-8.3h9.29c-3.44-5.7-7.12-11.23-11.01-16.61h68.24c5.44,0,9.84-4.41,9.84-9.84s-4.41-9.84-9.84-9.84ZM146.88,292.05h-9.28c-3.68,0-6.66-2.98-6.66-6.66s2.98-6.66,6.66-6.66h9.28c3.68,0,6.66,2.98,6.66,6.66s-2.98,6.66-6.66,6.66ZM240.74,249.98h-57.17c-5.49,0-9.94-4.45-9.94-9.94s4.45-9.94,9.94-9.94h-18.54c-5.67,0-10.27-4.6-10.27-10.27h0c0-5.67,4.6-10.27,10.27-10.27h36.81c5.67,0,10.27,4.6,10.27,10.27h0c0,5.67-4.6,10.27-10.27,10.27h38.9c5.49,0,9.94,4.45,9.94,9.94s-4.45,9.94-9.94,9.94ZM374.38,313.48h-9.08c-4.45,0-8.05-3.6-8.05-8.05s3.6-8.05,8.05-8.05h9.08c4.45,0,8.05,3.6,8.05,8.05s-3.6,8.05-8.05,8.05ZM421.86,245.83h-65.66c-4.59,0-8.3-3.72-8.3-8.3s3.72-8.3,8.3-8.3h65.66c4.59,0,8.3,3.72,8.3,8.3s-3.72,8.3-8.3,8.3Z"/>
  <path class="cls-6" d="M340.24,254.13c0-4.59-3.72-8.3-8.3-8.3h-24.53c-4.59,0-8.3,3.72-8.3,8.3s3.72,8.3,8.3,8.3h24.53c4.59,0,8.3-3.72,8.3-8.3Z"/>
  <g>
    <rect class="cls-7" x="389.18" y="379.98" width="37.14" height="125.74"/>
    <path class="cls-2" d="M407.68,461.15c-10.6,7.18-18.49,21.03-18.49,21.03v14.98h36.99v-14.98s-7.9-13.85-18.49-21.03Z"/>
    <rect class="cls-1" x="347.28" y="331.28" width="41.74" height="174.44"/>
    <rect class="cls-7" x="353.65" y="331.28" width="29" height="54.54"/>
    <rect class="cls-7" x="353.65" y="408.47" width="29" height="37.52"/>
    <path class="cls-3" d="M362.77,339.61s-3.97,11.99-3.97,40.38h7.93c0-28.39-3.97-40.38-3.97-40.38Z"/>
    <path class="cls-3" d="M373.81,339.61s-3.97,11.99-3.97,40.38h7.93c0-28.39-3.97-40.38-3.97-40.38Z"/>
    <rect class="cls-2" x="353.65" y="385.82" width="29" height="22.65"/>
    <rect class="cls-3" x="353.65" y="445.99" width="29" height="8.33"/>
    <path class="cls-2" d="M382.65,431.7c-2.17-4.77-6.98-13.77-14.5-19.39-7.52,5.62-12.33,14.62-14.5,19.39v14.28h29v-14.28Z"/>
    <path class="cls-3" d="M366.74,442.38h-7.93v-12.87c0-2.19,1.78-3.97,3.97-3.97h0c2.19,0,3.97,1.78,3.97,3.97v12.87Z"/>
    <path class="cls-3" d="M377.78,442.38h-7.93v-12.87c0-2.19,1.78-3.97,3.97-3.97h0c2.19,0,3.97,1.78,3.97,3.97v12.87Z"/>
    <rect class="cls-7" x="353.65" y="454.31" width="29" height="42.84"/>
    <path class="cls-2" d="M382.65,482.87c-2.17-4.77-6.98-13.77-14.5-19.39-7.52,5.62-12.33,14.62-14.5,19.39v14.28h29v-14.28Z"/>
    <path class="cls-3" d="M366.74,497.15h-7.93v-12.87c0-2.19,1.78-3.97,3.97-3.97h0c2.19,0,3.97,1.78,3.97,3.97v12.87Z"/>
    <path class="cls-3" d="M377.78,497.15h-7.93v-12.87c0-2.19,1.78-3.97,3.97-3.97h0c2.19,0,3.97,1.78,3.97,3.97v12.87Z"/>
    <path class="cls-3" d="M406.2,497.15h-7.93v-12.87c0-2.19,1.78-3.97,3.97-3.97h0c2.19,0,3.97,1.78,3.97,3.97v12.87Z"/>
    <path class="cls-3" d="M417.24,497.15h-7.93v-12.87c0-2.19,1.78-3.97,3.97-3.97h0c2.19,0,3.97,1.78,3.97,3.97v12.87Z"/>
    <rect class="cls-1" x="426.33" y="331.28" width="41.74" height="174.44"/>
    <rect class="cls-7" x="432.7" y="331.28" width="29" height="54.54"/>
    <rect class="cls-7" x="432.7" y="408.47" width="29" height="37.52"/>
    <path class="cls-3" d="M452.59,339.61s3.97,11.99,3.97,40.38h-7.93c0-28.39,3.97-40.38,3.97-40.38Z"/>
    <path class="cls-3" d="M441.54,339.61s3.97,11.99,3.97,40.38h-7.93c0-28.39,3.97-40.38,3.97-40.38Z"/>
    <rect class="cls-2" x="432.7" y="385.82" width="29" height="22.65"/>
    <rect class="cls-3" x="432.7" y="445.99" width="29" height="8.33"/>
    <path class="cls-2" d="M432.7,431.7c2.17-4.77,6.98-13.77,14.5-19.39,7.52,5.62,12.33,14.62,14.5,19.39v14.28h-29v-14.28Z"/>
    <path class="cls-3" d="M448.62,442.38h7.93v-12.87c0-2.19-1.78-3.97-3.97-3.97h0c-2.19,0-3.97,1.78-3.97,3.97v12.87Z"/>
    <path class="cls-3" d="M437.58,442.38h7.93v-12.87c0-2.19-1.78-3.97-3.97-3.97h0c-2.19,0-3.97,1.78-3.97,3.97v12.87Z"/>
    <rect class="cls-7" x="432.7" y="454.31" width="29" height="42.84"/>
    <path class="cls-2" d="M432.7,482.87c2.17-4.77,6.98-13.77,14.5-19.39,7.52,5.62,12.33,14.62,14.5,19.39v14.28h-29v-14.28Z"/>
    <path class="cls-3" d="M448.62,497.15h7.93v-12.87c0-2.19-1.78-3.97-3.97-3.97h0c-2.19,0-3.97,1.78-3.97,3.97v12.87Z"/>
    <path class="cls-3" d="M437.58,497.15h7.93v-12.87c0-2.19-1.78-3.97-3.97-3.97h0c-2.19,0-3.97,1.78-3.97,3.97v12.87Z"/>
    <rect class="cls-3" x="389.18" y="379.98" width="37.14" height="3.49"/>
    <rect class="cls-2" x="389.18" y="408.47" width="37.14" height="3.49"/>
    <rect class="cls-3" x="389.18" y="446.96" width="37.14" height="7.01"/>
    <circle class="cls-2" cx="407.76" cy="429.15" r="13.23" transform="translate(-88.75 751.52) rotate(-79.46)"/>
    <path class="cls-3" d="M394.89,390.69s-2.22,7.8-2.22,17.82h4.45c0-10.02-2.22-17.82-2.22-17.82Z"/>
    <path class="cls-3" d="M402.61,390.69s-2.22,7.8-2.22,17.82h4.45c0-10.02-2.22-17.82-2.22-17.82Z"/>
    <path class="cls-3" d="M420.75,390.69s2.22,7.8,2.22,17.82h-4.45c0-10.02,2.22-17.82,2.22-17.82Z"/>
    <path class="cls-3" d="M413.03,390.69s2.22,7.8,2.22,17.82h-4.45c0-10.02,2.22-17.82,2.22-17.82Z"/>
    <rect class="cls-3" x="344.13" y="496.09" width="127.09" height="9.64"/>
  </g>
  <g>
    <rect class="cls-10" x="50.83" y="410.04" width="48.92" height="95.59"/>
    <rect class="cls-8" x="55.41" y="415.18" width="39.75" height="20.29"/>
    <path class="cls-4" d="M90.41,499.16h-30.26v-32.47c0-8.35,6.77-15.13,15.13-15.13h0c8.35,0,15.13,6.77,15.13,15.13v32.47Z"/>
    <rect class="cls-10" x="149.16" y="410.04" width="48.92" height="95.59"/>
    <polygon class="cls-9" points="124.45 406.05 48.49 406.05 48.49 409.91 124.45 409.91 200.41 409.91 200.41 406.05 124.45 406.05"/>
    <rect class="cls-8" x="153.74" y="415.18" width="39.75" height="20.29"/>
    <path class="cls-4" d="M158.49,499.16h30.26v-32.47c0-8.35-6.77-15.13-15.13-15.13h0c-8.35,0-15.13,6.77-15.13,15.13v32.47Z"/>
    <polygon class="cls-10" points="124.45 391.05 42.05 391.05 48.49 406.05 124.45 406.05 200.41 406.05 206.85 391.05 124.45 391.05"/>
    <polygon class="cls-9" points="124.45 387.51 42.05 387.51 42.05 391.05 124.45 391.05 206.85 391.05 206.85 387.51 124.45 387.51"/>
    <polygon class="cls-10" points="124.45 377.86 48.49 377.86 48.49 387.51 124.45 387.51 200.41 387.51 200.41 377.86 124.45 377.86"/>
    <polygon class="cls-9" points="124.45 374.37 45.6 374.37 48.49 377.86 124.45 377.86 200.41 377.86 203.31 374.37 124.45 374.37"/>
    <polygon class="cls-10" points="124.45 370.45 45.6 370.45 45.6 374.37 124.45 374.37 203.31 374.37 203.31 370.45 124.45 370.45"/>
    <path class="cls-11" d="M99.75,410.04v34.12h4.02v-7.22c0-11.42,9.26-20.68,20.68-20.68s20.68,9.26,20.68,20.68v7.22h4.02v-34.12h-49.41Z"/>
    <rect class="cls-10" x="118.75" y="367.95" width="11.98" height="3.09"/>
    <rect class="cls-10" x="101.19" y="367.95" width="11.98" height="3.09"/>
    <rect class="cls-10" x="83.62" y="367.95" width="11.98" height="3.09"/>
    <rect class="cls-10" x="66.06" y="367.95" width="11.98" height="3.09"/>
    <rect class="cls-10" x="48.49" y="367.95" width="11.98" height="3.09"/>
    <rect class="cls-10" x="189.02" y="367.95" width="11.98" height="3.09"/>
    <rect class="cls-10" x="171.45" y="367.95" width="11.98" height="3.09"/>
    <rect class="cls-10" x="153.89" y="367.95" width="11.98" height="3.09"/>
    <rect class="cls-10" x="136.32" y="367.95" width="11.98" height="3.09"/>
    <rect class="cls-9" x="46.8" y="440.62" width="56.97" height="3.54"/>
    <rect class="cls-9" x="145.13" y="440.62" width="56.97" height="3.54"/>
  </g>
  <g>
    <rect class="cls-5" x="201.57" y="366.92" width="3.88" height="9.49"/>
    <rect class="cls-5" x="212.58" y="366.92" width="3.88" height="9.49"/>
    <rect class="cls-5" x="223.59" y="366.92" width="3.88" height="9.49"/>
    <rect class="cls-5" x="234.6" y="366.92" width="3.88" height="9.49"/>
    <rect class="cls-5" x="245.61" y="366.92" width="3.88" height="9.49"/>
    <rect class="cls-5" x="255.09" y="366.92" width="3.88" height="9.49"/>
    <rect class="cls-5" x="267.63" y="366.92" width="3.88" height="9.49"/>
    <rect class="cls-5" x="123.66" y="496" width="69.19" height="12.27"/>
    <rect class="cls-5" x="356.08" y="496" width="69.19" height="12.27"/>
    <rect class="cls-5" x="273.84" y="411.23" width="1.26" height="4.19"/>
    <rect class="cls-5" x="265.68" y="411.23" width="1.26" height="4.63"/>
    <rect class="cls-5" x="257.52" y="411.23" width="1.26" height="5.37"/>
    <rect class="cls-5" x="249.36" y="411.23" width="1.26" height="6.7"/>
    <rect class="cls-5" x="241.2" y="411.23" width="1.26" height="8.63"/>
    <rect class="cls-5" x="233.05" y="411.23" width="1.26" height="11.79"/>
    <rect class="cls-5" x="224.89" y="411.23" width="1.26" height="15.49"/>
    <polygon class="cls-5" points="313.25 264.88 274.47 264.88 235.69 264.88 235.69 273.14 242.03 273.14 239.86 279.73 256.23 279.73 263.05 279.73 274.47 279.73 274.47 279.73 285.88 279.73 292.71 279.73 309.08 279.73 306.91 273.14 313.25 273.14 313.25 264.88"/>
    <polygon class="cls-5" points="312.78 290.97 294.84 290.97 287.86 290.97 274.47 290.97 274.47 290.97 261.08 290.97 254.1 290.97 236.16 290.97 234.32 296.55 254.1 296.55 260.09 296.55 274.47 296.55 274.47 296.55 288.85 296.55 294.84 296.55 314.61 296.55 312.78 290.97"/>
    <polygon class="cls-5" points="274.47 361.74 200.04 361.74 200.04 366.92 274.47 366.92 348.9 366.92 348.9 361.74 274.47 361.74"/>
    <polygon class="cls-5" points="274.47 376.42 200.04 376.42 200.04 385.91 274.47 385.91 348.9 385.91 348.9 376.42 274.47 376.42"/>
    <rect class="cls-5" x="343.49" y="366.92" width="3.88" height="9.49"/>
    <rect class="cls-5" x="332.48" y="366.92" width="3.88" height="9.49"/>
    <rect class="cls-5" x="321.47" y="366.92" width="3.88" height="9.49"/>
    <rect class="cls-5" x="310.46" y="366.92" width="3.88" height="9.49"/>
    <rect class="cls-5" x="299.45" y="366.92" width="3.88" height="9.49"/>
    <rect class="cls-5" x="289.98" y="366.92" width="3.88" height="9.49"/>
    <rect class="cls-5" x="277.43" y="366.92" width="3.88" height="9.49"/>
    <path class="cls-5" d="M350.02,389.59h-15.6s-19.85,0-19.85,0h-40.11s-40.11,0-40.11,0h-35.45c-3.4,6.09-7.57,13.28-12.64,21.64h88.19s51.13,0,51.13,0h37.07c-5.07-8.36-9.24-15.55-12.64-21.64Z"/>
    <path class="cls-5" d="M337.83,456.64c-14.59-21.08-30.95-34.49-48.01-39.53,33.05,4.38,50.21,21.71,50.4,21.91l.9-.87c-.23-.24-5.78-5.91-16.81-11.67-10.16-5.3-27.06-11.62-49.85-11.62-43.64,0-66.44,23.06-66.66,23.29l.9.87c.19-.2,17.33-17.54,50.41-21.91-17.06,5.04-33.43,18.46-48.02,39.54-14.25,20.59-21.91,41.45-21.99,41.66l1.18.43c.3-.83,30.66-82.62,84.17-82.62s83.87,81.79,84.17,82.62l1.18-.43c-.07-.21-7.74-21.07-21.99-41.66Z"/>
    <rect class="cls-5" x="273.84" y="411.23" width="1.26" height="4.19"/>
    <rect class="cls-5" x="282" y="411.23" width="1.26" height="4.63"/>
    <rect class="cls-5" x="290.16" y="411.23" width="1.26" height="5.37"/>
    <rect class="cls-5" x="298.32" y="411.23" width="1.26" height="6.7"/>
    <rect class="cls-5" x="306.47" y="411.23" width="1.26" height="8.63"/>
    <rect class="cls-5" x="314.63" y="411.23" width="1.26" height="11.79"/>
    <rect class="cls-5" x="322.79" y="411.23" width="1.26" height="15.49"/>
    <path class="cls-5" d="M261.48,292.32l-5.75-6.17-7.43,5.7-4.56-5.98-7.2,5.6-.77-.99,7.21-5.6-3.62-4.76,1-.76,3.61,4.75,6.71-5.22,5.19,5.57,8.08-6.21-2.47,14.07ZM244.74,285.1l3.8,4.99,6.33-4.86-4.33-4.64-5.81,4.52ZM256.73,285.38l3.95,4.24,1.48-8.4-5.42,4.16Z"/>
    <path class="cls-5" d="M287.08,292.32l-2.47-14.07,8.08,6.21,5.19-5.57,6.71,5.22,3.61-4.75,1,.76-3.62,4.76,7.21,5.6-.77.99-7.2-5.6-4.56,5.98-7.43-5.7-5.75,6.17ZM293.69,285.22l6.33,4.86,3.8-4.99-5.81-4.52-4.33,4.64ZM286.41,281.21l1.48,8.4,3.95-4.24-5.42-4.16Z"/>
    <path class="cls-5" d="M288.77,292.56l-8.11-6.81-6.19,6.1-6.19-6.1-6.79,5.7-.81-.96,6.7-5.62-4.76-4.69.88-.9,4.85,4.77,6.13-5.14,6.13,5.14,5.7-5.61,2.48,14.12ZM269.24,284.94l5.23,5.15,5.23-5.15-5.23-4.39-5.23,4.39ZM281.56,284.86l5.37,4.51-1.47-8.36-3.91,3.85Z"/>
    <path class="cls-5" d="M303.58,265.04l-.61-1.87-9.44-5.89,6.96-5.75c-.17-.86-.33-1.74-.49-2.61l-9.07-6.74,6.79-6.36c-.15-.93-.3-1.86-.45-2.79l-8.47-7,6.42-6.61c-.14-.96-.27-1.93-.41-2.9l-7.86-6.85,6.11-6.5c-.12-.98-.24-1.96-.36-2.94l-7.32-6.51,5.84-6.22c-.11-.99-.22-1.99-.33-2.98l-6.92-6.44,5.61-6.19c-.1-.99-.2-1.97-.29-2.96l-6.37-5.71,5.33-5.36c-.09-1.01-.18-2.01-.27-3.01l-5.82-5.85,4.87-5.33c-.08-1.03-.17-2.05-.25-3.08l-5.09-4.68,4.39-4.34c-.08-1.04-.15-2.06-.23-3.09l-4.65-4.59,4.01-4.27c-.07-1.04-.14-2.06-.21-3.09l-4.19-4.03,3.68-3.79c-.07-1.01-.13-2.02-.19-3.02l-3.85-3.82,3.39-3.59c-.06-1.01-.12-2.01-.18-3l-3.49-3.35,3.12-3.17c-.05-.99-.11-1.97-.16-2.94l-3.18-2.97,2.88-2.81c-.05-1.02-.1-2.02-.15-3.01l-2.96-2.82,2.69-2.7c-.05-.98-.09-1.95-.13-2.89l-2.71-2.41,2.5-2.32c-.04-.98-.08-1.94-.12-2.87l-2.56-2.37,2.37-2.28c-.03-.71-.06-1.39-.08-2.05h-6.57v2.07l2.45,2.27-2.45,2.36v2.88l2.59,2.31-2.59,2.4v2.91l2.83,2.7-2.83,2.84v2.97l3.03,2.83-3.03,2.96v2.97l3.28,3.15-3.28,3.33v3.05l3.59,3.57-3.59,3.8v3.06l3.93,3.77-3.93,4.05v3.06l4.35,4.29-4.35,4.63v3.02l4.76,4.37-4.76,4.7v3.03l5.33,5.36-5.33,5.84v3.03l5.99,5.38-5.71,5.74c.05.89.12,1.88.18,2.97l6.63,6.17-5.82,6.42c.07.98.13,1.99.2,3.02l6.99,6.21-6.1,6.5c.07.98.14,1.97.22,2.97l7.45,6.49-6.43,6.85c.08.97.16,1.94.24,2.91l7.99,6.61-6.81,7.01c.09.93.17,1.86.26,2.77l8.58,6.37-7.22,6.77c.1.87.2,1.71.3,2.55l9.33,5.82-7.62,6.28c.06.36.13.71.19,1.05,0,.03.03.16.06.37l8.49-7,11.08,6.91ZM276.07,55.59h4.68l-2.3,2.21-2.39-2.21ZM278.48,59.53l2.54,2.36h-4.99l2.45-2.36ZM276.12,63.15h4.9l-2.4,2.22-2.5-2.22ZM278.64,67.07l2.67,2.38h-5.23l2.56-2.38ZM276.04,70.71h5.4l-2.63,2.64-2.77-2.64ZM278.83,75.11l3,2.86h-5.85l2.85-2.86ZM276.07,79.23h5.8l-2.83,2.76-2.96-2.76ZM279.05,83.73l3.18,2.96h-6.21l3.04-2.96ZM276.03,87.95h6.29l-3.06,3.1-3.23-3.1ZM279.29,92.82l3.51,3.37h-6.82l3.32-3.37ZM275.99,97.45h6.9l-3.34,3.54-3.56-3.54ZM279.58,102.79l3.89,3.87h-7.54l3.65-3.87ZM276.03,107.91h7.48l-3.61,3.72-3.87-3.72ZM279.93,113.4l4.26,4.1h-8.24l3.97-4.1ZM276,118.76h8.3l-3.99,4.25-4.3-4.25ZM280.34,124.81l4.76,4.7h-9.18l4.42-4.7ZM276.08,130.77h9.01l-4.34,4.29-4.67-4.29ZM280.79,136.8l5.15,4.73h-9.94l4.79-4.73ZM275.98,142.79h10.15l-4.86,5.32-5.29-5.32ZM281.31,149.93l5.9,5.94h-11.32l5.42-5.94ZM276.11,157.12h11.1l-5.23,5.26-5.87-5.26ZM282.03,164.12l6.36,5.71h-12.04l5.67-5.71ZM276.44,171.09h12.18l-5.57,6.15-6.61-6.15ZM283.12,179.02l6.94,6.46h-12.8l5.86-6.46ZM277.5,186.74h12.71l-5.78,6.16-6.93-6.16ZM284.51,194.66l7.33,6.51h-13.44l6.11-6.51ZM278.63,202.43h13.42l-6.04,6.43-7.38-6.43ZM286.09,210.6l7.87,6.86h-14.32l6.44-6.86ZM279.95,218.72h14.21l-6.33,6.51-7.88-6.51ZM287.92,226.95l8.47,7h-15.27l6.8-7ZM281.53,235.2h15.01l-6.64,6.22-8.37-6.22ZM290,243.06l9,6.69h-16.15l7.14-6.69ZM283.46,251.01h15.69l-6.75,5.57-8.94-5.57Z"/>
    <path class="cls-5" d="M335.44,361.81c-.02-.07-.06-.14-.08-.21l-.55-1.67-18.42-11.59,11.07-10.74-.86-2.6-16.58-10.32,10.12-9.31-.81-2.46-14.32-8.01,9.28-7.28-.55-1.68h-24.37c.11.61.22,1.22.33,1.83l13.04,7.3-10.25,8.04c.15.81.3,1.62.45,2.43l15.01,9.34-11.25,10.35c.17.85.33,1.7.5,2.54l17.16,10.8-12.32,11.96c.09.36.17.73.25,1.08,0,.02.05.13.13.3l13.03-12.65,19.98,12.57ZM291.26,297.18h21.53l-8.97,7.03-12.56-7.03ZM303.94,305.72l14.08,7.88h-24.14l10.05-7.88ZM294.27,314.86h24.56l-9.91,9.12-14.65-9.12ZM309.06,325.55l16.48,10.26h-27.63l11.15-10.26ZM298.48,337.07h27.71l-10.9,10.58-16.81-10.58Z"/>
    <path class="cls-5" d="M377.35,495.37h.92l9.9-13.35,28.03,13.35h1.57c-.23-.33-.45-.65-.69-.97l-28.15-13.4,9.72-13.11c-.61-.9-1.2-1.77-1.81-2.66l-26.87-13.08,9.84-12.54c-.56-.86-1.13-1.73-1.68-2.58l-25.2-12.71,9.66-12.01c-.35-.58-.69-1.13-1.03-1.71h-35.57c.37.69.74,1.39,1.11,2.1l23.88,12.04-10.22,12.71c.5.86,1,1.73,1.5,2.61l25.76,12.54-10.29,13.12c.54.87,1.09,1.73,1.64,2.6l27.63,13.16-9.98,13.45c.1.15.21.3.31.45ZM328.24,411.86h33.11l-9.55,11.88-23.56-11.88ZM352.14,425.33l25.05,12.63h-35.2l10.15-12.63ZM343.41,439.21h35.13l-9.71,12.37-25.42-12.37ZM369.19,453.16l26.76,13.02h-36.97l10.22-13.02ZM360.46,467.44h36.96l-9.65,13-27.32-13Z"/>
    <path class="cls-5" d="M273.55,169.02l-5.71-5.74,6-5.38v-3.03l-5.33-5.84,5.33-5.36v-3.03l-4.76-4.71,4.76-4.37v-3.02s-4.35-4.63-4.35-4.63l4.35-4.29v-3.06l-3.93-4.05,3.93-3.78v-3.06s-3.59-3.8-3.59-3.8l3.59-3.57v-3.05l-3.28-3.33,3.28-3.15v-2.97l-3.03-2.96,3.03-2.83v-2.97s-2.83-2.84-2.83-2.84l2.83-2.7v-2.91s-2.59-2.4-2.59-2.4l2.59-2.31v-2.88s-2.45-2.36-2.45-2.36l2.45-2.27v-2.07h-6.57c-.03.66-.05,1.34-.08,2.05l2.37,2.28-2.56,2.37c-.04.92-.08,1.88-.12,2.87l2.5,2.32-2.71,2.41c-.04.94-.09,1.91-.14,2.89l2.69,2.7-2.96,2.82c-.05.99-.1,1.99-.15,3.01l2.88,2.81-3.18,2.97c-.05.97-.11,1.95-.16,2.94l3.12,3.17-3.49,3.35c-.06.99-.12,1.99-.18,3.01l3.39,3.59-3.85,3.82c-.06,1-.13,2-.19,3.02l3.68,3.79-4.19,4.03c-.07,1.03-.14,2.05-.21,3.09l4.01,4.27-4.65,4.59c-.08,1.03-.15,2.06-.23,3.09l4.39,4.34-5.09,4.68c-.08,1.02-.16,2.05-.25,3.08l4.87,5.33-5.82,5.85c-.09,1-.18,2.01-.27,3.02l5.33,5.36-6.37,5.71c-.1.99-.19,1.98-.29,2.96l5.61,6.19-6.92,6.44c-.11,1-.22,1.99-.33,2.99l5.84,6.22-7.32,6.5c-.12.98-.24,1.96-.36,2.94l6.1,6.5-7.85,6.84c-.13.97-.27,1.94-.41,2.91l6.42,6.6-8.46,6.99c-.15.94-.3,1.87-.45,2.8l6.78,6.36-9.06,6.74c-.16.88-.33,1.75-.49,2.62l6.96,5.74-9.45,5.89-.61,1.87,11.09-6.91,8.49,7c.03-.2.06-.33.06-.36.06-.34.13-.7.19-1.06l-7.62-6.28,9.33-5.82c.1-.83.2-1.68.3-2.55l-7.22-6.77,8.58-6.37c.09-.92.17-1.84.26-2.78l-6.81-7.01,7.99-6.61c.08-.97.16-1.94.24-2.91l-6.43-6.85,7.45-6.49c.07-1,.15-1.99.22-2.97l-6.1-6.5,6.99-6.21c.07-1.03.14-2.04.2-3.02l-5.82-6.42,6.63-6.17c.07-1.09.13-2.09.18-2.97ZM268.18,55.59h4.68l-2.39,2.21-2.3-2.21ZM270.46,59.53l2.45,2.36h-4.99l2.54-2.36ZM267.92,63.15h4.9l-2.5,2.22-2.4-2.22ZM270.3,67.07l2.56,2.38h-5.23l2.67-2.38ZM267.49,70.71h5.4l-2.77,2.64-2.63-2.64ZM270.1,75.11l2.85,2.86h-5.85l3-2.86ZM267.07,79.23h5.8l-2.96,2.76-2.83-2.76ZM269.89,83.73l3.04,2.96h-6.21l3.18-2.96ZM266.62,87.95h6.29l-3.23,3.1-3.06-3.1ZM269.65,92.82l3.32,3.37h-6.82l3.51-3.37ZM266.04,97.45h6.9l-3.56,3.54-3.34-3.54ZM269.36,102.79l3.65,3.87h-7.54l3.89-3.87ZM265.43,107.91h7.48l-3.87,3.72-3.61-3.72ZM269.01,113.4l3.97,4.1h-8.24l4.26-4.1ZM264.64,118.76h8.3l-4.3,4.25-3.99-4.25ZM268.6,124.81l4.42,4.7h-9.18l4.76-4.7ZM263.84,130.77h9.01l-4.67,4.29-4.34-4.29ZM268.15,136.8l4.79,4.73h-9.94l5.15-4.73ZM262.81,142.79h10.15l-5.29,5.32-4.86-5.32ZM267.63,149.93l5.42,5.94h-11.32l5.9-5.94ZM261.72,157.12h11.1l-5.87,5.26-5.23-5.26ZM266.91,164.12l5.67,5.71h-12.04l6.36-5.71ZM256.54,256.58l-6.75-5.57h15.69l-8.94,5.57ZM266.08,249.75h-16.15l9-6.69,7.14,6.69ZM259.04,241.43l-6.64-6.22h15.01l-8.37,6.22ZM267.82,233.94h-15.27l8.47-7,6.8,7ZM261.11,225.24l-6.33-6.51h14.21l-7.88,6.51ZM269.29,217.47h-14.32l7.87-6.86,6.44,6.86ZM262.93,208.86l-6.04-6.43h13.42l-7.38,6.43ZM270.54,201.17h-13.44l7.33-6.51,6.11,6.51ZM264.5,192.9l-5.78-6.16h12.71l-6.93,6.16ZM271.67,185.49h-12.8l6.94-6.46,5.86,6.46ZM265.89,177.24l-5.57-6.15h12.18l-6.61,6.15Z"/>
    <path class="cls-5" d="M259.56,295.92h-24.37l-.55,1.68,9.29,7.28-14.32,8.02-.81,2.46,10.12,9.32-16.58,10.32-.86,2.6,11.07,10.75-18.42,11.59-.55,1.66c-.02.07-.06.15-.08.22l19.97-12.57,13.03,12.65c.1-.23.16-.37.17-.39.08-.32.15-.65.23-.97l-12.33-11.97,17.17-10.8c.17-.84.33-1.68.5-2.53l-11.25-10.36,15.01-9.34c.15-.81.3-1.62.45-2.43l-10.25-8.04,13.04-7.3c.11-.61.22-1.22.33-1.83ZM233.64,347.65l-10.9-10.58h27.71l-16.81,10.58ZM251.02,335.81h-27.63l16.48-10.26,11.15,10.26ZM240.02,323.98l-9.91-9.12h24.56l-14.65,9.12ZM255.05,313.6h-24.13l14.08-7.88,10.05,7.88ZM245.11,304.21l-8.97-7.03h21.53l-12.56,7.03Z"/>
    <path class="cls-5" d="M222.93,410.6h-35.57c-.35.57-.68,1.13-1.03,1.71l9.66,12.01-25.2,12.71c-.55.85-1.12,1.72-1.68,2.58l9.84,12.54-26.87,13.08c-.6.89-1.19,1.76-1.81,2.66l9.72,13.11-28.15,13.4c-.23.33-.45.64-.69.97h1.57l28.03-13.35,9.9,13.35h.92c.1-.15.21-.3.31-.45l-9.97-13.45,27.63-13.16c.55-.87,1.1-1.74,1.64-2.6l-10.29-13.12,25.76-12.54c.51-.87,1-1.74,1.5-2.61l-10.22-12.71,23.88-12.04c.37-.71.74-1.41,1.11-2.1ZM161.16,480.45l-9.65-13h36.96l-27.31,13ZM189.96,466.18h-36.97l26.75-13.02,10.22,13.02ZM180.11,451.59l-9.71-12.37h35.13l-25.42,12.37ZM206.95,437.96h-35.2l25.05-12.63,10.15,12.63ZM197.14,423.74l-9.55-11.88h33.11l-23.56,11.88Z"/>
    <g>
      <path class="cls-5" d="M235.43,385.91c-12.23,25.21-34.1,66.79-63.85,109.46h-40.42c35.99-50.84,58.21-87.03,70.53-109.46h-1.5c-11.41,20.81-32.62,55.93-70.76,109.73l-.7.99h43.51l.19-.27c30.09-43.13,52.16-85.17,64.4-110.45h-1.39Z"/>
      <path class="cls-5" d="M211.37,366.92c.98-2.17,1.72-3.97,2.21-5.34l32.73-99.45c16.83-78.12,21.03-208.33,21.33-218.41h6.2v120.47c-.04.77-4.48,77.46-8.85,100.59-.11.68-11.47,68.05-18.32,96.72-.05.11-.85,2.02-2.37,5.43h1.37c1.4-3.15,2.14-4.92,2.19-5.04,6.89-28.81,18.25-96.22,18.36-96.89,4.39-23.19,8.83-99.96,8.87-100.77V42.46h-8.68l-.02.61c-.04,1.37-3.92,138.01-21.31,218.73l-32.7,99.37c-.03.08-.7,1.9-2.48,5.75h1.46Z"/>
    </g>
    <g>
      <path class="cls-5" d="M419.5,495.64c-38.14-53.8-59.35-88.92-70.76-109.73h-1.5c12.32,22.43,34.54,58.62,70.53,109.46h-40.42c-29.76-42.68-51.63-84.27-63.85-109.46h-1.39c12.23,25.26,34.3,67.31,64.4,110.45l.19.27h43.51l-.7-.99Z"/>
      <path class="cls-5" d="M303.26,366.92h1.37c-1.5-3.36-2.29-5.24-2.33-5.33-6.88-28.77-18.24-96.14-18.35-96.83-4.37-23.12-8.81-99.8-8.85-100.54V43.72h6.2c.3,10.08,4.51,140.29,21.35,218.48l32.72,99.4c.49,1.37,1.23,3.16,2.2,5.32h1.46c-1.78-3.84-2.45-5.66-2.47-5.73l-32.69-99.32c-17.4-80.78-21.29-217.42-21.32-218.79l-.02-.61h-8.68v121.8c.05.77,4.49,77.54,8.87,100.73.11.68,11.48,68.09,18.4,97,.04.1.77,1.84,2.15,4.94Z"/>
    </g>
    <path class="cls-5" d="M283.45,43.56h-17.91c-2.5,0-4.53-2.03-4.53-4.53v-9c0-2.5,2.03-4.53,4.53-4.53h17.91c2.5,0,4.53,2.03,4.53,4.53v9c0,2.5-2.03,4.53-4.53,4.53ZM265.54,26.76c-1.8,0-3.27,1.47-3.27,3.27v9c0,1.8,1.47,3.27,3.27,3.27h17.91c1.8,0,3.27-1.47,3.27-3.27v-9c0-1.8-1.47-3.27-3.27-3.27h-17.91Z"/>
    <rect class="cls-5" x="261.64" y="31.73" width="25.71" height="5.6"/>
    <path class="cls-5" d="M282.05,26.76h-15.11l.03-.66c.12-2.59,2.23-4.61,4.81-4.61h5.44c2.58,0,4.69,2.02,4.81,4.61l.03.66ZM268.31,25.51h12.36c-.37-1.59-1.78-2.75-3.46-2.75h-5.44c-1.68,0-3.09,1.16-3.46,2.75Z"/>
    <polygon class="cls-5" points="275.31 0 274.49 0 273.68 0 271.77 22.13 274.49 22.13 274.49 22.13 277.21 22.13 275.31 0"/>
  </g>
  <path class="cls-12" d="M515.95,180.02c0-5.44-4.41-9.84-9.84-9.84h-11.82c-5.44,0-9.84,4.41-9.84,9.84s4.41,9.84,9.84,9.84h11.82c5.44,0,9.84-4.41,9.84-9.84Z"/>
  <path class="cls-12" d="M134.58,143.86h-44.05c-4.23,0-7.66-3.43-7.66-7.66h0c0-4.23,3.43-7.66,7.66-7.66h44.05c4.23,0,7.66,3.43,7.66,7.66h0c0,4.23-3.43,7.66-7.66,7.66Z"/>
  <polygon class="cls-6" points="103.25 331.28 98.63 333.47 96.44 338.09 94.19 333.54 89.63 331.28 94.36 329.2 96.44 324.47 98.76 328.97 103.25 331.28"/>
  <polygon class="cls-6" points="415.13 339.61 410.52 341.8 408.32 346.42 406.08 341.87 401.51 339.61 406.25 337.53 408.32 332.8 410.65 337.3 415.13 339.61"/>
  <polygon class="cls-6" points="317.58 199.28 315.21 200.4 314.08 202.78 312.93 200.44 310.58 199.28 313.02 198.21 314.08 195.78 315.28 198.09 317.58 199.28"/>
  <polygon class="cls-6" points="258.56 143.86 256.19 144.99 255.06 147.36 253.9 145.02 251.56 143.86 253.99 142.79 255.06 140.36 256.26 142.67 258.56 143.86"/>
  <polygon class="cls-6" points="187.97 285.4 184.89 286.86 183.43 289.93 181.93 286.9 178.9 285.4 182.05 284.01 183.43 280.86 184.98 283.86 187.97 285.4"/>
  <polygon class="cls-6" points="229.94 185.03 227.87 186.02 226.88 188.1 225.86 186.05 223.81 185.03 225.94 184.1 226.88 181.97 227.92 183.99 229.94 185.03"/>
  <polygon class="cls-6" points="168.93 352.35 166.85 353.34 165.87 355.42 164.85 353.37 162.8 352.35 164.93 351.42 165.87 349.29 166.91 351.31 168.93 352.35"/>
  <polygon class="cls-6" points="145.38 194.07 143.3 195.06 142.31 197.14 141.3 195.09 139.24 194.07 141.38 193.14 142.31 191.01 143.36 193.03 145.38 194.07"/>
  <polygon class="cls-6" points="380.84 171.47 378.77 172.46 377.78 174.53 376.76 172.49 374.71 171.47 376.84 170.53 377.78 168.4 378.82 170.43 380.84 171.47"/>
  <polygon class="cls-6" points="230.06 325.58 226.48 327.29 224.77 330.87 223.03 327.34 219.49 325.58 223.16 323.97 224.77 320.3 226.58 323.79 230.06 325.58"/>
  <polygon class="cls-6" points="388.5 267.6 384.54 269.48 382.65 273.44 380.72 269.54 376.81 267.6 380.87 265.82 382.65 261.75 384.65 265.62 388.5 267.6"/>
</svg>