<?xml version="1.0" encoding="UTF-8"?>
<svg xmlns="http://www.w3.org/2000/svg" viewBox="0 0 2511 1593.05">
  <defs>
    <style>
      .cls-1 {
        fill: #ffcf57;
      }

      .cls-1, .cls-2, .cls-3, .cls-4, .cls-5, .cls-6 {
        stroke-width: 0px;
      }

      .cls-2 {
        fill: #9b2800;
      }

      .cls-3 {
        fill: #dd5e00;
      }

      .cls-4 {
        fill: #d97a22;
      }

      .cls-5 {
        fill: #fff;
        opacity: 0;
      }

      .cls-6 {
        fill: #efa726;
      }
    </style>
  </defs>
  <g id="Bg">
    <rect class="cls-5" width="2511" height="1593.05"/>
  </g>
  <g id="Layer_1" data-name="Layer 1">
    <g>
      <g>
        <polygon class="cls-1" points="1234.16 265.39 313.88 1388.78 1620.21 1388.78 1234.16 265.39"/>
        <path class="cls-6" d="M519.21,1388.78s162.32-28.57,463.64-340.28c301.31-311.71,364.62-455.77,364.62-455.77l272.74,796.05H519.21Z"/>
        <g>
          <path class="cls-4" d="M1214.63,1002.58c4.77-18.9,5.61-27.81,25.07-36.17,21.15-9.07,43.62-3.89,65.77-7.19,24.94-3.71,45.59-10.36,65.7-25.74,10.87-8.31,27.96-28.59,42.02-29.93,20.35-1.94,57.36,72.95,43,92.78-9.24,12.77-36.41,10.72-48.96,10.72-26.23,0-51.94,1.49-78.13,1.49-29.53,0-58.08,1.29-87.21,4.52-4.1.46-18.32,5.15-21.61,3.06-6.11-3.87-.76-14.91-5.65-13.56Z"/>
          <path class="cls-4" d="M798.41,1016.03c-6.64-16.26,12.3-49.22,23.75-60.65,11.6-11.58,19.76-10.28,33.05-2.48,49.07,28.79,96.17,16.66,150.17,16.8,18.76.05,46.74,5.75,62.92-6.11,13.98-10.25,22.89-27.48,37.44-38.43,16.29-12.26,46.67-39.19,66.62-16.47,17.55,19.98,12.22,79.2,10.81,105.63-26.8,3.37-49.38,5.57-76.85-.86-31.45-7.36-63.62-7.05-94.87.75-23.16,5.78-46.22,5.21-69.56,8.14-20.28,2.55-41.04,7.17-61.48,7.21-28.88.06-54.12-21.15-83.1-13.41,1.36-.39,2.67-.93,1.1-.11Z"/>
          <path class="cls-4" d="M959.5,784.95c-7.23,23.71-26.51,52.39-5.32,70.3,21.61,18.26,51.09,26.68,77.48,32.46,27.75,6.08,51.1-.1,78.45-5.23,34.82-6.54,71-6.98,106.24-7.84,22.43-.55,43.75,2.29,65.6,4.14,25.68,2.18,27.06-18.12,21.33-40.69-3.66-14.44-7.42-36.9-14.19-49.93-7.44-14.32-14.42-11.67-28.89-6.23-45.83,17.25-89.94,18.59-138.52,15.28-26.79-1.83-52.67,2.06-78.7-6.24-17-5.43-31.06-10.31-49.15-10.5-17.96-.18-35.56-6.22-34.35,4.48Z"/>
          <path class="cls-4" d="M748.69,878.52c19.31-19.29,40.98-36.28,58.43-57.61,5.19-6.35,27.58-37.13,36.78-33.29,9.47,3.95,2.52,31.27,9.85,40.02,7.97,9.51,24.89,7.25,35.29,12.36,20.66,10.14,31.33,29.95,3.53,35.9-25.91,5.54-64.11,12.38-89.83,6.77-15.84-3.46-50.85-10.65-54.06-4.15Z"/>
          <path class="cls-4" d="M642.15,1010.05c9.12-23.16,31.47-43.55,46.72-62.58,9.43-11.77,19.05-25.68,32.24-33.1,32.83-18.46,12.97,36.16,28.9,49.37,10.98,9.1,19.8,2.9,26.26,18.65,4.04,9.86,5.38,20.54.13,30.13-12.38,22.63-55.12,15.08-75.3,12.46-8.2-1.06-69.19-7.68-58.95-14.95Z"/>
          <path class="cls-4" d="M609.48,1048.91c-16.75,18.64-72.53,64.54-62.26,96.89,10.92,7.23,32.36,7.13,45.53,7.73,14.61.66,28.98-.38,42.93-4.79,13.64-4.31,23.18-12.72,38.07-11.64,34.52,2.49,69.51,8.54,104.78,10.46,31.03,1.68,91.23,23.42,108.42-15.36,4.55-10.27,5.62-36.65-1.53-45.99-7.43-9.69-20.34-6.84-30.7-7.33-34.4-1.64-62.8-12.4-95.86-1.57-26.5,8.68-40.15,2.16-66.07-3.18-20.91-4.31-41.74,7.56-61.56,2.05-1.01-8.9,3.13-26.51-3.31-32.44-9.98-9.18-22.41,7.16-18.43,5.17Z"/>
          <path class="cls-4" d="M944.73,1062.36c-12.96,11.4-29.91,55.75-31.32,74.73-1.48,19.9,11.76,19.31,28.24,19.46,18.18.17,34.97-7.36,53.15-7.5,12.46-.1,31.05,9.38,42.37,6.05,16.72-4.93,14.69-42.08,15.21-57.91.75-22.54-11.85-25.13-32.17-29.21-15.03-3.02-26.81,7.15-42.87,4.92-11.74-1.63-19.09-12.18-32.6-10.53Z"/>
          <path class="cls-4" d="M1091.04,1078.8c1.34,19.65-23.17,54.87-6.17,70.31,7.92,7.2,32.46,8.52,43.14,9.23,14.99,1,30.4-5,45.76-5.97,23.61-1.49,45.31,1.91,68.43,4.84,16.29,2.07,23.58-8.04,26.31-25.38,1.6-10.18.58-50.5-9.26-56.78-10.96-7-29.59,6.37-38.86,10.53-13.99,6.27-31.3,10.12-46.51,6.74-18.47-4.1-33.25-10.53-52.79-10.53-21.79,0-26.85-.47-30.07-2.99Z"/>
          <path class="cls-4" d="M1289.92,1083.29c-5.85-13.18,46.29-6.18,54.09-4.48,22.1,4.8,37.89,18.9,61.44,21,15.46,1.38,40.53,4.13,36.22-21.45-2.2-13.05-20.5-20.69,2.66-27.69,7.65-2.31,37.91-3.83,44.46,1.1,9.48,7.14,16.69,46.61,18.81,59.26,5.08,30.36-6.58,35.46-33.78,36.53-50.62,2.01-101.31-3.54-151.9-4.54-22.78-.45-46.86,11.51-47.66-22.11-.39-16.29,5.84-26.2,15.66-37.62Z"/>
          <path class="cls-4" d="M1320.32,805.87c0,13.59-6.58,52.87,5.66,61.16,4.52,3.07,27.59-.55,34.22.12,26.08,2.62,56.27,10.22,48.84-28.88-1.63-8.59-10.74-44.61-19.12-47.49-9.85-3.38-16.56,13.19-21.88,18-18.84,17.04-36.98-14.76-47.73-2.91Z"/>
          <path class="cls-4" d="M1259.23,741.6c24.28-5.17,54.6-10.32,79.15-10.54,12.52-.11,26.18,4.61,38.57,2.83,2.38-13.59-10.54-46.27-22.58-53.19-12.9-7.42-33.05,7.69-48.14,10.09-12.04,1.91-39.63-2.61-47.59,6.81-13.75,16.29,4.71,36.07.59,43.99Z"/>
          <path class="cls-4" d="M1195.31,738.61c-36.8,8.73-69.37-1.11-105.26-1.49-21.95-.24-41.95,11.42-63.56,8.78-1.05-10.93,8.59-37.97,16.03-45.97,9.92-10.68,18.08-3.95,28.86,5.74,15.09,13.56,20.93,17.79,41.16,18.01,18.11.2,34.82,2.56,52.7,4.18,22.71,2.06,21.48-8.49,32.92-24.46,9.54-13.31,15.42-7.98,22.37,6.46,3.91,8.11,11.03,28.78,5.82,38.09-10.12,18.09-28.2-.96-31.04-9.33Z"/>
          <path class="cls-4" d="M923.98,755.05c10.69-7.42,23.33-24.75,24.12-38.82,1.01-18.17-8.78-13.84-19.78-22.47-7.13-5.59-2.36-11.37-13.56-10.4-9.69.84-25.72,18.67-32.29,25.57-12.76,13.4-43.21,38.71-10.84,43.16,16.57,2.28,52.17,9.87,52.36,2.96Z"/>
          <path class="cls-4" d="M949.55,617.54c-7.7,9.44-19.53,25.42-18.25,38.63,15.9.99,33.87,2.65,49.45,2.47,12.31-.14,12.95-5.93,24.19-11.84,9.72-5.11,21.62-3.99,31.98-5.34,6.69-.88,14.28-2.86,20.55-3.02,5.77-.15,11.58,3.29,17.51,3.09,9.27-.31,10.88-4.27,19.11-7.69,12.09-5.02,21.6-4.58,33.29-1.02,5.05,1.54,14.16,8.95,18.14,9.44,10.57,1.3,29.89-12.65,40.89-15.52,5.44,4.77,18.44,4.12,25.93,6.89,22.32,8.25,35.53,18.86,60.64,16.12,16.38-1.79,34.95-6.28,51.43-3.66,12.8,2.03,26.53,9.83,24.49-14.81-2.89-34.95-70.95-20.99-91.01-21.19-67.41-.69-135.38-1.5-203.35-1.49-24.34,0-48.78,2.69-72.72.04-9.66-1.07-8.84-2.17-18.64,1.42-9.41,3.44-23.17,19.84-13.64,7.51Z"/>
          <path class="cls-4" d="M502.94,1186.42c-18.68,6.51-39.17,34.01-54.15,48.01-12.45,11.63-25.46,23.29-35.26,37.52-3.14,4.55-13.87,18.72-12.58,25.07,2.72,13.3,30.88,7.59,41.37,6.39,37.56-4.29,69.63-9.7,107.18-3.69,9.91,1.59,22.27,3.65,31.16-1.07,13.78-7.32,22.79-29.35,21.75-44.96-2.12-32.07-35.32-6.86-52.45-9.18,1.11-30.22-26.64-10.11-45.41-7.51,4.13-14.59,33.51-19.57,25.31-43.75-7.05-20.79-20.74-5.08-26.92-6.84Z"/>
          <path class="cls-4" d="M683.35,1186.42c.12,33.85-35.08,58.97-38.54,92.62-1.97,19.14,4.2,19.07,22.45,19.47,18.72.41,35.63-8.99,53.49-8.99,11.67,0,21.74,7.56,33.61,7.49,13.34-.09,73.28-9.2,54.08-36.19-3.69-5.18-8.51-4.34-13.71-5.99-9.96-3.16-19.2-6.92-28.97-10.23-19.65-6.66-20.98-8.67-24.23-31.32-2.53-17.63-10.69-17.49-27.8-23.33-15.89-5.42-24.54-3.49-30.37-3.54Z"/>
          <path class="cls-4" d="M858.07,1205.85c.08,18.96-18.33,34.72-15.57,53.01,2.32,15.35,17.92,21.39,29.76,26.25,9.37,3.84,18.88,7.06,28.74,9.26,16.96,3.8,32.37-2.67,49.35-1.02,19.71,1.91,42.93,6.81,60.81-7.12,21.2-16.51,22.94-71.06,17.11-95.15-19.33-3.06-26.68,14.4-39.59,25.01-14.25,11.71-27.32,7.55-44.27,3.56-18.09-4.26-37.02-7.97-55.06-10.87-7.76-1.25-23.24-1.86-31.28-2.92Z"/>
          <path class="cls-4" d="M1076.84,1192.4c0,30.61,11.24,55.04,14.38,84.46,1.83,17.18-2.66,20.68,12.52,23.16,18.64,3.04,42.41-3.02,61.7-2.99,24.48.05,49.05,1.35,73.31,1.38,30.84.04,24.07-34.87,2.16-44.72-11.47-5.15-24.28-4.22-36.5-5.95-23.1-3.26-38.58-13.49-55.23-30.33-13.96-14.13-32.56-24.61-51.57-30.12-3.92-1.14-14.75-5.2-18.52-3.8-7.46,2.76-11.39,9.92-2.26,8.92Z"/>
          <path class="cls-4" d="M1180.54,1195.39c4.24,13.63,24.31,14.47,35.29,17.91,18.74,5.87,33.8,14.82,50.23,25.47,10.3,6.68,15.95,10.37,22.45,20.89,3.82,6.17,5.06,13.15,11.46,16.89,15.32,8.96,44.2,3.25,61.42,7.33,16.46,3.9,30.67,8.4,47.95,8.67,12.08.18,17.79,1.1,23.52-10.52,6.2-12.56,3.32-43.95-3.91-55.89-7.93-13.1-34.36-12.27-49.25-13.75-27.77-2.76-59.99,7.4-86.17.26-21.59-5.88-37.17-15.22-60.4-15.75-10.44-.24-21.47-2.94-31.29-3.13-12.02-.24-24.67,15.28-21.31,1.63Z"/>
          <path class="cls-4" d="M1466.07,1253.68c-12.67,53.17,81.44,42.7,107.74,41.62.77-8.96,2.97-17.76,3.82-26.76,2.14-22.74-7.4-24.92-18.91-40.17-9.76-12.93-12.24-24.74-15.94-39.16-2.63-10.24-2.43-13.98-14.13-11.87-41.85,7.56,4.15,58.52-5.95,75.35-9.57,15.96-40.97-3.46-56.63.99Z"/>
          <path class="cls-4" d="M333.89,1391.19c15.54-14.95,28.85-36.84,47.58-46.77,20.1-10.65,41.11-10.4,62.98-11.41,49.22-2.28,102.5,15.37,151,.65,22.66-6.88,47.13-10.6,69.98-2.66,15.7,5.46,26.55,10.45,43.73,6.57,16.75-3.78,29.15-15.6,46.33-18.53,30.57-5.21,64.33-3.76,93.22,8.63,19.96,8.56,33.22,19.81,56.19,20.26,21.03.41,42.29-4.99,63.23-6.75,18.38-1.55,39.31-6.44,56.86,2.39,20.89,10.51,26.7,33.87,51.97,32.72,31.3-1.44,59.01-16.94,90.57-12.1,29.18,4.47,56.64,20.26,86.29,6.65,9.05-4.16,15.64-12.01,24.08-17.08,15.47-9.29,33.53-12.17,51-14.21,24.36-2.84,42.59-2.44,64.99,8.04,8.91,4.17,9.88,4.55,18.21,3.88,33.91-2.73,67.28-12.66,102.17-11.12,15.52.68,41.11-2.99,52.99,6.99,8.95,7.51,16.44,18.52,25.21,25.48-17.83,11.71-43.77,7.35-63.61,8.25-21.99.99-43.91-.46-65.81-3.66-45.29-6.62-84.13-.27-129.48,3.32-31.2,2.47-63.48,7.04-94.73,7.48-16.89.24-32.05-3.81-48.58-5.68-18.4-2.09-37.14.71-55.51,1.2-37.32.99-74.83,1.41-112.09,1.49-20.8.04-40.29-6.02-60.83-6.05-12.95-.02-26.01,3.14-38.91,2.83-13.95-.34-27.28-5.94-41-8.73-51.87-10.55-102.87-6.3-155.06-2.92-54.57,3.53-108.46,7.83-163.36,10.06-34.03,1.38-67.35,2.72-101.33-.79-22.97-2.37-46.97-4.53-69.76-1.46-22.18,2.99-41.9,13.72-63.92,15.77-1.72-2.05-2.75-4.46,5.43-2.73Z"/>
        </g>
        <polygon class="cls-4" points="2197.12 1382.6 1234.16 265.39 1620.21 1388.78 2197.12 1382.6"/>
        <path class="cls-2" d="M2197.12,1382.6s-276.8-104.74-492.24-309.54c-215.44-204.79-301.6-337.75-301.6-337.75l216.92,653.46,576.92-6.17Z"/>
        <g>
          <g>
            <polygon class="cls-1" points="1231.79 199.13 904.02 598.15 1369.3 598.15 1231.79 199.13"/>
            <polygon class="cls-3" points="1574.78 598.15 1231.79 199.13 1369.3 598.15 1574.78 598.15"/>
            <polygon class="cls-2" points="1317.12 430.69 1528.26 599.25 1574.78 598.15 1321.79 303.54 1305.39 392.9 1317.12 430.69"/>
          </g>
          <path class="cls-6" d="M1003.44,598.15c-.8-2.52,20.78-82.69,71.94-94.46,51.16-11.77,75.93,15.98,110.3-28.6,34.37-44.57-37.43-152.62,7.99-161.47,64.74-12.62,50.36-78.9,50.36-78.9l125.27,363.44h-365.86Z"/>
          <polygon class="cls-2" points="904.02 598.15 937.5 621.44 1549.39 621.44 1574.78 598.15 904.02 598.15"/>
        </g>
        <polygon class="cls-2" points="374.83 1310.37 2137.44 1310.37 2124.75 1297.43 387.38 1297.43 374.83 1310.37"/>
        <polygon class="cls-2" points="495.38 1168.62 2011.21 1168.62 2000.29 1151.25 506.17 1151.25 495.38 1168.62"/>
        <polygon class="cls-2" points="605.39 1033.77 1896.46 1033.77 1887.16 1016.4 614.57 1016.4 605.39 1033.77"/>
        <polygon class="cls-2" points="722.07 891.17 1773.22 891.17 1758.75 875.46 735.24 875.46 722.07 891.17"/>
        <polygon class="cls-2" points="828.68 763.36 1663.38 763.36 1650.61 749.89 834.62 749.89 828.68 763.36"/>
        <polygon class="cls-2" points="908.09 665.47 1579 665.47 1566.8 652.32 912.83 652.32 908.09 665.47"/>
        <polygon class="cls-2" points="658.76 1168.62 605.39 1303.41 620.27 1303.41 670.79 1159.27 658.76 1168.62"/>
        <polygon class="cls-2" points="916.15 1024.42 876.46 1151.92 890.9 1159.27 924.57 1033.77 916.15 1024.42"/>
        <polygon class="cls-2" points="953.68 756.28 913.99 883.78 924.57 884.69 959.61 758.75 953.68 756.28"/>
        <polygon class="cls-2" points="1040.04 660.79 1017.5 756.28 1028.35 753.58 1044.76 662.79 1040.04 660.79"/>
        <polygon class="cls-2" points="827.22 887.43 776.02 1019.78 783.01 1026.23 835.75 885.48 827.22 887.43"/>
        <polygon class="cls-2" points="1253.3 1024.42 1273.77 1157.3 1289.02 1157.3 1266.16 1029.29 1253.3 1024.42"/>
        <polygon class="cls-2" points="1287.53 751.81 1308.01 884.69 1323.25 884.69 1300.4 756.68 1287.53 751.81"/>
        <polygon class="cls-2" points="1178.22 883.33 1198.7 1016.21 1213.94 1024.42 1182.59 884.99 1178.22 883.33"/>
        <polygon class="cls-2" points="1218.28 657.56 1241.43 758.45 1249.66 756.28 1222.66 659.22 1218.28 657.56"/>
        <path class="cls-2" d="M1048.46,1159.27v144.14s15.63,5.75,15.63,0v-144.14h-15.63Z"/>
        <path class="cls-2" d="M835.75,1303.41l-7.82,87.81s15.64,5.75,15.64,0c0-5.75,7.82-87.81,7.82-87.81h-15.64Z"/>
        <path class="cls-2" d="M1305.89,1305.96l25.44,85.26s15.64,5.75,15.64,0c0-5.75-25.45-85.26-25.45-85.26h-15.63Z"/>
        <polygon class="cls-2" points="1417.71 1168.62 1450.39 1301.85 1471.21 1308.81 1424.93 1159.27 1417.71 1168.62"/>
        <polygon class="cls-2" points="825.66 899.86 849.51 890.23 835.75 882.88 825.66 899.86"/>
        <path class="cls-2" d="M797.04,1022.12c-1.35-1.43-7.14-22.94-7.14-22.94l-10.05,18.2,17.2,4.74Z"/>
        <path class="cls-2" d="M738.45,890.23c-1.02,1.3-28.03,14.49-28.03,14.49l16.38-22.6,19.45-21.13-7.79,29.24Z"/>
      </g>
      <path class="cls-2" d="M1168.05,888.02c10.68,1.3,13.66,20.36,16.61,28.6,4.74-10.55,8.37-18.41,15.94-26.95-11.35,1.3-22.51-6.62-33.54-7.21-.85,3.59.73,6.78.99,5.56Z"/>
      <path class="cls-2" d="M1286.07,877.29c5.65,2.86,12.87-9.99,16.11-13.88,2.2-2.64,5.13-4.83,9.63-4.2,4.78.67,4.45,4.07,6.95,7.91,3.01,4.63,9.33,6.73,11.78,11.21-8.43.35-16.65,2.69-25.02,3.39-6.75.56-13.71-1.74-20.48-1.69.12-.56.38-1.03,1.02-2.74Z"/>
      <path class="cls-2" d="M1266.76,756.51c-.11,7.12,15.66,11.93,20.37,17.05,3.2,3.49,4.19,9.07,7.38,12.33,3.49-12.99,14.24-21.62,26.29-24.89-6.4.4-12.9-1.62-19.22-2.2-6.01-.55-12.23-1.23-18.17-2.27-2.57-.45-18.17-4.39-16.64-.01Z"/>
      <path class="cls-2" d="M1207.75,661.68c-1.09,2.9,13.6,12.8,16.43,16.94,4.24,6.22,5.42,14.42,7.05,22.14,2.31,10.87,5.14,24.04,4.41,35.17-.25,3.8-.89,6.32-4.16,8.6-2.12,1.48-7.77,1.53-8.72,4.62-2.52,8.22,21.77,3.92,25.82,3.39,5.36-.7,20.57,1.94,10.26-5.46-8.33-5.98-15.99-8.83-18.38-19.91-1.34-6.2,2.37-12.32,1.09-18.09-.97-4.39-4.65-4.56-6.43-7.86-1.3-2.41-1.32-6.83-2.03-9.6-.9-3.5-2.3-7.16-2.28-10.71.04-6.65,5.69-10.92,6.38-17.03-2.52-.84-5.38-.25-8.14-.5-4.22-.37-8.22-1.92-12.47-2.32-3.63-.35-10.29.53-8.83.63Z"/>
      <path class="cls-2" d="M1045.21,757.64c-2.96-1.56-15.93-14.28-7.51-15.77-3.37-5.8-8.49-8.24-6.33-16.51,2.19-8.36,6.59-16.07,8.74-24.66,1.75-6.97,2.79-14.69,4.87-21.44,2.52-8.19,12.15-9.93,14.13-16.9-3.44-1.91-10,.06-13.93-.11-4.71-.2-9-.85-13.7-.84-5.18.02-9.95.19-15.2.93,2.32,4.75,9.99,7.87,13.37,12.9,4.15,6.19,6.94,9.29,5.9,17.04-1.68,12.51-5.7,25.89-9.64,37.83-2.05,6.21-5.03,11.6-9.15,16.24-2.61,2.94-6.42,5.18-8.38,8.48,5.55,2.03,12.5-1.38,18.53-1.14,6.39.26,11.97.43,17.79,2.88-.77,1.53-2.52,2.79.5,1.07Z"/>
      <path class="cls-2" d="M950.8,783.6c5.89-8.06,13.69-17.05,23.61-19.27-5.23-6.32-19.11-4.86-26.26-4.99-5.65-.1-11.21-1.79-16.59-2.18-.18,3.76,7.27,5.13,9.68,7.74,2.73,2.95,3.13,5.31,3.66,9.12.31,2.25,2.53,13.48,5.9,9.58Z"/>
      <path class="cls-2" d="M948.12,882.94c-8.34-3.61-15.59-4.74-17.74-15.27-.68-3.33-.4-6.67-.58-10.04-6.81-1.09-15.81,8.34-20.84,12.64-3.09,2.65-5.37,4.9-7.87,8.16,5.78,3.29,12.61,1.79,18.85,2.79,5.34.86,9.91,2.23,15.31,2.28,5.59.05,10.17-1.62,12.88-.57Z"/>
      <path class="cls-2" d="M646.54,1297.07c-3.42.89-10.74-16.5-11.62-21.58-1.04-5.98.16-16.87,2.19-22.45,4.32-11.88,12.68-15.61,11.62-28.82-.83-10.3,6.65-19.68,10.97-28.76,6.02-12.63,18.14-18.88,25.14-30.65-4.25.19-7.83-2.5-11.98-2.99-3.12-.37-5.84.66-8.9.92-5.91.51-10.33-1.25-15.82-1.53-8.67-.44-16.1,5.13-24.83,5.04,6.76,7.23,27.91,6.33,29.25,20.76.69,7.45-9.77,20.66-12.7,27.53-9.25,21.67-11.54,53.62-30.2,68.28-8.62,6.76-17.88,9.03-25.07,18.04,5.42,3.93,17.22.65,23.3.6,12.14-.08,24.98,3.18,37.18,3.44,1.31-4.66.43-9.63,1.57-14.18-.71-.28-1.43-.56-.09,6.35Z"/>
      <path class="cls-2" d="M799.69,1305.7c7.99,8.3,22.17,8.73,29.01,17.26,3.57,4.46,2.67,11.66,3.95,17.21,5.59-6.97,12.83-13.18,18.7-20.08,4.68-5.5,11.44-12.88,18.71-13.79-6.72-8.84-36.62-4.23-46.57-3.31-5.83.54-21.79.03-24.58,6.35.76,1.18,1.07.23.78-3.63Z"/>
      <path class="cls-2" d="M1399.98,1166.14c11.4.44,21.6,17.79,27.87,25.83,3.03-8.8,15.84-18.31,15.12-27.88-9.07-.89-18.27,1.51-27.44.77-5.13-.41-10.37-1.23-15.5-.75.33.75.82,1.36-.05,2.03Z"/>
    </g>
  </g>
</svg>