<?xml version="1.0" encoding="UTF-8"?>
<svg xmlns="http://www.w3.org/2000/svg" viewBox="0 0 483.33 423.84">
  <defs>
    <style>
      .cls-1 {
        fill: #ebebeb;
        fill-rule: evenodd;
      }

      .cls-1, .cls-2, .cls-3, .cls-4, .cls-5, .cls-6, .cls-7, .cls-8, .cls-9, .cls-10 {
        stroke-width: 0px;
      }

      .cls-11, .cls-6 {
        opacity: .6;
      }

      .cls-2 {
        opacity: .9;
      }

      .cls-2, .cls-6, .cls-10 {
        fill: #fff;
      }

      .cls-4 {
        fill: #e0e0e0;
      }

      .cls-5 {
        fill: #f5f5f5;
      }

      .cls-12 {
        opacity: .4;
      }

      .cls-13, .cls-10 {
        opacity: .3;
      }

      .cls-7 {
        fill: #263238;
      }

      .cls-14 {
        opacity: .1;
      }

      .cls-8 {
        fill: #ff725e;
      }

      .cls-9 {
        fill: #455a64;
      }
    </style>
  </defs>
  <g id="Background_Complete" data-name="Background Complete">
    <path class="cls-1" d="M343.21,213.47c-4.7-10.14-16.04-16.78-27.18-15.92-3.07-6.59-10.44-10.92-17.69-10.39-7.26.52-13.92,5.87-16.01,12.83-4.67-6.29-14.1-8.47-21.06-4.88,4.54-13.98-8.28-30.51-22.95-29.6-14.67.91-25.34,18.91-19.1,32.21-2.27-2.07-5.02-3.56-7.97-4.41.18-1.75.03-3.52-.5-5.21-1.85-5.87-8.09-10.03-14.22-9.47,2.14-8.78,1.62-18.72-3.78-25.96-5.4-7.24-16.54-10.44-23.92-5.23,2-8.2-1-17.41-7.43-22.87s-16.01-6.91-23.77-3.6l5.8,22.99c-3.31.15-6.58.85-9.64,2.14l9.89,75.7,194.13,22.66c7.86-7.94,10.13-20.89,5.43-31.03Z"/>
    <path class="cls-5" d="M169.77,58.37c-6.76-3.69-16.01-1.98-21,3.89.44-4.51-2.17-9.17-6.26-11.13s-9.36-1.11-12.61,2.05c-.53-17.24-17.81-32.03-34.92-29.89-17.11,2.13-30.23,20.72-26.51,37.55-12.15-1.17-24.46,7.79-27.07,19.72l136.45-2.42c2.24-7.37-1.32-16.08-8.09-19.77Z"/>
    <path class="cls-5" d="M224.38,25.53c-2.53-1.38-5.98-.74-7.85,1.45.17-1.69-.81-3.42-2.34-4.16-1.53-.73-3.5-.41-4.71.77-.2-6.44-6.65-11.97-13.05-11.17-6.39.8-11.29,7.74-9.9,14.03-4.54-.44-9.14,2.91-10.12,7.37l50.98-.9c.84-2.76-.49-6.01-3.02-7.39Z"/>
    <path class="cls-5" d="M267.6,98.21c-3.51-1.92-8.31-1.03-10.9,2.02.23-2.34-1.13-4.76-3.25-5.78s-4.86-.58-6.54,1.07c-.27-8.95-9.24-16.63-18.13-15.52-8.88,1.11-15.69,10.75-13.76,19.5-6.31-.61-12.7,4.05-14.06,10.24l70.84-1.26c1.16-3.83-.69-8.35-4.2-10.27Z"/>
    <path class="cls-5" d="M446.13,48.32c-2.59-1.41-6.13-.76-8.04,1.49.17-1.73-.83-3.51-2.4-4.26s-3.58-.42-4.83.79c-.2-6.6-6.82-12.26-13.37-11.44-6.55.82-11.57,7.93-10.15,14.38-4.65-.45-9.36,2.98-10.36,7.55l52.24-.93c.86-2.82-.51-6.16-3.1-7.57Z"/>
    <g>
      <path class="cls-5" d="M280.99,66.52s9.48-.44,11.26-2.22,1.93-4.3,1.93-4.3c0,0,1.78-1.48,2.22-1.93.44-.44,1.78-2.22,1.78-2.22l2.96-1.48,10.67,3.11,5.93,4.59v-1.63s3.7.59,4.59,4.15-1.04,7.41,0,7.85c1.04.44,2.96,2.52,2.96,2.52,0,0,.74,3.11,0,4.44s1.19,4.3,1.19,4.3h3.11s-1.04,2.07,0,2.37c1.04.3,1.78,2.52,2.37,2.22l.59-.3,4.15,4,.74,2.52s6.52,1.04,6.82,2.07c.3,1.04,2.96,5.48,2.96,5.48l2.37,1.78,3.11,2.22s2.81,1.78,3.41,2.67c.59.89,1.93,3.85,1.93,3.85l2.67,1.04,2.37,1.19,2.82,2.85h3.7s2.52-1.74,3.7,0c1.19,1.74,2.22,0,2.22,0l1.04-.63,1.04,1.4,4.15,5.41v2.37h3.85l1.19,1.63-1.19,2.67h6.22s1.33.59,1.78,0c.44-.59,0-1.63,0-1.63l2.96,5.04-1.04,3.7,2.37,1.93,2.96,1.78,1.19,2.67,2.52-.89,1.63-1.63,1.63,1.63s1.33,1.33,1.04,1.78c-.3.44,1.04,3.85,1.04,3.85l1.78,3.41,1.63,2.81.74,2.22.89,4.89,1.63,3.26v2.22h-3.41l-1.19,2.22-.74,1.78,1.19,1.33-1.48,4-.59,1.04h-1.48l-.89,1.33.44,1.78.3,2.52,2.67,2.52h1.93l2.07-.74,1.19-.3,1.78-4.89,1.93-2.52,3.41-1.78v-8.45l4.59-2.81,3.26.3,1.19-2.07v-4.59l-1.33-1.78.59-2.22-2.96-2.96-2.37-1.93h-1.93c-.59,0-2.67-.89-2.67-.89l.15-3.26,2.07-2.07-.74-2.96,4.3-7.11,2.52-1.33,2.37.15v2.37l2.67,2.22,2.81.15,4.59,1.48,2.07,3.41v3.26l3.56,2.07h3.26v-3.56l2.96-3.85-2.22-3.56-3.41-2.52-2.82-2.67-.74-2.07-2.07-.15-3.7-1.93-4.15-2.52-2.67-2.67-4.89-2.81-8.74-2.96s-7.11-2.96-7.11-3.41-.44-3.11-.44-3.11l3.11-2.07,1.33-2.52-1.93-2.67-2.96.15-5.19,1.33h-5.63l-3.11-.74-2.96-2.07-2.52-1.93s.15-1.33-.3-1.33-2.22-.74-2.22-.74l-7.7-7.26-1.19-5.04-1.48-4.59-.89-2.67-3.26-6.67-2.22-1.78-2.22-.59s-2.81-.89-2.52-1.33c.3-.44-5.48-4.59-5.48-4.59l-2.07-.44-2.07-1.93-1.33-2.67s-2.52-7.41-2.52-7.85-.15-3.7.3-3.7h2.37l.3-2.52-1.33-1.63h-1.48l.3-2.07-.3-2.37,1.78-2.37v-1.93h4.89l3.99-1.33,1.34-.74,1.33-1.04h2.52l3.85-2.52.45-3.34.15-1.11h-2.22s-.59-.89.15-1.33,2.07-1.33,2.37-1.78c.3-.44,0-1.78,0-1.78l-2.96-.59c0-1.33.3-2.52.89-2.67.59-.15,2.37-1.04,2.37-1.04h1.04s-.15-1.48-.59-1.48-1.19-.74-1.19-.74h-6.82l-4.44-1.48h-1.48l-2.96-1.48-3.41-.74-1.78-1.63-.74-2.82,1.19-1.78-.74-1.04-6.96,2.96-4.89-1.04s-2.07.3-2.52.59-1.93,1.48-1.93,1.48l-1.19,1.33-.44,1.33-1.63.15-2.07-.44c-.59-1.48-1.33-1.48-1.78-1.48s-2.52,1.04-2.52,1.04l-.74,1.63c-1.33,1.19-1.33,2.07-.89,2.22s1.19,1.19,1.19,1.19l-1.04,1.19-1.78-.89c-1.19-1.04-2.37-.15-2.37-.15l-1.04,1.33.15,1.63,1.19.44-.44,1.48v1.19l-1.19-1.63-.59-1.19-1.78-.44-1.48,1.04-1.33.74-1.63-.44-1.04-2.07c-1.19-.44.15-1.33-1.19-.44-1.33.89-2.52,2.52-2.52,2.52,0,0,1.04.74.44,1.63-.59.89-1.78,2.07-2.07,2.67-.3.59-1.44.83-1.63,1.33-.44,1.19,0,2.52,0,2.52,0,0,.89.3.44,1.19-.44.89-1.19,2.07-1.33,1.48-.15-.59-1.63-1.78-1.48-2.22.15-.44,0-1.63,0-1.63-.59-1.04.59-1.48-.15-2.07-.74-.59-.89-.89-1.48-1.04-.59-.15-3.85,0-3.85-.59s-2.37-3.85-2.37-3.85c0,0-.15.59-.89,1.04s-3.26,2.07-3.26,2.07l-.3,1.33s1.93,1.93,1.48,2.37c-.44.44-5.63,1.78-5.63,1.78,0,0-1.93-.59-3.26-.74s.15-1.19-1.33-.15c-1.48,1.04.3,1.33-2.37,1.63l-2.67.3s-.44-1.78-2.81-.3l-2.37,1.48v3.26l1.63.3c.74,1.78.15,2.68.89,3.26,1.33,1.04,1.04.59,1.33,1.04.3.44.3.89.15,1.33-.15.44-.44,1.63-.44,1.63l-.59,1.04-2.96,1.78s-.89,0-1.63.3,0,4.44,0,4.44c1.78.74.3,0,1.78.74s.59-.3,1.48.74c.89,1.04.74,2.52.74,2.52l-1.63.89-1.04,3.11s-.59,1.48-.15,2.07,1.93,2.96,1.93,2.96l6.37,2.82,2.07-.44,1.33-.59s.89,1.48.44,1.93c-1.33,1.33-3.11,3.26-3.11,3.26,0,1.04.3,2.67.3,2.67Z"/>
      <path class="cls-5" d="M364,181.4s-3.59-1.05-4.43-.84c-.84.21-3.8,3.16-3.8,3.16l.84,5.06,1.48,2.32s3.53,1.69,4.3,1.48c.77-.21,3.72.02,3.72.02l2.32,1.04s.63,2.53,1.27,2.53,2.74,1.69,2.74,1.69c0,0,8.02,5.91,8.65,5.7.63-.21,2.53-.84,2.53-.84l1.9,1.9,2.32,3.59,3.59,2.53s3.8-.42,4.64,0c.84.42,2.53.84,2.53.84,0,0,2.32-1.06,2.32-2.32v-3.16s1.05-.42,1.69-1.48,1.48-.84,1.05-2.11c-.42-1.27-1.69-3.8-2.11-4.43-.42-.63-1.27-.03-1.27-2.02s-1.27-1.99-.21-3.47c1.05-1.48.42,2.53,1.69-2.32,1.27-4.85.02-3.8,2.01-5.49s3.05-2.32,3.05-2.32v-3.16c0-.63.21-1.9,0-1.9s-7.6,2.32-7.6,2.32l-1.69,1.27s-3.2-2.15-3.8-1.69c-1.9,1.48-2.74,1.9-3.59,2.32s-4.01.63-4.01.63l-2.11.21-4.64-.21-2.11.63-2.95.21s-.63-2.53-1.27-2.74-.42-.84-1.69-.84-4.22-.63-4.22-.63l-2.03,1.48"/>
      <path class="cls-4" d="M379.09,116.03c.9-1.16-.32-1.55-.39-1.87-.06-.32.45-.45.71-.58.26-.13.58-.39.58-.39l1.29-.9v-2.32s-.58-.84-.77-1.55c-.19-.71-.71-.71-1.48-1.03-.77-.32-1.03-.32-1.03-.32l-.64-1.42s-1.87-.58-2.19-.45c-.32.13,0,.26,0,.45s-1.1.71-1.1.71l-.77-.52s-.64-.97-.9-1.16c-.26-.19-1.48,0-1.48,0l-.45-.71.45-1.03s-.52-.39-.97-.64c-.45-.26-1.74-1.22-2.06-1.55s-2.32-.39-2.51-.32c-.19.06-.26-.64-.26-.64l-.06-1.22.97-.71s.13-.64.52-1.22c0,0,1.16.39,1.68.77.52.39.64.45.64.45h.71l.9-.9-2.13-3.42s-.45-.32-.77-.69l-.45-1.82.77-.64c.77-.64-.45-.84-.45-.84l-.19-.71.39-1.1s.19-.26.9-.6c.71-.35.77.22,1.16.67.39.45,1.29-.13,1.68-.26.39-.13,0-.41,0-.41,0,0-.64-2.17-.84-2.3-.19-.13-1.55-.39-1.87-.26-.32.13-.45.77-.58,1.1s-.45.39-.9.77c-.45.39-.45.06-1.35.68-.9.62-1.22-.68-2.13-.43-.9.26.32.77,0,1.1s-.84.32-1.22.64c-.39.32-.64.45-1.03.9s-.39.84-.58,1.03c-.19.19-2.32.26-2.32.26,0,0,.13.9,0,1.48-.13.58-.84.19-1.61.58-.77.39-.39-.06-.64-.58-.26-.52-.77-.71-1.16-.9-.39-.19-1.48-.77-1.48-.77l-.45-.71-.71-2.96-1.35-.77s-.77-.06-1.03.13c-.26.19-1.29.64-1.29.64,0,0-.64-.77-1.22-1.1-.58-.32-.64-1.16-.64-1.16l.64-.97s-.77-1.35-.84-1.55c-.06-.19-.58-.58-.58-.58,0,0-.71.52-1.29.71-.58.19-.06.45-.26.77-.19.32.52.77.64.9.13.13.19.39,0,.58-.19.19,0,1.29,0,1.29l-.71,1.03s-.64.26-.77.45c-.13.19-.32.52-.45.77-.13.26-.77.32-1.03.64-.26.32-.39-.19-.71,0s-.06.39-.19.64c-.13.26.9.45.9.45v1.1l-.71.58s-1.48-.06-1.68,0c-.14.05-1.33,2.19-1.92,3.27,1.29.23,4.49.84,5.75,1.52l.04-.08.07.14c.22.13.37.27.4.4.3,1.04,2.96,5.48,2.96,5.48l2.37,1.78,3.11,2.22s2.82,1.78,3.41,2.67c.11.16.24.4.39.67.1.09.17.23.2.39.62,1.2,1.33,2.79,1.33,2.79l2.67,1.04,2.37,1.19,2.82,2.85h3.7s2.52-1.74,3.7,0c1.19,1.74,2.22,0,2.22,0l.1-.06c-.04-.2-.1-.42-.19-.68-.06-.18.53-.06,1,.2l.14-.09.35.48c.37.33.77-.07.77-.07,0,0,.52-.26,1.42-1.42Z"/>
    </g>
  </g>
  <g id="Floor">
    <path class="cls-7" d="M483.33,364.13c0,.14-108.21.26-241.66.26s-241.68-.12-241.68-.26,108.18-.26,241.68-.26,241.66.12,241.66.26Z"/>
  </g>
  <g id="Coliseum">
    <g>
      <g>
        <path class="cls-8" d="M282,226.07s-.38-12.76,0-13.14c.38-.38,52.52-.78,108.05,16.8,55.54,17.58,59.32,47.43,59.32,47.43l-1.51,37.26h-156.82l-9.04-88.36Z"/>
        <g class="cls-13">
          <polygon class="cls-3" points="336.88 225.78 336.9 239.03 346.33 241.17 346.33 227.25 336.88 225.78"/>
        </g>
        <g class="cls-13">
          <polygon class="cls-3" points="386.14 237.13 390.94 238.75 390.94 251.77 386.14 250.22 386.14 237.13"/>
        </g>
        <g class="cls-13">
          <polygon class="cls-3" points="386.14 240.12 388.51 240.62 388.51 250.71 386.14 250.22 386.14 240.12"/>
        </g>
        <g class="cls-13">
          <path class="cls-3" d="M418.75,250.71c.06,0-.25,11.48-.06,11.48s4.07,2.35,4.25,2.23.23-11.89.11-11.95c-.12-.06-4.29-1.75-4.29-1.75Z"/>
        </g>
        <g class="cls-13">
          <path class="cls-3" d="M436.87,262.19v11.17l3.26,2.54s-.12-11.3,0-11.23-3.26-2.48-3.26-2.48Z"/>
        </g>
        <g class="cls-13">
          <path class="cls-3" d="M443.63,269.05c-.18.03,0,10.6,0,10.6l1.45,1.27v-10.39l-1.53-1.75"/>
        </g>
        <g class="cls-13">
          <polygon class="cls-3" points="337 228.5 336.9 239.03 343.05 240.47 343.05 229.61 337 228.5"/>
        </g>
      </g>
      <path class="cls-8" d="M313.78,268.74c.76.13,10.18-.09,10.18.53s0-21.27,0-21.27l8.78,1.15v21.51s19.58,1.35,19.2,1.22c-.38-.13.02-22.98.02-22.98l9.29,1.83v22.22l14.33,1.22c-.38-.13.19-21.19.19-21.19l7.76,2.55v19.86l12.47,2.16c.25-.89,0-18.71,0-18.71,0,0,6.49.7,6.11,1.18-.38.48.02,19.44.02,19.44,0,0,10.8,3.56,10.93,2.8.13-.76,0-17.06,0-17.06l4.84,1.66v17.69l8.14,2.93v-16.92l3.18,1.7v16.5l4.96,2.55v-15.36l4.34,2.63-.65,14.38,2.29,1.91.77-14.63s3.01,2.8,2.65,2.93c-.36.13.03,14.12.03,14.12,0,0,1.48,1.65,1.5,1.27.02-.38,0-12.98,0-12.98l1.67,1.78v13.74l2.62,3.31.69,77.88s-46.09,8.44-96.53,11.51c-50.07,3.04-40.77-125.02-40.26-125.02"/>
      <path class="cls-8" d="M396.98,324.54c-.38-.13.19-21.19.19-21.19"/>
      <path class="cls-8" d="M375.57,274.15c-.38-.13.19-21.19.19-21.19"/>
      <g class="cls-14">
        <path class="cls-3" d="M313.78,268.74c.76.13,10.18-.09,10.18.53s0-21.27,0-21.27l8.78,1.15v21.51s19.58,1.35,19.2,1.22c-.38-.13.02-22.98.02-22.98l9.29,1.83v22.22l14.33,1.22c-.38-.13.19-21.19.19-21.19l7.76,2.55v19.86l12.47,2.16c.25-.89,0-18.71,0-18.71,0,0,6.49.7,6.11,1.18-.38.48.02,19.44.02,19.44,0,0,10.8,3.56,10.93,2.8.13-.76,0-17.06,0-17.06l4.84,1.66v17.69l8.14,2.93v-16.92l3.18,1.7v16.5l4.96,2.55v-15.36l4.34,2.63-.65,14.38,2.29,1.91.77-14.63s3.01,2.8,2.65,2.93c-.36.13.03,14.12.03,14.12,0,0,1.48,1.65,1.5,1.27.02-.38,0-12.98,0-12.98l1.67,1.78v13.74l2.62,3.31.69,77.88s-46.09,8.44-96.53,11.51c-50.07,3.04-40.77-125.02-40.26-125.02"/>
      </g>
      <g class="cls-13">
        <path class="cls-3" d="M425.04,351.36c-1.25-2.27-3.19-2.59-4.43-.31-.88,1.61-1.73,4.44-1.84,9.4-.24,10.76-.07,26.69-.07,26.69l8.27-1.18v-25.22s.12-5.64-1.93-9.38Z"/>
      </g>
      <g class="cls-13">
        <path class="cls-3" d="M411.6,350.22c-1.63-2.27-4.16-2.59-5.79-.31-1.15,1.61-2.25,4.44-2.4,9.4-.31,10.76-.18,29.84-.18,29.84l10.36-1.32.54-28.23s.15-5.64-2.53-9.38Z"/>
      </g>
      <g class="cls-13">
        <path class="cls-3" d="M394.31,349.67c-1.97-2.27-5.03-2.59-6.99-.31-1.39,1.61-2.72,4.44-2.9,9.4-.37,10.76-.45,32.52-.45,32.52l13.39-1.45v-30.78s.19-5.64-3.05-9.38Z"/>
      </g>
      <g>
        <g class="cls-13">
          <path class="cls-3" d="M373.64,348.64c-2.3-2.27-5.88-2.59-8.18-.31-1.62,1.61-3.18,4.44-3.39,9.4-.44,10.76,0,35.64,0,35.64l15.13-1.43v-33.92s.22-5.64-3.57-9.38Z"/>
        </g>
        <g class="cls-13">
          <path class="cls-3" d="M373.64,348.64c-2.3-2.27-5.88-2.59-8.18-.31,0,0-.01.01-.02.02.93.3,1.82.83,2.57,1.57,3.78,3.74,3.57,9.38,3.57,9.38v33.17l5.62-.53v-33.92s.22-5.64-3.57-9.38Z"/>
        </g>
        <g class="cls-13">
          <polygon class="cls-3" points="383.97 390.34 383.97 390.34 383.97 390.34 383.97 390.34"/>
          <path class="cls-3" d="M394.31,349.67c-1.97-2.27-5.03-2.59-6.99-.31-.08.09-.15.18-.23.28.55.31,1.07.73,1.53,1.26,3.24,3.74,3.05,9.38,3.05,9.38l-.11,30.19,5.8-.63v-30.78s.19-5.64-3.05-9.38Z"/>
        </g>
        <g class="cls-11">
          <path class="cls-3" d="M434.74,351.73c-.81-2.27-2.07-2.59-2.88-.31-.57,1.61-1.12,4.44-1.19,9.4-.15,10.76-.1,24.6-.1,24.6l5.09-.78.33-23.53s.08-5.64-1.26-9.38Z"/>
        </g>
        <g class="cls-11">
          <path class="cls-3" d="M441.33,353.92c-.45-2.21-1.16-2.52-1.61-.3-.32,1.56-.63,4.31-.67,9.13-.09,10.46-.31,21.41-.31,21.41l2.83-.46.46-20.67s.04-5.48-.7-9.11Z"/>
        </g>
        <g class="cls-11">
          <path class="cls-3" d="M446.35,354.66c-.28-2.21-.71-2.52-.99-.3-.2,1.56-.38,4.31-.41,9.13-.05,10.46-.36,19.71-.36,19.71l1.66-.28.53-19.15s.03-5.48-.43-9.11Z"/>
        </g>
        <g class="cls-13">
          <path class="cls-3" d="M411.6,350.22c-1.63-2.27-4.16-2.59-5.79-.31-.06.09-.13.18-.19.28.45.31.88.73,1.26,1.26,2.68,3.74,2.53,9.38,2.53,9.38l.24,27.5,3.93-.5.54-28.23s.15-5.64-2.53-9.38Z"/>
        </g>
        <g class="cls-13">
          <path class="cls-3" d="M425.04,351.36c-1.25-2.27-3.19-2.59-4.43-.31-.4.73-.79,1.72-1.11,3.04,1.03,3.11.95,6.17.95,6.17l.05,26.62,6.48-.92v-25.22s.12-5.64-1.93-9.38Z"/>
        </g>
        <path class="cls-7" d="M449.93,349.99s-.09-.01-.26-.06c-.2-.06-.44-.14-.74-.23-.65-.21-1.61-.5-2.85-.85-2.49-.71-6.13-1.58-10.69-2.35-4.56-.77-10.03-1.45-16.1-2.15-6.08-.69-12.77-1.34-19.81-1.87-14.08-1.07-26.87-1.4-36.13-1.47-4.63-.02-8.37,0-10.96.02-1.26,0-2.26.02-2.98.02-.32,0-.57,0-.78,0-.17,0-.26-.01-.26-.02,0,0,.09-.02.26-.03.2-.01.46-.03.77-.04.72-.03,1.72-.07,2.98-.12,2.59-.08,6.33-.16,10.97-.19,9.26-.03,22.06.25,36.16,1.32,7.05.53,13.75,1.19,19.83,1.91,6.08.73,11.55,1.44,16.11,2.26,4.56.82,8.21,1.74,10.68,2.51,1.24.38,2.19.71,2.83.95.29.11.53.2.72.28.16.07.24.1.24.11Z"/>
        <path class="cls-7" d="M449.74,346.42s-.09-.01-.26-.06c-.2-.06-.44-.13-.74-.23-.65-.2-1.61-.5-2.85-.85-2.48-.7-6.12-1.56-10.68-2.33-4.55-.77-10.01-1.44-16.08-2.14-6.07-.69-12.75-1.34-19.78-1.86-14.06-1.07-26.83-1.4-36.07-1.46-4.62-.02-8.36,0-10.94.02-1.26,0-2.26.02-2.98.02-.31,0-.57,0-.77,0-.17,0-.26-.01-.26-.02,0,0,.09-.02.26-.03.2-.01.46-.03.77-.04.72-.03,1.71-.07,2.97-.12,2.58-.08,6.32-.16,10.95-.19,9.25-.03,22.03.25,36.11,1.31,7.04.53,13.73,1.19,19.8,1.9,6.07.72,11.53,1.43,16.09,2.25,4.56.81,8.2,1.73,10.67,2.49,1.24.38,2.19.7,2.83.94.29.11.53.2.72.28.16.06.24.1.24.11Z"/>
        <g class="cls-13">
          <path class="cls-3" d="M369.4,279.85c-.25-.02-3.59-.01-5.73,3.34.25-.02.41-.02.46-.02,7.35.56,7.51,11.82,7.51,11.82l-.41,27.29,5.22.39.46-31s-.15-11.26-7.51-11.82Z"/>
        </g>
        <g class="cls-13">
          <path class="cls-3" d="M343.93,276.37c-.41-.02-7.02-.01-8.98,6.67,2.14-3.36,5.48-3.37,5.74-3.35,7.35.55,7.51,11.82,7.51,11.82l-.41,27.38,5.09.3.59-31s-.2-11.26-9.54-11.82Z"/>
        </g>
        <g class="cls-11">
          <path class="cls-3" d="M422.91,293.01c-.21-.02-4.27,0-4.25,9.26.03,9.79.07,26.34.07,26.34l8.28.91.19-26.44s-.11-9.6-4.3-10.07Z"/>
        </g>
        <g class="cls-11">
          <path class="cls-3" d="M433.35,297.33c-.13-.02-2.66,0-2.63,8.7.03,9.21.07,24.77.07,24.77l5.15.86.1-24.86s-.08-9.03-2.68-9.47Z"/>
        </g>
        <g class="cls-11">
          <path class="cls-3" d="M440.44,301c-.09-.02-1.71,0-1.69,8.22.02,8.7.06,23.4.06,23.4l3.32.82.04-23.49s-.06-8.53-1.74-8.95Z"/>
        </g>
        <g class="cls-11">
          <path class="cls-3" d="M445.6,304.94s-.87,0-.85,7.71c.02,8.17.06,21.97.06,21.97l1.69.77v-22.05s-.05-8.01-.9-8.4Z"/>
        </g>
        <g class="cls-13">
          <path class="cls-3" d="M408.58,288.73c-.16-.01-1.97,0-3.45,1.93,2.24,3.08,2.32,8.74,2.32,8.74l-.25,27.44,6.58.6.26-28.04s-.14-10.18-5.46-10.67Z"/>
        </g>
        <g class="cls-13">
          <path class="cls-3" d="M391.18,284.64c-.2-.02-2.5-.01-4.41,2.06,4.31,2.49,4.41,13.08,4.41,13.08l-.3,24.9,6.88.56.43-28.79s-.14-11.26-7.01-11.82Z"/>
        </g>
        <path class="cls-7" d="M397.7,338.68c-.14,0-.26-3.28-.26-7.33s.12-7.33.26-7.33.26,3.28.26,7.33-.12,7.33-.26,7.33Z"/>
        <path class="cls-7" d="M384.17,338c-.14,0-.26-3.28-.26-7.33s.12-7.33.26-7.33.26,3.28.26,7.33-.12,7.33-.26,7.33Z"/>
        <path class="cls-7" d="M376.35,337.32c-.14,0-.26-3.28-.26-7.33s.12-7.33.26-7.33.26,3.28.26,7.33-.12,7.33-.26,7.33Z"/>
        <path class="cls-7" d="M352.79,337.32c-.14,0-.26-4.1-.26-9.16s.12-9.16.26-9.16.26,4.1.26,9.16-.12,9.16-.26,9.16Z"/>
        <path class="cls-7" d="M361.89,337.32c-.14,0-.26-3.56-.26-7.96s.12-7.96.26-7.96.26,3.56.26,7.96-.12,7.96-.26,7.96Z"/>
        <path class="cls-7" d="M403.28,339.02c-.14,0-.26-3.28-.26-7.33s.12-7.33.26-7.33.26,3.28.26,7.33-.12,7.33-.26,7.33Z"/>
        <path class="cls-7" d="M413.65,339.82c-.14,0-.26-3.28-.26-7.33s.12-7.33.26-7.33.26,3.28.26,7.33-.12,7.33-.26,7.33Z"/>
        <path class="cls-7" d="M418.64,340.51c-.14,0-.26-3.28-.26-7.33s.12-7.33.26-7.33.26,3.28.26,7.33-.12,7.33-.26,7.33Z"/>
        <path class="cls-7" d="M426.97,341.56c-.14,0-.26-3.28-.26-7.33s.12-7.33.26-7.33.26,3.28.26,7.33-.12,7.33-.26,7.33Z"/>
        <path class="cls-7" d="M430.71,342.19c-.14,0-.26-3.28-.26-7.33s.12-7.33.26-7.33.26,3.28.26,7.33-.12,7.33-.26,7.33Z"/>
        <path class="cls-7" d="M436,342.97c-.14,0-.26-3.28-.26-7.33s.12-7.33.26-7.33.26,3.28.26,7.33-.12,7.33-.26,7.33Z"/>
        <path class="cls-7" d="M438.75,343.47c-.14,0-.26-3.28-.26-7.33s.12-7.33.26-7.33.26,3.28.26,7.33-.12,7.33-.26,7.33Z"/>
        <path class="cls-7" d="M442.18,344.17c-.14,0-.26-3.28-.26-7.33s.12-7.33.26-7.33.26,3.28.26,7.33-.12,7.33-.26,7.33Z"/>
        <path class="cls-7" d="M444.75,344.91c-.14,0-.26-3.28-.26-7.33s.12-7.33.26-7.33.26,3.28.26,7.33-.12,7.33-.26,7.33Z"/>
        <path class="cls-7" d="M446.51,345.38c-.14,0-.26-3.28-.26-7.33s.12-7.33.26-7.33.26,3.28.26,7.33-.12,7.33-.26,7.33Z"/>
        <g class="cls-13">
          <path class="cls-3" d="M343.93,276.37c-.48-.03-9.53-.01-9.53,10.84,0,11.48,0,30.89,0,30.89l18.48,1.09.59-31s-.2-11.26-9.54-11.82Z"/>
        </g>
        <g class="cls-13">
          <path class="cls-3" d="M369.4,279.85c-.38-.03-7.51-.01-7.51,10.84,0,11.48,0,30.89,0,30.89l14.55,1.09.46-31s-.15-11.26-7.51-11.82Z"/>
        </g>
        <g class="cls-13">
          <path class="cls-3" d="M391.18,284.64c-.35-.03-7.01-.01-7.01,10.84,0,11.48,0,28.65,0,28.65l13.59,1.12.43-28.79s-.14-11.26-7.01-11.82Z"/>
        </g>
        <g class="cls-13">
          <path class="cls-3" d="M408.58,288.73c-.27-.02-5.43,0-5.4,9.82.03,10.38.08,27.93.08,27.93l10.52.96.26-28.04s-.14-10.18-5.46-10.67Z"/>
        </g>
      </g>
      <g>
        <polygon class="cls-8" points="129.63 99.7 119.58 94.81 121.85 102.45 132.03 103.89 129.63 99.7"/>
        <g class="cls-13">
          <polygon class="cls-3" points="129.63 99.7 119.58 94.81 121.85 102.45 132.03 103.89 129.63 99.7"/>
        </g>
      </g>
      <path class="cls-7" d="M139.12,107.01c-.07.13-1.52-.56-3.3-1.41-1.78-.86-3.22-1.56-3.16-1.7.05-.13,1.59.36,3.39,1.23,1.8.86,3.15,1.76,3.08,1.88Z"/>
      <g>
        <path class="cls-8" d="M214.4,222.21c.7-2.1,85.79-2.05,94.36-1.5l.71,35.4,4.01,3.1,11.13,43.98,25.36,1.28v28.28l12.41,62.77s-68.79,3.72-74.45,3.59c-5.66-.12-26.82-54.5-26.82-54.5l-46.71-61.86v-60.55Z"/>
        <g class="cls-13">
          <path class="cls-3" d="M214.4,221.81c.7-2.1,85.79-2.05,94.36-1.5l.71,35.4,4.01,3.1,11.13,43.98,25.36,1.28v28.28l12.41,63.17s-68.34,3.72-73.99,3.59c-5.66-.12-27.28-54.91-27.28-54.91l-46.71-61.86v-60.55Z"/>
        </g>
        <path class="cls-7" d="M309.1,242.55s-.08.01-.25.01c-.19,0-.43,0-.72-.01-.67-.02-1.6-.05-2.76-.09-2.4-.1-5.87-.21-10.16-.32-8.58-.22-20.43-.32-33.52.09-13.09.42-24.92,1.26-33.46,2.02-4.27.38-7.73.71-10.12.96-1.16.11-2.08.2-2.75.26-.29.02-.52.04-.72.06-.16,0-.25.01-.25,0,0,0,.08-.03.24-.05.19-.03.42-.06.71-.11.67-.09,1.58-.21,2.74-.36,2.38-.31,5.83-.7,10.11-1.12,8.54-.86,20.38-1.75,33.48-2.17,13.1-.41,24.97-.25,33.55.06,4.29.16,7.76.33,10.16.48,1.16.08,2.09.14,2.76.19.29.02.52.05.72.06.16.02.24.03.24.04Z"/>
        <path class="cls-7" d="M309.25,246.03s-.08.01-.25.01c-.19,0-.43,0-.72-.01-.67-.02-1.6-.05-2.76-.09-2.4-.1-5.87-.21-10.16-.32-8.58-.22-20.43-.32-33.52.09-13.09.42-24.92,1.26-33.46,2.02-4.27.38-7.73.71-10.12.96-1.16.11-2.08.2-2.75.26-.29.02-.52.04-.72.06-.16,0-.25.01-.25,0s.08-.03.24-.05c.19-.03.42-.06.71-.11.67-.09,1.58-.21,2.74-.36,2.38-.31,5.83-.7,10.11-1.12,8.54-.85,20.38-1.75,33.48-2.17,13.1-.41,24.97-.25,33.55.06,4.29.16,7.76.33,10.16.48,1.16.08,2.09.14,2.76.19.29.03.52.05.72.06.16.02.24.03.24.04Z"/>
        <g class="cls-13">
          <path class="cls-3" d="M281.7,254.17h0c-8.78,0-15.9,7.12-15.9,15.9v7.88c1.49-1.97,5.4-5.93,12.17-5.12,8.94,1.06,11.61,9.69,11.61,13.42v14.73h8.01v-30.91c0-8.78-7.12-15.9-15.9-15.9Z"/>
        </g>
        <g class="cls-13">
          <path class="cls-3" d="M234.79,288.64c.11-2.67.66-4.88,1.48-6.69,2.56-5.7,8.29-7.8,13.41-6.76v-7.45s-.02-.18-.09-.5c-2.33-11.4-18.07-13.25-22.84-2.64-.96,2.13-1.56,4.79-1.5,8.11.26,14.23,0,15.93,0,15.93h9.54Z"/>
        </g>
        <g class="cls-13">
          <path class="cls-3" d="M279.29,341.71h.88c7.69,0,13.94,6.25,13.94,13.94v44.95h-28.76v-44.95c0-7.69,6.25-13.94,13.94-13.94Z"/>
        </g>
        <g class="cls-13">
          <path class="cls-3" d="M335.92,346.08c-1.67-3.16-4.98-6.62-11.53-7.2,0,0-3.05.08-6.24,1.88,1.26-.28,2.1-.31,2.1-.31,6.55.58,9.86,4.04,11.53,7.2,1.14,2.15,1.67,4.57,1.67,7v42.39l4.13-.21v-43.75c0-2.43-.54-4.85-1.67-7Z"/>
        </g>
        <g class="cls-13">
          <path class="cls-3" d="M281.21,254.17h.97c8.5,0,15.41,6.9,15.41,15.41v31.39h-31.79v-31.39c0-8.5,6.9-15.41,15.41-15.41Z"/>
        </g>
        <g class="cls-13">
          <path class="cls-3" d="M249.59,267.24c-2.33-11.4-18.07-13.25-22.84-2.64-.96,2.13-1.56,4.79-1.5,8.11.26,14.23,0,15.93,0,15.93h24.43v-20.9s-.02-.18-.09-.5Z"/>
        </g>
        <g class="cls-13">
          <path class="cls-3" d="M324.39,338.89s-13.39.37-13.39,16.15.93,43.1.93,43.1l25.66-1.3v-43.75c0-2.43-.54-4.85-1.67-7-1.67-3.16-4.98-6.62-11.53-7.2Z"/>
        </g>
        <path class="cls-7" d="M325.58,303.24s-.23,0-.67-.04c-.49-.05-1.13-.12-1.92-.2-1.66-.18-4.08-.41-7.06-.62-5.97-.45-14.24-.78-23.37-.96-9.14-.17-17.41-.18-23.4-.19-2.95,0-5.36-.02-7.09-.02-.79-.01-1.43-.02-1.93-.03-.44-.01-.67-.03-.67-.05,0-.02.23-.04.67-.06.49-.02,1.13-.04,1.93-.07,1.74-.04,4.15-.08,7.09-.14,5.99-.09,14.27-.13,23.42.04,9.14.18,17.42.57,23.39,1.11,2.99.26,5.4.55,7.06.79.79.12,1.42.22,1.91.3.43.07.66.12.66.14Z"/>
        <path class="cls-7" d="M349.98,332.75s-.28,0-.8-.03c-.57-.04-1.33-.1-2.29-.17-2.04-.15-4.91-.35-8.43-.6-7.12-.48-16.96-1.03-27.83-1.55-10.88-.5-20.73-.87-27.86-1.06-3.53-.08-6.4-.14-8.45-.18-.96-.02-1.72-.03-2.3-.04-.53-.01-.8-.03-.8-.05,0-.02.28-.04.8-.06.57-.01,1.34-.03,2.3-.06,2-.03,4.88-.03,8.45.02,7.14.09,17,.4,27.88.91,10.88.52,20.72,1.13,27.84,1.71,3.56.29,6.43.56,8.42.77.95.11,1.71.2,2.28.27.52.07.79.11.79.13Z"/>
        <path class="cls-7" d="M251.21,300.89c-.14,0,.11-12.25.56-27.35.45-15.1.94-27.34,1.08-27.33.14,0-.11,12.25-.56,27.35-.45,15.1-.94,27.34-1.08,27.33Z"/>
        <path class="cls-7" d="M259.45,300.5c-.14,0,.11-12.25.56-27.35.45-15.1.94-27.34,1.08-27.33s-.11,12.25-.56,27.35c-.45,15.1-.94,27.34-1.08,27.33Z"/>
        <path class="cls-7" d="M298.84,301.43c-.14,0,.11-12.4.56-27.68.45-15.29.94-27.67,1.08-27.67.14,0-.11,12.4-.56,27.68-.45,15.28-.94,27.67-1.08,27.67Z"/>
        <path class="cls-7" d="M307.08,301.14c-.14,0,.11-12.42.56-27.73.45-15.31.94-27.72,1.08-27.72.14,0-.11,12.42-.56,27.73-.45,15.31-.94,27.72-1.08,27.71Z"/>
        <path class="cls-7" d="M296.46,398.99c-.14,0-.26-15.49-.26-34.58s.12-34.59.26-34.59.26,15.48.26,34.59-.12,34.58-.26,34.58Z"/>
        <path class="cls-7" d="M306.37,398.72c-.14,0-.26-15.49-.26-34.58s.12-34.59.26-34.59.26,15.48.26,34.59-.12,34.58-.26,34.58Z"/>
        <path class="cls-7" d="M340.49,396.69c-.14,0-.26-14.36-.26-32.08s.12-32.08.26-32.08.26,14.36.26,32.08-.12,32.08-.26,32.08Z"/>
        <path class="cls-7" d="M348.37,396.27c-.14,0-.26-14.31-.26-31.95s.12-31.95.26-31.95.26,14.3.26,31.95-.12,31.95-.26,31.95Z"/>
      </g>
      <g>
        <path class="cls-8" d="M211.53,206.1s13.77,19.96,13.77,20.47-1.01,26.45-1.01,26.45l-13.26-12.92.51-34Z"/>
        <g class="cls-12">
          <path class="cls-3" d="M211.53,206.1s13.77,19.96,13.77,20.47-1.01,26.45-1.01,26.45l-13.26-12.92.51-34Z"/>
        </g>
        <polygon class="cls-8" points="218.27 246.17 228.87 255.63 246.48 293.67 230.47 293.57 218.27 246.17"/>
        <g class="cls-12">
          <polygon class="cls-3" points="218.19 245.97 228.87 255.63 246.48 293.67 230.47 293.57 218.19 245.97"/>
        </g>
        <g>
          <path class="cls-8" d="M138.97,107.17l-6.32-3.27,19.49,37.49s4.06-.81,4.73-.95-17.9-33.27-17.9-33.27Z"/>
          <g class="cls-13">
            <path class="cls-3" d="M138.97,107.17l-6.32-3.27,19.49,37.49s4.06-.81,4.73-.95-17.9-33.27-17.9-33.27Z"/>
          </g>
        </g>
        <g>
          <path class="cls-8" d="M267.16,292.36l6.64,1.31-2.06,37.6,8.98,9.08-2.89,15.07,21.57,49.65-8.31,1.56-23.93-55.55v-12.54s-4.19-5.92-4.19-6.23,4.19-39.94,4.19-39.94Z"/>
          <g class="cls-12">
            <path class="cls-3" d="M267.16,292.36l6.64,1.31-2.06,37.6,8.98,9.08-2.89,15.07,21.57,49.65-8.31,1.56-23.93-55.55v-12.54s-4.19-5.92-4.19-6.23,4.19-39.94,4.19-39.94Z"/>
          </g>
        </g>
        <path class="cls-8" d="M121.75,101.91l-2.27-7.64s-21.86,9.66-44.74,27.83c-16.85,13.39-36.23,35.28-44.93,58.35-6.69,17.74-3.12,20.76-3.12,20.76l3.49,1.1.27,27.56s-5.57,15.26-5.2,22.93c.37,7.67,2.41,12.83,2.41,12.83l.52,15.06s-6.13,5.76-6.5,16.21c-.27,7.68,3.21,8.57,3.21,8.57-.19.83.46,32.97.43,31.38,0,0-3.5,3.28-2.77,7.94.67,4.24,3.42,6.28,3.42,6.28,0,0,.24,36.23.22,36.46-.02.19,64.18,16.15,123.67,16.15,33.47,0,141.22,2.93,141.22,2.93l-22.81-57.42s3.93-7.48,4.11-8.04c.19-.56-6.92-7.29-6.92-7.29,0,0,2.24-41.32,1.68-41.5-.56-.19-36.69,1.21-36.69,1.21l-12.46-48.56s-6.75-5.93-6.94-6.49c-.19-.56.36-32.97.36-32.97l-30.01,4.1-14.1-38.44-2.43-2.24-2.43-31.22-10.28,2.06-19.63-36.46-10.8-1.44Z"/>
        <polygon class="cls-8" points="162.56 138.29 171.86 145.53 175.63 180.37 167.28 172.8 164.85 170.55 162.56 138.29"/>
        <g class="cls-13">
          <path class="cls-3" d="M232.14,340.94h0c4.01,0,7.65,1.54,10.38,4.05-2.79-3.87-7.33-6.39-12.46-6.39h0c-9.55,0-17.29,7.74-17.29,17.29v49.7h4.02v-49.3c0-8.48,6.87-15.35,15.35-15.35Z"/>
        </g>
        <g class="cls-13">
          <path class="cls-3" d="M187.22,342.35h0c.66,0,1.32.05,1.96.13-1.94-1.41-4.36-2.22-7.22-2.22h0c-9.55,0-17.29,7.74-17.29,17.29v46.5l7.21.04v-46.39c0-8.48,6.87-15.35,15.35-15.35Z"/>
        </g>
        <g class="cls-13">
          <path class="cls-3" d="M143.99,344.71c-1.63-1.17-3.59-1.84-5.83-1.86-7.83.15-13.89,7.19-13.89,16.45l-.73,43.44,11.69.63-.39-44.63c0-6.27,3.76-11.66,9.15-14.04Z"/>
          <path class="cls-3" d="M138.07,342.85s.06,0,.09,0c.08,0,.16,0,.25,0h-.34Z"/>
        </g>
        <g class="cls-13">
          <path class="cls-3" d="M109.55,348.62c-1.59-2.69-3.93-4.5-6.72-4.53-5.95.12-10.17,7.15-10.17,14.73v40.83l10.3,1.24.08-41.27c0-4.74,2.63-8.86,6.5-11Z"/>
        </g>
        <g class="cls-11">
          <path class="cls-3" d="M81.26,359.63c0-6.05-2.57-11.9-6.28-11.94-4.16.11-7.1,6.39-7.1,13.17v35.19l13.49,2.12-.1-38.53Z"/>
        </g>
        <g class="cls-11">
          <path class="cls-3" d="M60.51,361.4c0-6.05-1.83-11.9-4.48-11.94-2.96.11-5.06,6.39-5.06,13.17v30.36l9.61,1.72-.08-33.31Z"/>
        </g>
        <g class="cls-11">
          <path class="cls-3" d="M45.6,362.98c0-5.92-1.07-11.66-2.62-11.7-1.73.1-2.96,6.26-2.96,12.9v26.58l5.61,1.17-.04-28.95Z"/>
        </g>
        <g class="cls-11">
          <path class="cls-3" d="M35.97,363.73c0-5.92-.53-11.66-1.31-11.7-.87.1-1.48,6.26-1.48,12.9v24.32l2.81.63-.02-26.15Z"/>
        </g>
        <path class="cls-7" d="M82.98,398.39c-.14,0-.26-13.76-.26-30.72s.12-30.73.26-30.73.26,13.75.26,30.73-.12,30.72-.26,30.72Z"/>
        <path class="cls-7" d="M88.55,398.82c-.14,0-.26-14.02-.26-31.31s.12-31.31.26-31.31.26,14.02.26,31.31-.12,31.31-.26,31.31Z"/>
        <path class="cls-7" d="M61.59,394.97c-.14,0-.26-12.1-.26-27.02s.12-27.02.26-27.02.26,12.1.26,27.02-.12,27.02-.26,27.02Z"/>
        <path class="cls-7" d="M66.49,395.34c-.14,0-.26-12.33-.26-27.54s.12-27.54.26-27.54.26,12.33.26,27.54-.12,27.54-.26,27.54Z"/>
        <path class="cls-7" d="M46.5,392.15c-.14,0-.26-10.63-.26-23.74s.12-23.74.26-23.74.26,10.63.26,23.74-.12,23.74-.26,23.74Z"/>
        <path class="cls-7" d="M50.19,392.48c-.14,0-.26-10.83-.26-24.19s.12-24.2.26-24.2.26,10.83.26,24.2-.12,24.19-.26,24.19Z"/>
        <path class="cls-7" d="M36.99,389.52c-.14,0-.26-9.46-.26-21.12s.12-21.13.26-21.13.26,9.46.26,21.13-.12,21.12-.26,21.12Z"/>
        <path class="cls-7" d="M39.42,389.81c-.14,0-.26-9.64-.26-21.53s.12-21.53.26-21.53.26,9.64.26,21.53-.12,21.53-.26,21.53Z"/>
        <path class="cls-7" d="M29.85,388.45c-.14,0-.26-8.47-.26-18.91s.12-18.91.26-18.91.26,8.47.26,18.91-.12,18.91-.26,18.91Z"/>
        <path class="cls-7" d="M28.57,388.34c-.14,0-.26-8.47-.26-18.91s.12-18.91.26-18.91.26,8.47.26,18.91-.12,18.91-.26,18.91Z"/>
        <path class="cls-7" d="M112.98,401.94c-.14,0-.26-15.34-.26-34.25s.12-34.26.26-34.26.26,15.33.26,34.26-.12,34.25-.26,34.25Z"/>
        <path class="cls-7" d="M119.83,402.33c-.14,0-.26-15.5-.26-34.62s.12-34.62.26-34.62.26,15.5.26,34.62-.12,34.62-.26,34.62Z"/>
        <path class="cls-7" d="M152.27,403.38c-.14,0-.26-16.22-.26-36.22s.12-36.22.26-36.22.26,16.22.26,36.22-.12,36.22-.26,36.22Z"/>
        <path class="cls-7" d="M158.48,403.38c-.14,0-.26-16.22-.26-36.22s.12-36.22.26-36.22.26,16.22.26,36.22-.12,36.22-.26,36.22Z"/>
        <path class="cls-7" d="M199.63,405.35c-.14,0-.26-16.72-.26-37.33s.12-37.34.26-37.34.26,16.71.26,37.34-.12,37.33-.26,37.33Z"/>
        <path class="cls-7" d="M208.27,405.35c-.14,0-.26-16.72-.26-37.33s.12-37.34.26-37.34.26,16.71.26,37.34-.12,37.33-.26,37.33Z"/>
        <path class="cls-7" d="M256.37,406.25c-.14,0-.26-16.33-.26-36.46s.12-36.47.26-36.47.26,16.32.26,36.47-.12,36.46-.26,36.46Z"/>
        <path class="cls-7" d="M265.01,406.25c-.14,0-.26-16.21-.26-36.19s.12-36.2.26-36.2.26,16.2.26,36.2-.12,36.19-.26,36.19Z"/>
        <g class="cls-13">
          <path class="cls-3" d="M171.16,273.94c0-4.52,1.35-8.96,4.02-12.6,2.3-3.13,5.81-6.07,11.05-6.8,2.81-.39,5.16-.06,7.13.72-2.05-4.37-6.4-9.19-14.47-8.06-5.24.73-8.75,3.67-11.05,6.8-2.68,3.64-4.02,8.08-4.02,12.6v32.48l7.34-.79v-24.34Z"/>
        </g>
        <g class="cls-13">
          <path class="cls-3" d="M133.74,279.02c0-4.52,1.14-8.96,3.39-12.6,1.91-3.09,4.82-5.97,9.14-6.76-2.08-3.15-5.42-5.66-10.54-4.81-4.42.73-7.39,3.67-9.33,6.8-2.26,3.64-3.39,8.08-3.39,12.6v29.79l10.73-1.39v-23.63Z"/>
        </g>
        <g class="cls-13">
          <path class="cls-3" d="M102.53,287.45c0-4.52,1.14-8.96,3.39-12.6,1.91-3.08,4.82-5.97,9.14-6.76-2.08-3.15-5.42-5.66-10.54-4.81-4.42.73-7.39,3.67-9.33,6.8-2.26,3.64-3.39,8.08-3.39,12.6v25.72l10.73-1.37v-19.57Z"/>
        </g>
        <g class="cls-11">
          <path class="cls-3" d="M51.44,319.93v-20.4c0-4.07.45-8.08,1.34-11.36.77-2.82,1.94-5.47,3.69-6.13,4.11-1.56,5.33,9.43,5.33,12.32s-.15,21.98-.15,21.98l-10.2,3.6Z"/>
        </g>
        <g class="cls-11">
          <path class="cls-3" d="M39.59,325.18v-19.43c0-3.83.32-7.61.95-10.7.55-2.66,1.38-5.15,2.62-5.77,2.92-1.47,3.79,8.88,3.79,11.59s-.11,20.99-.11,20.99l-7.25,3.31Z"/>
        </g>
        <g class="cls-11">
          <path class="cls-3" d="M41.68,263.91l-.51-14.53c0-3.83.32-7.61.95-10.7.55-2.66,1.38-5.15,2.62-5.77,2.92-1.47,3.79,8.88,3.79,11.59s.05,14.34.05,14.34l-6.91,5.07Z"/>
        </g>
        <g class="cls-11">
          <path class="cls-3" d="M33.18,328.44v-16.34c0-3.45.12-6.85.36-9.63.21-2.39.52-4.64,1-5.2,1.11-1.32,1.44,7.99,1.44,10.44v19.26l-2.81,1.47Z"/>
        </g>
        <g class="cls-11">
          <path class="cls-3" d="M33.18,270.98v-9.73c0-3.45.12-6.85.36-9.63.21-2.39.52-4.64,1-5.2,1.11-1.32,1.44,7.99,1.44,10.44v11.47l-2.81,2.65Z"/>
        </g>
        <g class="cls-13">
          <path class="cls-3" d="M79.07,294.48c0-4.23,1-8.4,2.98-11.9-.76-4.39-2.74-10.28-6.87-9.09-2.38.69-3.97,3.44-5.02,6.38-1.21,3.41-1.82,7.59-1.82,11.83v22.55l10.73-2.87v-16.9Z"/>
        </g>
        <path class="cls-7" d="M25.36,253.34s.02-.16.08-.45c.07-.32.17-.76.29-1.32.24-1.16.73-2.84,1.32-5.01,1.34-4.28,3.71-10.44,8.14-17.19,4.32-6.81,10.67-14.12,18.62-21.21,7.97-7.09,17.57-13.83,27.94-20.41,10.37-6.59,20.74-12.08,30.41-16.53,9.67-4.46,18.7-7.73,26.39-10.12,7.69-2.4,14.06-3.79,18.45-4.75,2.21-.43,3.93-.72,5.1-.93.57-.1,1.01-.17,1.33-.23.3-.05.46-.06.46-.06,0,0-.15.05-.45.11-.32.07-.76.16-1.32.28-1.18.24-2.89.59-5.07,1.03-4.38,1.01-10.73,2.46-18.39,4.9-7.66,2.43-16.66,5.73-26.3,10.21-9.64,4.47-19.98,9.95-30.33,16.53-10.35,6.56-19.94,13.29-27.9,20.33-7.94,7.04-14.28,14.3-18.63,21.05-4.45,6.7-6.86,12.8-8.26,17.05-.62,2.16-1.14,3.82-1.41,4.98-.15.55-.26.99-.34,1.3-.08.29-.13.44-.13.44Z"/>
        <g class="cls-13">
          <path class="cls-3" d="M66.1,205.88c-18.03,12.87-34.79,27.62-40.24,52.78.43,2.38,1.06,5.16,1.91,7.51,3.49-29.67,22.74-46.11,41.38-59.42,27.39-19.56,62.03-35.51,95.27-42.21v-2.34c-33.24,6.7-70.93,24.12-98.33,43.68Z"/>
        </g>
        <path class="cls-7" d="M163.62,151.9s-.13.04-.4.1c-.29.06-.68.14-1.18.25-1.06.21-2.59.52-4.53.91-1.96.46-4.35,1.01-7.12,1.65-2.75.75-5.91,1.51-9.33,2.58-6.88,2.04-14.97,4.83-23.71,8.52-8.74,3.68-18.13,8.25-27.66,13.66-9.54,5.38-18.24,11.17-25.94,16.71-7.68,5.56-14.23,11.09-19.25,16.22-5.04,5.1-8.58,9.73-10.82,13.06-1.1,1.68-1.94,2.99-2.46,3.91-.26.43-.47.78-.62,1.03-.14.23-.22.35-.23.34s.05-.13.18-.37c.14-.26.33-.61.58-1.06.49-.94,1.31-2.27,2.39-3.97,2.19-3.37,5.7-8.05,10.73-13.2,5-5.17,11.54-10.75,19.23-16.35,7.7-5.57,16.4-11.39,25.96-16.78,9.54-5.41,18.96-9.98,27.73-13.65,8.77-3.67,16.89-6.42,23.79-8.43,3.44-1.05,6.61-1.79,9.37-2.51,2.79-.62,5.18-1.16,7.15-1.57,1.96-.35,3.49-.63,4.55-.82.5-.08.89-.15,1.19-.2.27-.04.41-.06.41-.05Z"/>
        <path class="cls-7" d="M121.85,163.81c-.14,0-.26-13.74-.26-30.68s.12-30.68.26-30.68.26,13.73.26,30.68-.12,30.68-.26,30.68Z"/>
        <path class="cls-7" d="M114.75,166.75c-.14,0-.26-13.65-.26-30.48s.12-30.48.26-30.48.26,13.65.26,30.48-.12,30.48-.26,30.48Z"/>
        <path class="cls-7" d="M90.87,178.31c-.14,0-.34-13-.44-29.03-.1-16.04-.06-29.04.08-29.04.14,0,.34,13,.44,29.04.1,16.03.06,29.04-.08,29.04Z"/>
        <path class="cls-7" d="M85.87,179.46c-.14,0-.26-12.48-.26-27.86s.12-27.87.26-27.87.26,12.47.26,27.87-.12,27.86-.26,27.86Z"/>
        <path class="cls-7" d="M68.58,192.37c-.14,0-.26-12.06-.26-26.94s.12-26.94.26-26.94.26,12.06.26,26.94-.12,26.94-.26,26.94Z"/>
        <path class="cls-7" d="M65.13,194.23c-.14,0-.26-11.66-.26-26.05s.12-26.05.26-26.05.26,11.66.26,26.05-.12,26.05-.26,26.05Z"/>
        <path class="cls-7" d="M52.06,204.95c-.14,0-.26-10.14-.26-22.64s.12-22.64.26-22.64.26,10.13.26,22.64-.12,22.64-.26,22.64Z"/>
        <path class="cls-7" d="M48.99,208.1c-.14,0-.26-9.64-.26-21.52s.12-21.52.26-21.52.26,9.63.26,21.52-.12,21.52-.26,21.52Z"/>
        <path class="cls-7" d="M41.5,215.76c-.14,0-.26-9.37-.26-20.94s.12-20.94.26-20.94.26,9.37.26,20.94-.12,20.94-.26,20.94Z"/>
        <path class="cls-7" d="M38.62,218.6c-.14,0-.26-8.76-.26-19.57s.12-19.57.26-19.57.26,8.76.26,19.57-.12,19.57-.26,19.57Z"/>
        <g class="cls-13">
          <path class="cls-3" d="M74.99,156.9c.07.75-.36,12.42,0,12.21.36-.22,6.82-3.74,6.75-4.3-.07-.56,0-13.01,0-13.01l-6.75,5.11Z"/>
        </g>
        <g class="cls-13">
          <path class="cls-3" d="M74.99,156.9s6.72,2.56,6.72,2.34c0-.22.54-7.57.03-7.45-.51.12-6.74,5.42-6.74,5.42"/>
        </g>
        <g class="cls-13">
          <polygon class="cls-3" points="43.9 187.76 43.9 198.72 46.9 194.87 46.9 183.88 43.9 187.76"/>
        </g>
        <g class="cls-13">
          <path class="cls-3" d="M134.45,201.58c.22-7.32,5.21-12.27,8.5-14.75,1.72-1.3,3.78-2.1,5.9-2.25-.98-1.94-3.08-4.67-7.25-5.23-2.83-.38-5.68.47-7.96,2.19-3.29,2.48-8.28,7.43-8.5,14.75-.33,10.97,0,27.57,0,27.57l9.2-2.56c-.05-5.76-.08-13.62.11-19.73Z"/>
        </g>
        <g class="cls-13">
          <path class="cls-3" d="M103.4,213.71c.17-7.32,3.35-11.95,5.93-14.43.72-.69,1.72-1.31,2.81-1.78-.35-1.56-1.5-4.53-5.28-5.17-2.22-.38-5.78.9-7.57,2.62-2.58,2.48-5.76,7.12-5.93,14.43-.26,10.97-.27,25.93-.27,25.93l10.07-3.93c.03-5.38.1-11.77.24-17.67Z"/>
        </g>
        <g class="cls-11">
          <path class="cls-3" d="M63.92,227.31l-.33,22.09-10.34,6.28s.01-11.3.21-21.32c.13-6.69,2.51-10.8,4.46-13.07,0,0,2.34-2.48,4.23-.12,1.88,2.36,1.78,6.13,1.78,6.13"/>
        </g>
        <g class="cls-13">
          <path class="cls-3" d="M80.2,226.81c.13-5.41,1.9-9.35,3.86-12.04h0s-.2-4.5-2.7-7.08c-2.5-2.58-5.5,0-5.5,0-2.58,2.48-5.53,7.48-5.7,14.8-.26,10.97-.14,23.43-.14,23.43l9.97-4.9c.04-4.66.1-9.65.21-14.21Z"/>
        </g>
        <path class="cls-7" d="M154.11,215.96c-.14,0-.26-10.99-.26-24.55s.12-24.55.26-24.55.26,10.99.26,24.55-.12,24.55-.26,24.55Z"/>
        <path class="cls-7" d="M159.62,214.19c-.14,0-.26-10.89-.26-24.32s.12-24.32.26-24.32.26,10.89.26,24.32-.12,24.32-.26,24.32Z"/>
        <path class="cls-7" d="M120.77,224.99c-.14,0-.26-10.49-.26-23.43s.12-23.43.26-23.43.26,10.49.26,23.43-.12,23.43-.26,23.43Z"/>
        <path class="cls-7" d="M115.12,226.77c-.14,0-.26-10.29-.26-22.97s.12-22.98.26-22.98.26,10.28.26,22.98-.12,22.97-.26,22.97Z"/>
        <path class="cls-7" d="M90.76,236.5c-.14,0-.26-9.5-.26-21.21s.12-21.21.26-21.21.26,9.5.26,21.21-.12,21.21-.26,21.21Z"/>
        <path class="cls-7" d="M85.27,238.95s-.08-.58-.13-1.64c-.04-1.15-.09-2.65-.15-4.47-.1-3.77-.19-8.99-.21-14.75-.02-5.76.03-10.98.14-14.76.06-1.89.12-3.41.19-4.47.07-1.05.12-1.64.16-1.63s.05.59.04,1.64c0,1.15-.02,2.65-.03,4.47,0,3.86,0,9.03.01,14.75.02,5.72.05,10.89.06,14.75,0,1.82-.01,3.32-.01,4.47-.01,1.06-.04,1.64-.07,1.64Z"/>
        <path class="cls-7" d="M68.15,247.86c-.14,0-.26-8.86-.26-19.78s.12-19.79.26-19.79.26,8.86.26,19.79-.12,19.78-.26,19.78Z"/>
        <path class="cls-7" d="M63.95,242.78c-.14,0-.26-7.14-.26-15.94s.12-15.95.26-15.95.26,7.14.26,15.95-.12,15.94-.26,15.94Z"/>
        <path class="cls-7" d="M51.92,254.96c-.14,0-.26-7.56-.26-16.89s.12-16.89.26-16.89.26,7.56.26,16.89-.12,16.89-.26,16.89Z"/>
        <path class="cls-7" d="M48.58,257.28c-.14,0-.26-7.5-.26-16.74s.12-16.74.26-16.74.26,7.49.26,16.74-.12,16.74-.26,16.74Z"/>
        <path class="cls-7" d="M40.88,264.53c-.14,0-.29-6.46-.32-14.42-.03-7.97.05-14.43.2-14.43.14,0,.29,6.46.32,14.42.03,7.97-.05,14.42-.2,14.43Z"/>
        <path class="cls-7" d="M37.73,267.05c-.14,0-.3-6.66-.34-14.88-.05-8.22.03-14.89.18-14.89s.3,6.66.34,14.88c.05,8.22-.03,14.89-.18,14.89Z"/>
        <g class="cls-13">
          <path class="cls-3" d="M84.06,214.76l-.45,24.58-13.59,6.57s-.12-12.46.14-23.43c.17-7.32,3.12-12.31,5.7-14.8,0,0,3-2.58,5.5,0,2.5,2.58,2.7,7.08,2.7,7.08"/>
        </g>
        <g class="cls-13">
          <path class="cls-3" d="M106.86,192.33c-2.22-.38-5.78.9-7.57,2.62-2.58,2.48-5.76,7.12-5.93,14.43-.26,10.97-.27,25.93-.27,25.93l19.63-7.4-.43-29.44s-.24-5.26-5.43-6.14Z"/>
        </g>
        <g class="cls-13">
          <path class="cls-3" d="M141.22,179.13c-2.83-.38-5.68.47-7.96,2.19-3.29,2.48-8.28,7.43-8.5,14.75-.33,10.97,0,27.57,0,27.57l24.48-6.81v-28.47c0-2.65-1.05-5.23-3.03-6.99-1.18-1.06-2.8-1.95-4.99-2.24Z"/>
        </g>
        <path class="cls-7" d="M181.52,210.12s-.14.04-.43.09c-.31.05-.73.12-1.26.22-1.11.17-2.74.48-4.84.89-4.19.84-10.24,2.2-17.66,4.04-7.43,1.84-16.24,4.15-25.99,6.84-2.43.7-4.96,1.31-7.46,2.14-2.5.86-5.06,1.73-7.66,2.63-5.19,1.82-10.56,3.74-16,5.85-10.89,4.2-21.11,8.62-30.06,13.32-8.97,4.66-16.7,9.51-22.94,13.93-1.54,1.13-3.05,2.15-4.41,3.21-1.36,1.06-2.64,2.05-3.84,2.98-2.37,1.9-4.35,3.61-6,4.97-1.58,1.41-2.82,2.51-3.68,3.28-.41.36-.73.64-.97.84-.22.19-.33.28-.34.27,0,0,.1-.11.3-.31.23-.21.54-.51.93-.88.85-.79,2.06-1.91,3.61-3.36,1.62-1.39,3.59-3.12,5.95-5.05,1.19-.94,2.47-1.95,3.83-3.02,1.35-1.07,2.86-2.11,4.39-3.25,6.22-4.47,13.95-9.36,22.93-14.05,8.96-4.73,19.19-9.18,30.1-13.38,5.45-2.11,10.82-4.03,16.02-5.84,2.61-.89,5.17-1.76,7.68-2.62,2.53-.83,5.04-1.44,7.48-2.13,9.76-2.66,18.59-4.94,26.03-6.73,7.44-1.8,13.5-3.1,17.71-3.88,2.11-.37,3.75-.66,4.87-.79.54-.07.96-.13,1.27-.17.29-.03.43-.05.44-.04Z"/>
        <path class="cls-7" d="M211.03,212.82s-.17.04-.51.1c-.36.06-.85.13-1.5.23-1.34.2-3.27.48-5.76.85-5.02.72-12.26,1.76-21.18,3.04-8.95,1.17-19.43,3.65-31.03,6.5-5.79,1.45-11.86,3.02-18.14,4.7-3.13.86-6.35,1.67-9.54,2.64-3.17,1.09-6.4,2.15-9.64,3.32-6.51,2.26-12.81,4.63-18.85,7.01-6.03,2.42-11.79,4.88-17.19,7.43-10.82,5.06-20.12,10.49-27.61,15.52-7.49,5.04-13.17,9.66-17.01,12.94-1.93,1.63-3.35,2.98-4.36,3.85-.49.43-.86.76-1.14,1-.26.22-.4.33-.4.33,0,0,.12-.13.36-.37.26-.25.63-.59,1.1-1.04.98-.9,2.39-2.27,4.3-3.93,3.81-3.32,9.46-7.99,16.93-13.09,7.48-5.08,16.79-10.56,27.61-15.65,5.4-2.56,11.17-5.04,17.21-7.47,6.05-2.39,12.35-4.77,18.87-7.03,3.24-1.16,6.49-2.23,9.66-3.32,3.22-.98,6.43-1.78,9.56-2.64,6.28-1.68,12.36-3.24,18.16-4.67,11.6-2.83,22.11-5.28,31.09-6.4,8.94-1.21,16.18-2.19,21.21-2.87,2.49-.33,4.43-.58,5.77-.76.64-.08,1.14-.14,1.5-.18.34-.04.51-.04.51-.04Z"/>
        <g class="cls-13">
          <path class="cls-3" d="M163.81,299.08v-32.48c0-4.52,1.35-8.96,4.02-12.6,2.3-3.13,5.81-6.07,11.05-6.8,12.34-1.73,15.99,10.46,15.99,13.65v34.87l-31.07,3.35Z"/>
        </g>
        <g class="cls-13">
          <path class="cls-3" d="M123.01,304.04v-29.79c0-4.52,1.14-8.96,3.39-12.6,1.94-3.13,4.91-6.07,9.33-6.8,10.41-1.73,13.5,10.46,13.5,13.65v32.14l-26.22,3.4Z"/>
        </g>
        <g class="cls-13">
          <path class="cls-3" d="M91.8,308.4v-25.72c0-4.52,1.14-8.96,3.39-12.6,1.94-3.13,4.91-6.07,9.33-6.8,10.41-1.73,13.49,10.46,13.49,13.65v27.77l-26.22,3.69Z"/>
        </g>
        <g class="cls-13">
          <path class="cls-3" d="M68.34,314.26v-22.55c0-4.24.61-8.41,1.82-11.83,1.04-2.94,2.64-5.69,5.02-6.38,5.6-1.62,7.26,9.81,7.26,12.82v24.33l-14.1,3.62Z"/>
        </g>
        <path class="cls-7" d="M230.47,293.57s-.18.02-.55.03c-.38,0-.91.02-1.6.03-1.4.02-3.48.02-6.14.18-5.33.2-13.03.81-22.54,1.64-19.01,1.74-45.22,4.65-74.09,8.49-7.22.98-14.26,1.94-21.05,2.98-6.79,1.01-13.33,2.06-19.49,3.39-12.34,2.62-23.23,5.93-32.13,9.35-8.91,3.41-15.85,6.82-20.54,9.36-2.34,1.28-4.15,2.29-5.35,3.01-.59.34-1.06.61-1.39.8-.31.18-.48.26-.48.26,0,0,.15-.11.45-.3.32-.2.78-.48,1.36-.84,1.19-.75,2.98-1.79,5.31-3.1,4.67-2.59,11.6-6.06,20.51-9.52,8.9-3.47,19.81-6.83,32.17-9.48,6.17-1.34,12.73-2.4,19.52-3.42,6.79-1.04,13.84-2.01,21.06-2.99,28.88-3.84,55.1-6.69,74.13-8.34,9.51-.79,17.22-1.34,22.56-1.48,2.67-.13,4.74-.1,6.15-.09.69,0,1.22.02,1.6.02.36,0,.54.02.54.02Z"/>
        <path class="cls-7" d="M267.18,300.91s-.22.01-.64.02c-.44,0-1.06,0-1.87,0-1.66-.02-4.08-.05-7.18-.08-3.12.04-6.93.09-11.36.15-4.42.17-9.47.28-15.03.56-22.27,1.03-52.99,3.42-86.81,7.11-16.91,1.86-33.01,3.78-47.59,5.9-7.3,1.03-14.2,2.18-20.6,3.58-6.4,1.39-12.3,2.97-17.61,4.64-10.63,3.35-18.89,7.04-24.5,9.73-2.81,1.35-4.97,2.45-6.42,3.21-.72.37-1.27.65-1.66.85-.38.19-.57.28-.57.28,0,0,.18-.12.55-.32.38-.21.93-.51,1.64-.9,1.44-.79,3.58-1.92,6.38-3.3,5.59-2.76,13.84-6.5,24.48-9.9,5.32-1.7,11.22-3.3,17.63-4.71,6.41-1.42,13.33-2.59,20.63-3.63,14.59-2.14,30.69-4.08,47.61-5.94,33.83-3.7,64.56-6.03,86.85-6.96,5.57-.26,10.62-.34,15.04-.48,4.43-.02,8.24-.04,11.36-.06,3.1.08,5.52.14,7.18.18.81.03,1.43.05,1.87.06.42.02.64.04.64.04Z"/>
        <g class="cls-13">
          <path class="cls-3" d="M242.86,344.91h0c-2.79-3.87-7.33-6.39-12.46-6.39h0c-9.55,0-17.29,7.74-17.29,17.29v49.7h34.72v-49.3c0-4.47-1.91-8.49-4.96-11.3Z"/>
        </g>
        <g class="cls-13">
          <path class="cls-3" d="M195.17,404.78l-30.52-.72v-46.5c0-9.55,7.74-17.29,17.29-17.29h0c8.48,0,13,7.11,13,15.58l.22,48.93Z"/>
        </g>
        <g class="cls-13">
          <path class="cls-3" d="M149.52,403.68c-8.41-.26-15.48.37-25.98-.94l.73-43.44c0-9.36,6.19-16.46,14.14-16.46h-.34c7.05,0,11.41,6.47,11.41,14.78l.04,46.06Z"/>
        </g>
        <g class="cls-13">
          <path class="cls-3" d="M111.83,357.45c0-6.76-3.67-13.31-9-13.36-5.95.12-10.17,7.15-10.17,14.73v40.83c6.31.87,12.76,1.6,19.32,2.18l-.15-44.38Z"/>
        </g>
        <g class="cls-12">
          <polygon class="cls-3" points="162.56 138.29 171.86 145.53 175.63 180.37 167.28 172.8 164.85 170.55 162.56 138.29"/>
        </g>
        <path class="cls-8" d="M188.12,209.45c-.63-.44-10.42-27.77-10.42-27.77l-10.42-8.88,13.65,37.58,7.2-.93Z"/>
        <g class="cls-12">
          <polygon class="cls-3" points="187.96 209.17 177.7 181.68 167.28 172.8 181.52 210.12 187.96 209.17"/>
        </g>
        <path class="cls-7" d="M177.7,181.68c-.09.11-3.05-2.29-6.6-5.36-3.55-3.07-6.35-5.65-6.26-5.76s3.05,2.29,6.6,5.37c3.55,3.07,6.35,5.65,6.26,5.76Z"/>
        <g class="cls-13">
          <path class="cls-3" d="M30.28,202.85c11.21-45.29,49.46-81.76,91.56-100.4l-.71-2.59c-42.1,18.64-81.4,55.65-92.61,100.94l-.33,1.39,2.1.66Z"/>
        </g>
        <g class="cls-13">
          <path class="cls-3" d="M211.19,230.85c-54.04-.61-111.18,14.12-160.31,46.45-11.13,7.32-21.42,15.3-27.32,27.25,0,0,.47.44.71.59s.64.32.64.32c5.74-11.62,15.71-18.86,26.53-25.98,47.78-31.43,107.21-45.09,159.75-44.5"/>
        </g>
        <g class="cls-13">
          <path class="cls-3" d="M246.63,326.46c-77.76-6.15-170.87,2.36-222.26,22.77.48.77,1,1.44,1.61,1.84,51.39-20.41,148.56-24.13,226.32-17.98l13.17.78.32-6.06-19.16-1.35Z"/>
        </g>
        <path class="cls-7" d="M299.4,405.06s-.15-.3-.42-.89c-.27-.61-.66-1.48-1.17-2.62-1.02-2.32-2.51-5.69-4.41-10-3.79-8.66-9.21-21.06-15.77-36.06l-.03-.06v-.07c.92-4.77,1.88-9.81,2.88-15.07l.06.21c-2.84-2.87-5.87-5.93-8.99-9.07l-.08-.08v-.11c.64-11.64,1.33-24.36,2.06-37.6l.21.27c-.91-.18-1.88-.37-2.87-.56-1.26-.25-2.52-.5-3.78-.74h.05c-7.28,0-14.39,0-21.28,0h-.16s-.07-.15-.07-.15c-6.1-13.25-11.78-25.61-16.83-36.59l.05.07c-6.63-6.24-12.6-11.85-17.81-16.76l-.06-.06v-.08c.15-10.27.27-18.5.35-24.19.05-2.82.09-5.01.12-6.51.02-.73.03-1.29.04-1.69.01-.38.03-.57.03-.57,0,0,.01.19.02.57,0,.4,0,.96,0,1.69,0,1.5-.01,3.69-.02,6.51-.04,5.69-.11,13.93-.19,24.2l-.06-.13c5.23,4.89,11.22,10.48,17.87,16.69l.03.03.02.04c5.07,10.97,10.78,23.31,16.9,36.56l-.23-.15c6.89,0,14,0,21.28,0h.05c1.25.25,2.51.5,3.78.75.98.19,1.96.39,2.87.56l.22.04v.23c-.74,13.24-1.45,25.95-2.09,37.59l-.07-.19c3.11,3.15,6.14,6.22,8.97,9.09l.09.09-.02.12c-1.01,5.26-1.99,10.3-2.91,15.07v-.13c6.48,15.03,11.84,27.45,15.58,36.13,1.85,4.32,3.3,7.72,4.3,10.05.48,1.15.85,2.03,1.11,2.64.25.6.36.91.36.91Z"/>
        <path class="cls-7" d="M164.42,164.54s-.15.05-.45.13c-.32.08-.76.18-1.33.32-1.16.28-2.89.64-5.1,1.18-4.41,1.11-10.78,2.79-18.49,5.35-15.41,5.12-36.24,13.91-57.26,27.12-1.32.81-2.62,1.64-3.89,2.49-1.28.85-2.56,1.66-3.81,2.51-2.48,1.72-4.94,3.4-7.29,5.13-4.73,3.44-9.16,6.93-13.15,10.52-3.99,3.59-7.54,7.27-10.54,10.98-2.96,3.74-5.44,7.44-7.37,11.01-.53.86-.91,1.79-1.34,2.65-.42.87-.84,1.71-1.22,2.54-.66,1.7-1.34,3.29-1.88,4.81-.49,1.54-.94,2.97-1.35,4.29-.32,1.34-.62,2.57-.88,3.67-.13.55-.26,1.07-.37,1.56-.08.5-.16.96-.23,1.39-.14.86-.26,1.58-.36,2.18-.1.57-.18,1.02-.23,1.34-.06.3-.1.46-.1.46,0,0,0-.16.04-.46.04-.33.1-.77.18-1.35.09-.6.19-1.33.31-2.19.06-.43.13-.9.2-1.4.11-.49.23-1.02.35-1.57.25-1.11.53-2.35.84-3.7.41-1.33.85-2.77,1.32-4.31.53-1.53,1.2-3.13,1.85-4.84.37-.84.79-1.68,1.21-2.56.43-.87.8-1.8,1.34-2.67,1.92-3.6,4.4-7.33,7.36-11.11,3.01-3.74,6.56-7.45,10.56-11.06,4-3.62,8.44-7.12,13.17-10.58,2.36-1.74,4.82-3.42,7.3-5.15,1.25-.85,2.53-1.67,3.81-2.52,1.28-.85,2.58-1.69,3.9-2.5,21.06-13.23,41.97-21.99,57.42-27.03,7.74-2.52,14.13-4.14,18.56-5.2,2.22-.51,3.95-.84,5.13-1.09.57-.11,1.01-.2,1.34-.27.3-.06.46-.07.46-.07Z"/>
        <path class="cls-7" d="M25.87,258.59s.02-.15.08-.45c.07-.32.16-.75.28-1.31.27-1.14.57-2.86,1.27-4.98,1.24-4.28,3.58-10.4,7.96-17.12,2.21-3.33,4.85-6.85,8.09-10.27,3.21-3.44,6.92-6.85,11.02-10.18,8.22-6.63,17.76-13.31,28.21-19.59,10.49-6.23,20.85-11.52,30.49-15.82,9.65-4.3,18.57-7.64,26.16-10.13,7.59-2.5,13.86-4.07,18.2-5.13,2.18-.5,3.88-.83,5.03-1.07.56-.11.99-.2,1.31-.26.3-.06.45-.07.45-.07,0,0-.15.05-.44.12-.32.08-.75.18-1.3.31-1.17.27-2.85.66-5,1.17-4.32,1.12-10.57,2.74-18.13,5.28-7.56,2.53-16.45,5.9-26.08,10.22-9.62,4.32-19.96,9.62-30.42,15.83-10.43,6.27-19.95,12.92-28.17,19.51-4.09,3.32-7.79,6.7-11,10.11-3.24,3.38-5.88,6.87-8.1,10.17-4.4,6.65-6.77,12.72-8.07,16.97-.73,2.11-1.06,3.81-1.36,4.95-.14.55-.25.98-.33,1.3-.08.29-.13.44-.13.44Z"/>
        <path class="cls-7" d="M31.42,272.4c-.14,0-.32-4.7-.4-10.51-.08-5.81-.02-10.51.12-10.52.14,0,.32,4.7.4,10.51.08,5.8.02,10.51-.12,10.52Z"/>
        <path class="cls-7" d="M28.68,273.93c-.14,0-.26-3-.26-6.71s.12-6.71.26-6.71.26,3,.26,6.71-.12,6.71-.26,6.71Z"/>
        <path class="cls-7" d="M47.49,321.62c-.14,0-.26-8.81-.26-19.67s.12-19.67.26-19.67.26,8.8.26,19.67-.12,19.67-.26,19.67Z"/>
        <path class="cls-7" d="M50.8,320.26c-.14,0-.26-9.04-.26-20.18s.12-20.18.26-20.18.26,9.03.26,20.18-.12,20.18-.26,20.18Z"/>
        <path class="cls-7" d="M36.14,326.97c-.14,0-.26-8.05-.26-17.98s.12-17.98.26-17.98.26,8.05.26,17.98-.12,17.98-.26,17.98Z"/>
        <path class="cls-7" d="M39.44,325.73c-.14,0-.26-8.26-.26-18.45s.12-18.45.26-18.45.26,8.26.26,18.45-.12,18.45-.26,18.45Z"/>
        <path class="cls-7" d="M29.84,330.26c-.14,0-.26-7.18-.26-16.04s.12-16.04.26-16.04.26,7.18.26,16.04-.12,16.04-.26,16.04Z"/>
        <path class="cls-7" d="M31.52,329.15c-.14,0-.26-7.42-.26-16.57s.12-16.57.26-16.57.26,7.42.26,16.57-.12,16.57-.26,16.57Z"/>
        <path class="cls-7" d="M62.86,316.17c-.14,0-.26-9.8-.26-21.88s.12-21.88.26-21.88.26,9.8.26,21.88-.12,21.88-.26,21.88Z"/>
        <path class="cls-7" d="M66.83,315.08c-.14,0-.26-10.09-.26-22.53s.12-22.53.26-22.53.26,10.08.26,22.53-.12,22.53-.26,22.53Z"/>
        <path class="cls-7" d="M84.81,310.71c-.14,0-.26-10.95-.26-24.45s.12-24.45.26-24.45.26,10.95.26,24.45-.12,24.45-.26,24.45Z"/>
        <path class="cls-7" d="M89.43,309.71c-.14,0-.26-10.95-.26-24.45s.12-24.45.26-24.45.26,10.95.26,24.45-.12,24.45-.26,24.45Z"/>
        <path class="cls-7" d="M118.02,304.7c-.14,0-.26-12.52-.26-27.95s.12-27.95.26-27.95.26,12.51.26,27.95-.12,27.95-.26,27.95Z"/>
        <path class="cls-7" d="M123.01,304.04c-.14,0-.28-12.76-.31-28.5-.03-15.75.06-28.51.21-28.51.14,0,.28,12.76.31,28.51.03,15.74-.06,28.5-.21,28.5Z"/>
        <path class="cls-7" d="M153.57,299.07c-.14,0-.26-13.11-.26-29.28s.12-29.29.26-29.29.26,13.11.26,29.29-.12,29.28-.26,29.28Z"/>
        <path class="cls-7" d="M160.67,297.91c-.14,0-.26-13.11-.26-29.28s.12-29.29.26-29.29.26,13.11.26,29.29-.12,29.28-.26,29.28Z"/>
        <path class="cls-7" d="M201.32,294.94c-.14,0-.17-13.35-.05-29.82.12-16.47.33-29.82.47-29.81.14,0,.17,13.35.05,29.82-.12,16.46-.33,29.81-.47,29.81Z"/>
        <path class="cls-7" d="M208.09,293.62c-.14,0-.26-12.93-.26-28.88s.12-28.88.26-28.88.26,12.93.26,28.88-.12,28.88-.26,28.88Z"/>
        <path class="cls-7" d="M246.63,326.46s.42.01,1.23.06c.83.05,2.05.13,3.65.23,3.23.22,8.02.54,14.28.96h.1s0,.1,0,.1c-.1,1.87-.2,3.9-.31,6.06v.11s-.12,0-.12,0c-4.89-.3-10.5-.56-16.75-1-3.12-.21-6.41-.44-9.84-.67-3.44-.22-7.04-.37-10.78-.57-14.96-.72-32.29-1.25-51.44-1.09-19.15.17-40.15.93-62.39,2.9-2.78.29-5.57.57-8.39.86-2.81.31-5.66.53-8.5.94-5.69.77-11.47,1.4-17.27,2.41-2.9.48-5.83.91-8.75,1.44-2.92.57-5.85,1.15-8.8,1.73-2.96.53-5.88,1.28-8.83,1.98-1.47.35-2.95.71-4.43,1.06-.74.18-1.49.34-2.22.55l-2.2.64c-1.62.47-3.23.94-4.84,1.41-.8.23-1.6.47-2.4.7-.8.23-1.6.46-2.37.76-3.11,1.11-6.18,2.21-9.17,3.28l-.13.05-.1-.07c-.76-.5-1.25-1.22-1.69-1.92l-.17-.27.3-.11c3.72-1.33,7.39-2.74,11.08-3.98,3.73-1.13,7.4-2.33,11.09-3.38,3.71-.97,7.38-1.94,11.03-2.9,3.68-.83,7.32-1.65,10.93-2.46,14.48-3.01,28.54-5.2,41.95-6.9,26.83-3.24,51-4.5,71.22-4.87,20.23-.34,36.51.2,47.71.78,2.8.1,5.29.31,7.44.46,2.15.15,3.97.28,5.44.39,1.46.11,2.58.19,3.34.25.75.06,1.13.1,1.13.1,0,0-.39,0-1.14-.05-.76-.05-1.88-.11-3.34-.2-1.47-.09-3.29-.2-5.44-.34-2.15-.13-4.63-.33-7.44-.41-11.21-.53-27.48-1.01-47.7-.62-20.21.41-44.37,1.72-71.17,4.98-13.39,1.72-27.43,3.91-41.9,6.93-3.6.81-7.24,1.63-10.91,2.46-3.64.96-7.31,1.92-11.01,2.9-3.68,1.05-7.35,2.25-11.07,3.38-3.68,1.24-7.34,2.65-11.05,3.98l.12-.38c.42.67.9,1.34,1.53,1.75l-.24-.02c3-1.07,6.08-2.17,9.2-3.29.77-.3,1.57-.53,2.38-.76.8-.23,1.6-.47,2.41-.7,1.61-.47,3.23-.94,4.85-1.42l2.21-.64c.74-.21,1.48-.36,2.22-.55,1.48-.36,2.96-.71,4.44-1.06,2.96-.7,5.89-1.45,8.85-1.98,2.95-.58,5.89-1.16,8.81-1.73,2.93-.53,5.86-.96,8.77-1.44,5.8-1.01,11.59-1.64,17.29-2.41,2.84-.41,5.69-.62,8.51-.93,2.82-.29,5.62-.57,8.4-.86,22.26-1.96,43.27-2.7,62.43-2.84,19.17-.14,36.5.43,51.46,1.18,3.74.21,7.34.37,10.78.6,3.44.25,6.72.48,9.84.7,6.24.46,11.85.75,16.74,1.06l-.12.11c.12-2.16.23-4.18.33-6.05l.09.1c-6.26-.46-11.04-.81-14.28-1.05-1.6-.12-2.82-.22-3.65-.28-.82-.07-1.23-.11-1.23-.11Z"/>
        <path class="cls-7" d="M211.19,234.98s-.36.02-1.06.03c-.71.01-1.75.02-3.11.04-1.37.01-3.06.03-5.06.05-2,.04-4.3.17-6.9.27-10.37.48-25.41,1.69-43.7,5.1-2.29.4-4.61.95-6.99,1.44-2.38.5-4.82.99-7.28,1.64-2.46.61-4.98,1.23-7.54,1.87-2.54.72-5.12,1.46-7.75,2.21-10.48,3.13-21.53,7-32.82,11.89-11.27,4.93-22.77,10.9-34.08,18.08-2.85,1.75-5.68,3.61-8.47,5.56-2.79,1.95-5.55,3.99-8.19,6.22-5.26,4.46-9.96,9.82-13.1,16.18l-.12.24-.22-.12c-.24-.13-.51-.23-.74-.4-.22-.19-.45-.37-.68-.56l-.15-.12.1-.18c.07-.13.15-.28.22-.42,3.26-6.46,8-11.96,13.26-16.58,5.29-4.61,11-8.53,16.74-12.11,11.41-7.3,22.93-13.56,34.27-18.68,11.34-5.14,22.44-9.27,33-12.62,2.65-.8,5.26-1.58,7.81-2.35,2.57-.71,5.12-1.35,7.6-2,1.25-.32,2.47-.66,3.7-.94,1.23-.27,2.44-.54,3.65-.81,2.41-.52,4.75-1.09,7.06-1.53,18.48-3.63,33.71-4.87,44.22-5.31,2.63-.09,4.96-.22,6.99-.24,2.02,0,3.74,0,5.12,0,1.38,0,2.43,0,3.15,0,.71,0,1.07.02,1.07.02,0,0-.36.02-1.07.03-.72.01-1.77.03-3.15.05-1.39.02-3.1.04-5.12.06-2.02.03-4.36.18-6.98.29-10.49.51-25.7,1.8-44.15,5.47-2.31.44-4.64,1.02-7.05,1.55-1.2.27-2.41.54-3.64.82-1.23.28-2.45.63-3.69.95-2.48.66-5.02,1.3-7.59,2.01-2.55.77-5.15,1.56-7.8,2.36-10.53,3.35-21.61,7.49-32.93,12.64-11.32,5.12-22.81,11.38-34.2,18.67-5.73,3.59-11.42,7.49-16.67,12.07-5.22,4.59-9.91,10.04-13.14,16.42-.08.14-.15.29-.22.42l-.06-.31c.2.17.41.34.61.51.21.15.46.24.67.36l-.34.12c3.18-6.44,7.94-11.87,13.23-16.35,2.65-2.25,5.42-4.3,8.23-6.25,2.8-1.95,5.63-3.81,8.5-5.56,11.34-7.19,22.86-13.16,34.16-18.09,11.32-4.88,22.39-8.75,32.89-11.86,2.63-.75,5.22-1.48,7.77-2.2,2.57-.63,5.08-1.25,7.55-1.86,2.46-.64,4.9-1.13,7.29-1.62,2.39-.48,4.71-1.03,7-1.42,18.32-3.37,33.37-4.52,43.76-4.95,2.6-.08,4.91-.2,6.91-.22,2,0,3.69,0,5.06,0,1.36,0,2.4,0,3.11,0,.7,0,1.06.02,1.06.02Z"/>
      </g>
      <path class="cls-7" d="M449.37,304.37s-.23-.27-.68-.82c-.45-.56-1.11-1.38-1.98-2.46h-.01s0-.03,0-.03c-.01-3-.03-7.63-.05-13.74l.03.07c-.51-.54-1.08-1.15-1.68-1.78l.18-.07c0,2.18.01,4.54.02,7.05,0,1.26,0,2.55,0,3.89,0,.67,0,1.34,0,2.03,0,0,0,.08-.05.14-.03.06-.13.07-.18.06-.06-.02-.12-.05-.16-.07-.09-.05-.15-.11-.22-.17-.14-.11-.26-.24-.39-.36-.25-.25-.49-.5-.73-.77l-.03-.04v-.05c-.08-2.68-.15-5.55-.19-8.59-.01-1.52-.04-3.08.02-4.68,0-.2.02-.4.04-.61,0-.05.01-.1.03-.16l.02-.09s.04-.08.08-.11c.02-.01.03-.03.05-.04,0,0-.03,0-.04.02-.07.14-.02.07-.05.05-.02-.03-.04-.07-.07-.11-.22-.31-.51-.6-.78-.9-.56-.58-1.16-1.16-1.76-1.72l.28-.11c-.24,4.6-.49,9.49-.75,14.63l-.02.37-.28-.23c-.69-.57-1.49-1.24-2.29-1.91l-.07-.06v-.09c.2-4.49.42-9.34.64-14.38l.1.18c-1.32-.8-2.82-1.71-4.35-2.63l.31-.18c0,4.79,0,9.99.01,15.36v.36s-.32-.16-.32-.16c-1.52-.78-3.23-1.65-4.96-2.54l-.12-.06v-.14c0-5.15,0-10.76-.01-16.5l.12.2c-.97-.52-2.07-1.1-3.18-1.69l.34-.21c0,5.29,0,11.05,0,16.92v.35s-.32-.12-.32-.12c-2.53-.91-5.32-1.91-8.15-2.92l-.16-.06v-.17c0-5.56,0-11.57,0-17.69l.17.24c-1.5-.52-3.17-1.09-4.84-1.66l.34-.24c.02,4.53.04,9.2.06,13.95v1.79s-.03.9-.03.9c0,.16,0,.28-.05.53-.03.07-.09.13-.14.17l-.1.04c-.08.03-.13.03-.17.04-.1.01-.18,0-.27,0-1.26-.13-2.4-.47-3.58-.78-2.34-.65-4.66-1.37-6.99-2.13l-.18-.06v-.18c-.06-3.65-.11-7.41-.17-11.24-.01-1.92-.02-3.85,0-5.8l.04-1.47c.02-.26.02-.47.07-.78.02-.09.05-.18.07-.26l.02-.06s-.05.08-.04.13c0,.08.06.13.04.12-.02-.01-.14-.07-.24-.1-.89-.26-1.88-.39-2.84-.54-.95-.14-1.91-.25-2.85-.36l.29-.26c.03,3.15.07,6.29.1,9.41,0,1.56,0,3.12.01,4.67l-.02,2.33c-.02.79,0,1.5-.11,2.38l-.03.23-.26-.05c-4.19-.73-8.35-1.45-12.47-2.16l-.21-.04v-.22c0-6.73,0-13.35,0-19.86l.17.24c-2.61-.86-5.19-1.71-7.75-2.55l.33-.23c-.08,3.62-.16,7.19-.24,10.73-.04,3.45-.08,6.86-.12,10.23v.48s-.1,0-.1,0c-4.89-.42-9.65-.82-14.33-1.22l-.22-.02v-.22c0-7.71,0-15.1.01-22.22l.18.22c-3.2-.63-6.27-1.24-9.29-1.83l.26-.21c-.06,3.94-.11,7.78-.16,11.51-.02,3.73-.09,7.37.04,10.87l.03.32.02.14v.02s.03.04-.03-.04c-.01-.01-.03-.02-.04-.03-.17-.18.26.19-.01.37-.02,0-.04.01-.07.01h-.06s-.67-.02-.67-.02c-.44-.02-.87-.05-1.31-.07-.87-.05-1.73-.11-2.58-.16-1.7-.11-3.38-.22-5.03-.33-3.3-.23-6.49-.45-9.57-.66h-.16s0-.17,0-.17c.01-8.07.02-15.18.03-21.51l.12.14c-3.37-.45-6.16-.82-8.78-1.16l.14-.12c-.01,4.76-.02,8.97-.03,12.61,0,1.82-.01,3.5-.02,5.03,0,.77,0,1.5,0,2.19,0,.35,0,.68,0,1.01v.24s0,.12,0,.12v.06s0,.02,0,0c.03,0-.26,0-.14,0h0s0,0,0,0c-.04-.07-.23-.12-.37-.15-1.21-.21-2.31-.2-3.24-.24-.93-.02-1.72-.03-2.35-.04-.62-.02-1.1-.03-1.43-.04-.32-.01-.48-.05-.48-.05,0,0,.64.03,1.91.02.63,0,1.42,0,2.36.01.94.03,2.03,0,3.27.21.15.05.32.04.47.23l.02.05h0c.12.01-.16.02-.14.02,0,0,0,0,0,0v-.06s0-.12,0-.12v-.24c0-.33,0-.67,0-1.01,0-.69,0-1.42,0-2.19,0-1.53,0-3.21-.02-5.03,0-3.64-.02-7.85-.03-12.61v-.14s.14.02.14.02c2.62.34,5.41.7,8.78,1.13l.12.02v.12c0,6.33.02,13.44.03,21.51l-.16-.17c3.08.2,6.27.42,9.57.63,1.65.11,3.33.21,5.03.32.85.05,1.71.1,2.58.16.43.02.87.05,1.3.07l.64.02s.03,0,.02,0h-.01c0,.06.03.12.05.18,0-.14-.05.27-.09.18-.02-.01-.04-.03-.06-.04-.08-.1-.05-.09-.07-.12l-.02-.06c-.01-.06-.02-.12-.03-.18l-.03-.34c-.14-3.54-.07-7.16-.06-10.9.05-3.73.09-7.57.14-11.51v-.26s.26.05.26.05c3.01.59,6.09,1.19,9.29,1.82l.18.04v.18c0,7.12,0,14.51.01,22.22l-.22-.23c4.67.39,9.44.8,14.33,1.21l-.1.47c-.08-.04-.18-.16-.19-.25v-.09c-.02-.06-.03-.13-.04-.18l-.02-.33-.02-.65-.02-1.3c0-.87,0-1.74,0-2.61.02-1.75.05-3.5.07-5.27.08-3.53.16-7.11.24-10.73v-.34s.33.11.33.11c2.56.84,5.15,1.69,7.76,2.54l.17.06v.18c0,6.51,0,13.14,0,19.86l-.21-.25c4.12.71,8.28,1.43,12.47,2.15l-.29.19c.07-.66.07-1.5.08-2.25l.02-2.32c0-1.55,0-3.1-.01-4.66-.03-3.12-.07-6.25-.1-9.41v-.3s.29.03.29.03c.96.11,1.91.23,2.87.36.98.15,1.94.27,2.92.56.13.05.24.07.42.2.03.01.13.12.14.26,0,.04,0,.08-.02.11l-.02.05v.02c-.09-.05.14.15-.19-.11.24.21.14.13.16.16,0,.04,0,.07,0,.1-.02.17-.03.46-.05.68l-.04,1.45c-.03,1.94-.02,3.87,0,5.78.06,3.83.11,7.59.17,11.24l-.18-.24c2.32.76,4.64,1.48,6.96,2.13,1.15.3,2.34.65,3.47.76.07,0,.13,0,.18,0,.03,0,.05,0,.05,0,0,0,0,0,0,0,.02.03.04.06.06.09,0,.02,0,.03.02.05h.02c.16.03-.21-.03-.17-.03h0s0-.03,0-.03v-.05s0-.1,0-.1v-.21s.03-.89.03-.89v-1.78c0-4.75-.02-9.42-.04-13.95v-.36s.34.12.34.12c1.67.58,3.33,1.15,4.83,1.67l.17.06v.18c0,6.11,0,12.13,0,17.69l-.16-.23c2.82,1.02,5.62,2.02,8.14,2.93l-.32.23c0-5.87,0-11.63,0-16.92v-.39s.34.18.34.18c1.11.59,2.21,1.18,3.18,1.7l.12.07v.14c0,5.74,0,11.35-.01,16.5l-.12-.2c1.73.89,3.45,1.77,4.96,2.55l-.32.19c0-5.37,0-10.57.01-15.36v-.37s.31.19.31.19c1.52.92,3.02,1.84,4.34,2.64l.1.06v.12c-.24,5.04-.47,9.89-.67,14.38l-.07-.15c.8.67,1.6,1.34,2.28,1.91l-.3.13c.28-5.14.54-10.03.79-14.63l.02-.36.26.24c.61.57,1.2,1.15,1.77,1.74.28.3.56.59.81.94.03.04.06.09.09.15,0,.06.12.11-.02.33,0-.04-.03.11-.04.19-.02.19-.03.39-.04.59-.06,1.59-.04,3.15-.03,4.66.03,3.03.09,5.9.16,8.58l-.03-.09c.23.26.47.51.72.76.12.12.25.24.37.35.06.05.13.11.19.14.03.03.05.03.07.04,0,0-.02.03-.02.06,0,.03.03.05,0,.02-.05-.04-.09.02-.07-.03,0-.69,0-1.36,0-2.03,0-1.33,0-2.63,0-3.88,0-2.51.01-4.86.02-7.04v-.27s.18.2.18.2c.59.63,1.16,1.24,1.67,1.79l.03.03v.04c-.02,6.11-.04,10.74-.05,13.74v-.03c.84,1.1,1.49,1.93,1.93,2.49.43.56.64.85.64.85Z"/>
    </g>
  </g>
  <g id="Trees">
    <g>
      <path class="cls-7" d="M19.73,387.73c-.14,0-.26-1.43-.26-3.19s.12-3.19.26-3.19.26,1.43.26,3.19-.12,3.19-.26,3.19Z"/>
      <path class="cls-9" d="M21.87,379.92c-.05-3.11-.3-5.91-.95-9.27-.08-.43-.28-.88-.66-1.12-.37-.24-1-.6-1.64.81-.96,3.04-1.31,5.57-1.44,8.75-.05,1.27.05,2.72,1.03,3.53,1.04.85,2.84.44,3.4-.78.27-.59.27-1.27.26-1.93Z"/>
    </g>
    <g>
      <path class="cls-7" d="M34.85,393.63c-.14,0-.26-1.87-.26-4.18s.12-4.18.26-4.18.26,1.87.26,4.18-.12,4.18-.26,4.18Z"/>
      <path class="cls-9" d="M37.66,383.4c-.06-4.08-.39-7.74-1.25-12.14-.11-.57-.37-1.15-.86-1.46-.49-.31-1.3-.78-2.14,1.06-1.26,3.98-1.72,7.29-1.89,11.46-.07,1.67.06,3.57,1.35,4.63,1.36,1.12,3.72.58,4.45-1.02.36-.78.35-1.67.34-2.53Z"/>
    </g>
    <g>
      <path class="cls-7" d="M56.96,399.35c-.14,0-.26-2.42-.26-5.4s.12-5.4.26-5.4.26,2.42.26,5.4-.12,5.4-.26,5.4Z"/>
      <path class="cls-9" d="M60.59,386.13c-.08-5.27-.51-10-1.61-15.69-.14-.73-.48-1.49-1.11-1.89s-1.69-1.01-2.77,1.37c-1.62,5.15-2.22,9.42-2.44,14.81-.09,2.15.08,4.61,1.74,5.98,1.75,1.44,4.81.74,5.75-1.32.46-1.01.45-2.16.44-3.26Z"/>
    </g>
    <g>
      <path class="cls-7" d="M85.69,406.18c-.14,0-.26-2.72-.26-6.07s.12-6.07.26-6.07.26,2.72.26,6.07-.12,6.07-.26,6.07Z"/>
      <path class="cls-9" d="M89.77,391.33c-.09-5.92-.57-11.24-1.81-17.63-.16-.82-.54-1.67-1.25-2.12-.71-.45-1.89-1.14-3.11,1.53-1.82,5.78-2.5,10.59-2.74,16.65-.1,2.42.09,5.18,1.96,6.72,1.97,1.62,5.4.84,6.46-1.48.52-1.13.51-2.42.49-3.67Z"/>
    </g>
    <g>
      <path class="cls-7" d="M118.48,412.9c-.14,0-.26-3.26-.26-7.27s.12-7.27.26-7.27.26,3.26.26,7.27-.12,7.27-.26,7.27Z"/>
      <path class="cls-9" d="M123.37,395.11c-.11-7.09-.68-13.46-2.17-21.11-.19-.99-.64-2-1.49-2.54-.85-.54-2.27-1.36-3.73,1.84-2.18,6.93-2.99,12.68-3.28,19.94-.11,2.9.1,6.2,2.34,8.05,2.36,1.94,6.47,1,7.74-1.78.62-1.35.61-2.9.59-4.39Z"/>
    </g>
    <g>
      <path class="cls-7" d="M157.43,418.95c-.14,0-.26-3.72-.26-8.31s.12-8.32.26-8.32.26,3.72.26,8.32-.12,8.31-.26,8.31Z"/>
      <path class="cls-9" d="M163.02,398.61c-.13-8.11-.78-15.39-2.48-24.14-.22-1.13-.74-2.29-1.71-2.91-.97-.62-2.59-1.56-4.26,2.1-2.49,7.92-3.42,14.5-3.75,22.79-.13,3.31.12,7.09,2.68,9.2,2.7,2.22,7.39,1.14,8.85-2.03.71-1.55.7-3.32.67-5.02Z"/>
    </g>
    <g>
      <path class="cls-7" d="M207.01,423.84c-.14,0-.26-3.72-.26-8.31s.12-8.32.26-8.32.26,3.72.26,8.32-.12,8.31-.26,8.31Z"/>
      <path class="cls-9" d="M212.6,403.5c-.13-8.11-.78-15.39-2.48-24.14-.22-1.13-.74-2.29-1.71-2.91-.97-.62-2.59-1.56-4.26,2.1-2.49,7.92-3.42,14.5-3.75,22.79-.13,3.31.12,7.09,2.68,9.2,2.7,2.22,7.39,1.14,8.85-2.03.71-1.55.7-3.32.67-5.02Z"/>
    </g>
    <g>
      <path class="cls-7" d="M462.56,381.38c-.14,0-.26-1.43-.26-3.19s.12-3.19.26-3.19.26,1.43.26,3.19-.12,3.19-.26,3.19Z"/>
      <path class="cls-9" d="M460.41,373.57c.05-3.11.3-5.91.95-9.27.08-.43.28-.88.66-1.12.37-.24,1-.6,1.64.81.96,3.04,1.31,5.57,1.44,8.75.05,1.27-.05,2.72-1.03,3.53-1.04.85-2.84.44-3.4-.78-.27-.59-.27-1.27-.26-1.93Z"/>
    </g>
    <g>
      <path class="cls-7" d="M453.07,388.26c-.14,0-.26-1.87-.26-4.18s.12-4.18.26-4.18.26,1.87.26,4.18-.12,4.18-.26,4.18Z"/>
      <path class="cls-9" d="M450.26,378.03c.06-4.08.39-7.74,1.25-12.14.11-.57.37-1.15.86-1.46.49-.31,1.3-.78,2.14,1.06,1.25,3.98,1.72,7.29,1.89,11.46.07,1.67-.06,3.57-1.35,4.63-1.36,1.12-3.72.58-4.45-1.02-.36-.78-.35-1.67-.34-2.53Z"/>
    </g>
    <g>
      <path class="cls-7" d="M434.5,398.78c-.14,0-.26-2.42-.26-5.4s.12-5.4.26-5.4.26,2.42.26,5.4-.12,5.4-.26,5.4Z"/>
      <path class="cls-9" d="M430.87,385.56c.08-5.27.51-10,1.61-15.69.14-.73.48-1.49,1.11-1.89s1.69-1.01,2.77,1.37c1.62,5.15,2.22,9.42,2.44,14.81.09,2.15-.08,4.61-1.74,5.98-1.75,1.44-4.81.74-5.75-1.32-.46-1.01-.45-2.16-.44-3.26Z"/>
    </g>
    <g>
      <path class="cls-7" d="M406.11,404.91c-.14,0-.26-2.72-.26-6.07s.12-6.07.26-6.07.26,2.72.26,6.07-.12,6.07-.26,6.07Z"/>
      <path class="cls-9" d="M402.03,390.05c.09-5.92.57-11.24,1.81-17.63.16-.82.54-1.67,1.25-2.12.71-.45,1.89-1.14,3.11,1.53,1.82,5.78,2.5,10.59,2.74,16.65.1,2.42-.09,5.18-1.96,6.72-1.97,1.62-5.4.84-6.46-1.48-.52-1.13-.51-2.42-.49-3.67Z"/>
    </g>
    <g>
      <path class="cls-7" d="M373.32,413.46c-.14,0-.26-3.26-.26-7.27s.12-7.27.26-7.27.26,3.26.26,7.27-.12,7.27-.26,7.27Z"/>
      <path class="cls-9" d="M368.43,395.67c.11-7.09.68-13.46,2.17-21.11.19-.99.64-2,1.49-2.54.85-.54,2.27-1.36,3.73,1.84,2.18,6.93,2.99,12.68,3.28,19.94.11,2.9-.1,6.2-2.34,8.05-2.36,1.94-6.47,1-7.74-1.78-.62-1.35-.61-2.9-.59-4.39Z"/>
    </g>
    <g>
      <path class="cls-7" d="M335.22,422.11c-.14,0-.26-3.72-.26-8.31s.12-8.32.26-8.32.26,3.72.26,8.32-.12,8.31-.26,8.31Z"/>
      <path class="cls-9" d="M329.63,401.77c.13-8.11.78-15.39,2.48-24.14.22-1.13.74-2.29,1.71-2.91.97-.62,2.59-1.56,4.26,2.1,2.5,7.92,3.42,14.5,3.75,22.79.13,3.31-.12,7.09-2.68,9.2-2.7,2.22-7.39,1.14-8.85-2.03-.71-1.55-.7-3.32-.67-5.02Z"/>
    </g>
  </g>
  <g id="Sun">
    <g>
      <g>
        <circle class="cls-8" cx="291.09" cy="129.2" r="36.31" transform="translate(97.52 382.1) rotate(-76.5)"/>
        <circle class="cls-2" cx="291.09" cy="129.2" r="36.31" transform="translate(97.52 382.1) rotate(-76.5)"/>
      </g>
      <g>
        <circle class="cls-8" cx="291.09" cy="129.2" r="32.38"/>
        <circle class="cls-6" cx="291.09" cy="129.2" r="32.38"/>
      </g>
      <g>
        <circle class="cls-8" cx="291.09" cy="129.2" r="26.95"/>
        <circle class="cls-10" cx="291.09" cy="129.2" r="26.95"/>
      </g>
      <circle class="cls-8" cx="291.09" cy="129.2" r="21.58"/>
    </g>
  </g>
</svg>